<svg width="279" height="325" viewBox="0 0 279 325" fill="none" xmlns="http://www.w3.org/2000/svg">
<path d="M159.776 20.7118L96.3459 39.1068L13.6948 117.942L108.934 276.368C108.934 276.368 171.287 327.211 227.828 322.443L251.434 270.559L159.789 20.6873L159.776 20.7118Z" fill="url(#paint0_linear_0_610)"/>
<path d="M216.298 322.852C223.558 322.955 227.812 322.471 227.812 322.471C227.812 322.471 223.555 323.119 216.298 322.852Z" fill="white"/>
<path d="M96.7908 21.2537L150.921 22.6187L37.3981 103.236C29.5187 108.829 27.0747 119.448 31.7273 127.932L85.0359 225.059C131.764 310.203 191.572 321.903 216.31 322.838C187.204 322.425 109.511 312.59 61.1332 224.451L6.76581 125.384C4.73293 121.681 3.98914 117.408 4.65152 113.236C5.31389 109.064 7.34482 105.231 10.4246 102.34L96.8024 21.2407L96.7908 21.2537Z" fill="url(#paint1_linear_0_610)"/>
<path d="M61.1346 224.464L6.76277 125.396C5.34567 122.813 4.55272 119.934 4.44733 116.99L29.3958 118.833C29.3972 121.924 30.1512 125.054 31.7257 127.944L85.0343 225.072C131.762 310.216 191.572 321.916 216.308 322.851C187.203 322.437 109.51 312.602 61.1346 224.464Z" fill="url(#paint2_linear_0_610)"/>
<path d="M6.76277 125.398C5.34551 122.814 4.55255 119.935 4.44733 116.99L29.3958 118.833C29.3972 121.924 30.1512 125.054 31.7257 127.944L70.3703 198.355L41.2792 188.314L6.75266 125.409L6.76277 125.398Z" fill="url(#paint3_linear_0_610)"/>
<path d="M80.9176 217.555L51.828 207.515L46.6395 198.055L75.7292 208.095L80.9176 217.555Z" fill="url(#paint4_linear_0_610)"/>
<path d="M216.298 322.852C223.558 322.955 227.812 322.471 227.812 322.471C227.812 322.471 223.555 323.12 216.298 322.852ZM96.7908 21.2537L150.921 22.6187L37.3981 103.236C29.5187 108.829 27.0747 119.449 31.7273 127.932L85.0359 225.059C131.764 310.203 191.572 321.903 216.31 322.838C187.204 322.425 109.511 312.59 61.1332 224.451L6.76581 125.384C4.73293 121.681 3.98914 117.408 4.65152 113.236C5.31389 109.064 7.34482 105.231 10.4246 102.34L96.8024 21.2407L96.7908 21.2537Z" stroke="#0500FF" stroke-width="0.889778" stroke-linecap="round" stroke-linejoin="round"/>
<path d="M216.298 322.852C223.558 322.955 227.812 322.471 227.812 322.471C227.812 322.471 223.555 323.119 216.298 322.852Z" fill="white" stroke="#0500FF" stroke-width="0.889778" stroke-linecap="round" stroke-linejoin="round"/>
<path d="M85.0447 225.072L31.736 127.945C27.0849 119.461 29.5144 108.842 37.4069 103.249L150.93 22.6316L196.615 144.047C241.781 264.108 227.845 322.482 227.845 322.482C227.845 322.482 223.591 322.966 216.33 322.864C191.593 321.929 131.784 310.229 85.0562 225.085L85.0447 225.072Z" stroke="#0500FF" stroke-width="0.889778" stroke-linecap="round" stroke-linejoin="round"/>
<path d="M196.595 144.034L150.911 22.6199L202.3 4.52392C205.986 3.22756 210.033 3.42648 213.574 5.07806C217.115 6.72964 219.868 9.70248 221.244 13.3596L261.769 121.092C306.934 241.153 227.813 322.482 227.813 322.482C227.813 322.482 241.761 264.121 196.583 144.047L196.595 144.034Z" fill="#F4F4F7"/>
<path d="M205.208 3.61399L150.914 22.62L96.7952 21.255L181.307 3.00732L205.208 3.61399Z" fill="#2D9FFF" stroke="#0500FF" stroke-width="0.889778" stroke-linecap="round" stroke-linejoin="round"/>
<path d="M218.91 215.593L272.545 159.825C290.248 258.308 227.822 322.469 227.822 322.469C227.822 322.469 236.186 287.36 218.909 215.644L218.91 215.593Z" fill="url(#paint5_linear_0_610)"/>
<path d="M268.912 143.415L217.47 209.801L214.419 198.666L261.768 121.079L268.912 143.415Z" fill="url(#paint6_linear_0_610)"/>
<path d="M196.595 144.034L150.911 22.6199L202.3 4.52392C205.986 3.22756 210.033 3.42648 213.574 5.07806C217.115 6.72964 219.868 9.70248 221.244 13.3596L261.769 121.092C306.934 241.153 227.813 322.482 227.813 322.482C227.813 322.482 241.761 264.121 196.583 144.047L196.595 144.034Z" stroke="#0500FF" stroke-width="0.889778" stroke-linecap="round" stroke-linejoin="round"/>
<defs>
<linearGradient id="paint0_linear_0_610" x1="169.325" y1="176.793" x2="58.5679" y2="237.89" gradientUnits="userSpaceOnUse">
<stop stop-color="#FFAEFE"/>
<stop offset="1" stop-color="#FFF465"/>
</linearGradient>
<linearGradient id="paint1_linear_0_610" x1="187.83" y1="73.4574" x2="134.68" y2="171.966" gradientUnits="userSpaceOnUse">
<stop stop-color="#0500FF"/>
<stop offset="0.15" stop-color="#0912FF"/>
<stop offset="0.47" stop-color="#1541FF"/>
<stop offset="0.9" stop-color="#288CFF"/>
<stop offset="1" stop-color="#2D9FFF"/>
</linearGradient>
<linearGradient id="paint2_linear_0_610" x1="86.0151" y1="173.052" x2="140.375" y2="281.782" gradientUnits="userSpaceOnUse">
<stop stop-color="#0500FF"/>
<stop offset="0.15" stop-color="#0912FF"/>
<stop offset="0.47" stop-color="#1541FF"/>
<stop offset="0.9" stop-color="#288CFF"/>
<stop offset="1" stop-color="#2D9FFF"/>
</linearGradient>
<linearGradient id="paint3_linear_0_610" x1="31.3877" y1="125.009" x2="41.2691" y2="179.476" gradientUnits="userSpaceOnUse">
<stop stop-color="#FFAEFE"/>
<stop offset="1" stop-color="#FFF465"/>
</linearGradient>
<linearGradient id="paint4_linear_0_610" x1="48.214" y1="121.957" x2="58.0969" y2="176.423" gradientUnits="userSpaceOnUse">
<stop stop-color="#FFAEFE"/>
<stop offset="1" stop-color="#FFF465"/>
</linearGradient>
<linearGradient id="paint5_linear_0_610" x1="213.753" y1="200.931" x2="284.901" y2="279.402" gradientUnits="userSpaceOnUse">
<stop stop-color="#0500FF"/>
<stop offset="0.15" stop-color="#0912FF"/>
<stop offset="0.47" stop-color="#1541FF"/>
<stop offset="0.9" stop-color="#288CFF"/>
<stop offset="1" stop-color="#2D9FFF"/>
</linearGradient>
<linearGradient id="paint6_linear_0_610" x1="245.602" y1="172.039" x2="316.748" y2="250.51" gradientUnits="userSpaceOnUse">
<stop stop-color="#0500FF"/>
<stop offset="0.15" stop-color="#0912FF"/>
<stop offset="0.47" stop-color="#1541FF"/>
<stop offset="0.9" stop-color="#288CFF"/>
<stop offset="1" stop-color="#2D9FFF"/>
</linearGradient>
</defs>
</svg>
