<svg width="371" height="325" viewBox="0 0 371 325" fill="none" xmlns="http://www.w3.org/2000/svg">
<path d="M160.265 162.301L129.883 112.543C116.323 90.3277 83.2398 73.7318 57.6431 76.2952C47.8213 77.2781 40.8319 80.9183 37.9604 86.5347C34.9806 92.3677 36.3706 100.775 41.7573 109.593L72.1376 159.352L48.0732 173.534L17.6929 123.774C7.2668 106.702 5.50997 88.6244 12.874 74.1821C20.0893 60.04 35.3682 50.8095 54.7977 48.8647C91.2225 45.2179 134.779 66.959 153.949 98.36L184.329 148.12L160.265 162.301Z" fill="#1B1B1C"/>
<path d="M27.935 123.257C18.9054 109.137 19.2539 92.0362 13.618 86.7722C12.023 98.3208 15.0224 111.058 22.487 123.295L32.2892 139.353C33.5813 137.103 33.8372 132.488 27.935 123.257Z" fill="url(#paint0_linear_0_629)"/>
<path d="M158.743 139.34C150.064 125.719 139.474 110.47 142.324 108.902C145.172 107.334 155.463 123.377 166.859 138.527L158.743 139.34Z" fill="url(#paint1_linear_0_629)"/>
<path d="M131.887 110.596L161.494 157.456L164.761 155.017L129.984 100.04C122.151 87.6609 113.708 69.9426 80.7561 61.764C41.0905 51.9227 21.49 76.0823 34.0736 95.8551C32.027 86.0072 39.3232 75.3671 55.4923 73.7486C82.355 71.0598 115.595 84.8064 131.886 110.587L131.887 110.596Z" fill="url(#paint2_linear_0_629)"/>
<path d="M103.362 167.494L88.6604 146.357L54.6516 149.762C40.4664 151.182 23.4124 162.469 16.7506 174.855C13.541 180.817 13.3152 185.982 15.5106 189.577L82.4136 299.147L166.27 263.652L103.372 167.492L103.362 167.494Z" fill="#1B1B1C" stroke="#48FF91" stroke-width="0.903213" stroke-linecap="round" stroke-linejoin="round"/>
<path d="M284.107 251.855L259.886 296.877C258.167 300.071 254.558 302.277 249.414 302.793L273.636 257.769C278.78 257.255 282.388 255.04 284.107 251.855Z" fill="url(#paint3_linear_0_629)"/>
<path d="M273.635 257.767L249.413 302.789L154.102 312.331L178.332 267.308L273.635 257.767Z" fill="url(#paint4_linear_0_629)"/>
<path d="M178.333 267.308L154.102 312.331L131.33 300.941L155.552 255.918L178.333 267.308Z" fill="#F4F4F7"/>
<path d="M155.552 255.919L131.33 300.941L97.3209 304.345C83.1345 305.766 76.9882 296.801 83.6501 284.415C90.3132 272.038 107.366 260.743 121.551 259.323L155.561 255.917L155.552 255.919Z" fill="url(#paint5_linear_0_629)"/>
<path d="M273.635 257.767L178.323 267.309L155.552 255.918L121.543 259.324C107.356 260.744 90.3037 272.031 83.6418 284.417C76.9787 296.794 83.1341 305.766 97.3114 304.347L131.32 300.942L154.092 312.333L249.405 302.79C254.549 302.275 258.156 300.061 259.877 296.876L284.098 251.854C282.38 255.047 278.771 257.252 273.627 257.768L273.635 257.767Z" stroke="#0500FF" stroke-width="0.903213" stroke-linecap="round" stroke-linejoin="round"/>
<path d="M123.405 142.879L99.1856 187.901L30.4214 194.785C16.2362 196.206 10.0899 187.241 16.7518 174.855C23.4136 162.47 40.4676 151.183 54.6515 149.762L123.416 142.877L123.405 142.879Z" fill="#1B1B1C" stroke="#48FF91" stroke-width="0.903213" stroke-linecap="round" stroke-linejoin="round"/>
<path d="M118.314 292.496C130.137 285.559 136.729 275.014 133.039 268.943C129.348 262.874 116.772 263.576 104.95 270.513C93.127 277.451 86.533 287.996 90.2242 294.066C93.9154 300.135 106.491 299.433 118.314 292.496Z" fill="#F4F4F7"/>
<path d="M126.998 279.113C125.31 282.704 121.567 286.572 116.504 289.539C107.876 294.6 98.7032 295.108 96.0118 290.681C93.3204 286.255 98.1289 278.563 106.758 273.503C114.239 269.108 122.141 268.147 125.85 270.86" stroke="#1B1B1C" stroke-width="0.903213" stroke-linecap="round" stroke-linejoin="round"/>
<path d="M132.979 277.577L111.019 279.777L108.852 283.807L130.704 281.62C131.487 280.419 132.457 278.922 132.979 277.577Z" fill="#1B1B1C"/>
<path d="M273.635 257.768C284.257 256.704 288.33 248.401 282.723 239.213L228.258 150.006C222.652 140.828 209.495 134.25 198.875 135.312L70.9172 148.123L131.67 247.644L115.38 249.238C101.194 250.659 84.1404 261.946 77.4786 274.331C74.269 280.294 74.0432 285.458 76.2386 289.053L82.4019 299.138C80.2052 295.536 80.431 290.371 83.6405 284.409C90.3037 272.032 107.356 260.736 121.542 259.316L155.55 255.911L178.323 267.301L273.635 257.759V257.768Z" fill="url(#paint6_linear_0_629)"/>
<path d="M197.557 253.675C194.163 254.016 189.956 251.942 188.198 249.069L174.668 226.915C172.91 224.044 174.252 221.414 177.647 221.074L246.912 214.138C250.307 213.799 254.513 215.873 256.272 218.745L269.801 240.899C271.559 243.771 270.217 246.401 266.823 246.74L197.557 253.675Z" fill="#1B1B1C"/>
<path d="M124.483 142.77L97.7916 192.148L117.158 223.878L163.089 138.906L124.483 142.77ZM111.896 144.031L91.4756 181.811L95.3782 188.212L119.688 143.251L111.896 144.031Z" fill="#F4F4F7"/>
<path d="M273.635 257.768C284.257 256.704 288.33 248.401 282.723 239.213L228.258 150.006C222.652 140.828 209.495 134.25 198.875 135.312L70.9172 148.123L131.67 247.643L115.38 249.238C101.194 250.659 84.1404 261.946 77.4786 274.331C74.269 280.294 74.0432 285.458 76.2386 289.053L82.4019 299.138C80.2052 295.536 80.431 290.371 83.6405 284.409C90.3037 272.032 107.356 260.736 121.542 259.316L155.55 255.911L178.323 267.301L273.635 257.759V257.768Z" stroke="#0500FF" stroke-width="0.903213" stroke-linecap="round" stroke-linejoin="round"/>
<path d="M210.123 236.912L205.567 235.577L208.069 233.544L206.188 232.208L203.687 234.241L201.642 230.882L199.631 231.083L201.686 234.45L197.139 233.115L197.007 234.651L201.562 235.977L199.063 238.019L200.942 239.355L203.443 237.314L205.488 240.681L207.5 240.48L205.445 237.113L209.993 238.449L210.123 236.912ZM228.797 235.042L224.25 233.706L226.743 231.674L224.862 230.339L222.369 232.37L220.316 229.011L218.313 229.211L220.359 232.58L215.811 231.245L215.681 232.781L220.236 234.107L217.735 236.15L219.616 237.485L222.117 235.444L224.171 238.811L226.174 238.61L224.119 235.243L228.676 236.578L228.797 235.042ZM247.481 233.171L242.925 231.836L245.418 229.804L243.546 228.467L241.044 230.501L238.991 227.141L236.989 227.342L239.043 230.709L234.487 229.374L234.365 230.91L238.911 232.238L236.42 234.278L238.3 235.613L240.792 233.573L242.846 236.941L244.849 236.741L242.803 233.372L247.351 234.707L247.481 233.171ZM334.483 43.7536C339.403 44.7808 343.177 49.691 342.912 54.7213L339.827 112.614C339.562 117.645 335.353 120.895 330.433 119.868L143.586 80.955C138.666 79.9277 134.89 75.0162 135.157 69.9859L138.242 12.0928C138.507 7.0625 142.716 3.8138 147.636 4.84101L334.474 43.7562L334.483 43.7536Z" fill="#48FF91"/>
<path d="M243.307 101.726L330.414 119.873C335.335 120.9 339.543 117.651 339.808 112.621L342.894 54.7264C343.159 49.6961 339.394 44.7819 334.465 43.7586L299.668 36.5107L243.298 101.73L243.307 101.726Z" fill="#F4F4F7"/>
<path d="M177.236 39.6944L176.93 45.299L181.826 43.473L183.909 48.036L179.011 49.8529L183.617 53.6459L181.099 57.2431L176.497 53.4579L176.201 59.0599L171.6 58.0941L171.896 52.4947L167.001 54.3194L164.908 49.7602L169.815 47.9408L165.209 44.1465L167.727 40.5493L172.333 44.3436L172.626 38.7324L177.236 39.6944ZM208.681 46.2466L208.385 51.8486L213.27 50.0265L215.364 54.5843L210.469 56.4116L215.062 60.1981L212.544 63.7966L207.951 60.0075L207.655 65.6095L203.045 64.6476L203.341 59.0469L198.445 60.8716L196.362 56.3098L201.27 54.4891L196.655 50.6987L199.182 47.0989L203.779 50.8958L204.083 45.2912L208.681 46.2466ZM280.103 86.8285L279.83 91.8406L255.478 86.7711L255.742 81.7629L280.103 86.8285ZM240.136 52.7949L239.83 58.3995L244.726 56.5722L246.809 61.1352L241.915 62.9612L246.517 66.7464L243.999 70.3436L239.397 66.5584L239.101 72.1604L234.504 71.2037L234.796 65.5939L229.9 67.4199L227.808 62.8607L232.715 61.04L228.109 57.247L230.627 53.6485L235.233 57.4428L235.528 51.8421L240.136 52.7949Z" fill="#1B1B1C"/>
<path d="M340.632 39.6747L153.798 0.767326C151.534 0.302667 149.423 0.726864 147.782 1.82194L141.63 5.89293C143.274 4.80568 145.383 4.37235 147.645 4.837L334.483 43.7535C339.403 44.7807 343.177 49.6909 342.912 54.7212L339.827 112.614C339.687 115.34 338.382 117.539 336.442 118.825L342.595 114.755C344.535 113.469 345.831 111.274 345.98 108.545L349.065 50.6516C349.33 45.6212 345.565 40.7071 340.636 39.6838L340.632 39.6747Z" fill="#48FF91"/>
<path d="M345.023 41.835L338.87 45.9046C340.084 46.9118 341.075 48.1598 341.782 49.5697L347.933 45.5C347.227 44.0904 346.236 42.8425 345.023 41.835ZM349.052 50.6452C349.082 49.8928 349.033 49.1394 348.903 48.3976L342.752 52.4673C342.889 53.206 342.947 53.9618 342.899 54.7149L339.813 112.609C339.674 115.335 338.369 117.533 336.429 118.819L342.582 114.749C344.521 113.463 345.818 111.267 345.965 108.54L349.052 50.6452Z" fill="#1B1B1C"/>
<path d="M340.632 39.6747L153.798 0.767326C151.534 0.302667 149.423 0.726864 147.782 1.82194L141.63 5.89293C143.274 4.80568 145.383 4.37235 147.645 4.837L334.483 43.7535C339.403 44.7807 343.177 49.6909 342.912 54.7212L339.827 112.614C339.687 115.34 338.382 117.539 336.442 118.825L342.595 114.755C344.535 113.469 345.831 111.274 345.98 108.545L349.065 50.6516C349.33 45.6212 345.565 40.7071 340.636 39.6838L340.632 39.6747Z" stroke="#0500FF" stroke-width="0.370683" stroke-miterlimit="10"/>
<path d="M334.483 43.7536C339.403 44.7808 343.177 49.691 342.912 54.7213L339.827 112.614C339.562 117.645 335.353 120.895 330.433 119.868L143.586 80.955C138.666 79.9278 134.89 75.0162 135.157 69.9859L138.242 12.0928C138.507 7.0625 142.716 3.8138 147.636 4.84101L334.474 43.7562L334.483 43.7536Z" stroke="#0500FF" stroke-width="0.370683" stroke-miterlimit="10"/>
<path d="M134.652 177.951L321.491 216.868C323.753 217.332 325.865 216.908 327.505 215.813L333.658 211.743C332.013 212.829 329.905 213.263 327.642 212.798L140.8 173.872C135.88 172.845 132.106 167.935 132.371 162.905L135.458 105.012C135.596 102.286 136.901 100.087 138.842 98.8013L132.689 102.871C130.75 104.157 129.452 106.353 129.305 109.081L126.219 166.974C125.954 172.005 129.72 176.919 134.648 177.942L134.652 177.951Z" fill="#48FF91"/>
<path d="M130.262 175.791L136.413 171.721C135.2 170.714 134.209 169.466 133.503 168.056L127.35 172.126C128.056 173.536 129.048 174.784 130.262 175.791ZM126.223 166.985C126.192 167.737 126.242 168.491 126.371 169.234L132.524 165.164C132.382 164.423 132.332 163.668 132.375 162.915L135.458 105.011C135.597 102.287 136.903 100.088 138.842 98.8025L132.689 102.872C130.75 104.158 129.454 106.353 129.305 109.081L126.219 166.975L126.223 166.985Z" fill="#1B1B1C"/>
<path d="M134.652 177.951L321.491 216.868C323.753 217.332 325.864 216.908 327.505 215.813L333.658 211.743C332.013 212.829 329.905 213.263 327.642 212.798L140.8 173.872C135.88 172.845 132.106 167.935 132.371 162.905L135.458 105.012C135.596 102.286 136.901 100.087 138.842 98.8013L132.689 102.871C130.75 104.157 129.452 106.353 129.305 109.081L126.219 166.974C125.954 172.005 129.72 176.919 134.648 177.942L134.652 177.951Z" stroke="#0500FF" stroke-width="0.370683" stroke-miterlimit="10"/>
<path d="M331.699 136.672L144.861 97.7556C142.597 97.291 140.487 97.7165 138.845 98.8115L132.693 102.881C134.338 101.794 136.446 101.361 138.708 101.825L325.546 140.742C330.467 141.769 334.242 146.679 333.977 151.71L330.89 209.603C330.752 212.328 329.445 214.527 327.506 215.813L333.658 211.743C335.598 210.458 336.894 208.262 337.043 205.533L340.128 147.64C340.393 142.61 336.628 137.695 331.699 136.672Z" fill="#48FF91"/>
<path d="M336.09 138.831L329.937 142.901C331.151 143.908 332.142 145.156 332.849 146.566L339.001 142.496C338.294 141.087 337.303 139.839 336.09 138.831ZM340.115 147.633C340.147 146.881 340.097 146.127 339.968 145.385L333.815 149.454C333.952 150.193 334.011 150.95 333.964 151.703L330.877 209.596C330.739 212.322 329.433 214.521 327.494 215.806L333.645 211.737C335.585 210.451 336.881 208.254 337.03 205.527L340.115 147.633Z" fill="#1B1B1C"/>
<path d="M331.699 136.672L144.861 97.7556C142.597 97.291 140.487 97.7165 138.845 98.8115L132.693 102.881C134.338 101.794 136.446 101.361 138.708 101.825L325.546 140.742C330.467 141.769 334.242 146.679 333.977 151.71L330.89 209.603C330.752 212.328 329.445 214.527 327.506 215.813L333.658 211.743C335.598 210.458 336.894 208.262 337.043 205.533L340.128 147.64C340.393 142.61 336.628 137.695 331.699 136.672Z" stroke="#0500FF" stroke-width="0.370683" stroke-miterlimit="10"/>
<path d="M325.546 140.742C330.467 141.769 334.242 146.679 333.977 151.71L330.89 209.603C330.625 214.633 326.417 217.883 321.496 216.856L134.652 177.953C129.732 176.925 125.957 172.015 126.222 166.983L129.318 109.086C129.583 104.056 133.792 100.807 138.712 101.835L325.55 140.751L325.546 140.742Z" stroke="#0500FF" stroke-width="0.370683" stroke-miterlimit="10"/>
<path d="M248.942 142.783C250.755 141.771 252.655 140.924 254.62 140.253C255.632 139.911 256.014 138.633 255.471 137.397C254.928 136.161 253.668 135.44 252.667 135.789C250.529 136.515 248.461 137.436 246.491 138.54C235.905 144.457 228.835 155.21 226.58 168.813C225.05 178.03 225.841 187.897 228.789 197.55L233.183 198.467C230.097 189.13 229.195 179.531 230.675 170.581C232.744 158.094 239.243 148.217 248.951 142.781L248.942 142.783ZM294.332 192.856L288.939 183.557C283.919 174.893 274.287 170.95 267.472 174.77C260.654 178.582 259.188 188.739 264.205 197.393L269.072 205.79L269.172 205.972L274.057 206.991C273.548 205.96 272.998 204.934 272.411 203.92L267.543 195.523C263.879 189.205 264.952 181.8 269.923 179.015C274.895 176.228 281.927 179.112 285.593 185.43L290.984 194.729C294.173 200.221 296.744 206.05 298.649 212.109L302.994 213.009C300.919 205.967 298.01 199.198 294.328 192.846L294.332 192.856Z" fill="#1B1B1C"/>
<path d="M301.461 188.86L296.068 179.563C288.153 165.912 272.97 159.695 262.217 165.703C251.467 171.72 249.152 187.718 257.067 201.369L258.427 203.724L263.46 204.772L260.406 199.5C253.851 188.181 255.763 174.931 264.668 169.947C273.574 164.964 286.155 170.111 292.718 181.426L298.111 190.724C302.365 198.038 305.658 205.871 307.909 214.027L312.197 214.918C309.893 206.007 306.296 197.197 301.457 188.851L301.461 188.86Z" fill="#1B1B1C"/>
<path d="M247.771 180.841C248.351 173.448 251.369 167.131 256.275 163.061C257.091 162.385 257.107 160.949 256.304 159.867C255.499 158.777 254.185 158.45 253.369 159.126C247.76 163.778 244.299 171.001 243.634 179.451C243.068 186.683 244.607 194.385 247.972 201.547L252.788 202.549C249.009 195.639 247.22 187.975 247.78 180.837L247.771 180.841ZM315.77 204.752C314.706 204.957 314.188 206.149 314.612 207.407C315.54 210.217 316.354 213.063 317.05 215.938L321.342 216.838C320.54 213.409 319.581 210.02 318.469 206.679C318.041 205.412 316.838 204.557 315.77 204.752ZM303.202 175.577C297.658 166.012 289.12 158.649 279.78 155.38C278.639 154.979 277.62 155.645 277.51 156.856C277.4 158.067 278.237 159.384 279.378 159.785C287.543 162.646 295.009 169.086 299.854 177.45L305.247 186.747C307.292 190.275 309.148 193.909 310.808 197.634C311.36 198.867 312.615 199.579 313.626 199.227C313.711 199.2 313.792 199.164 313.87 199.119C314.692 198.658 314.962 197.484 314.46 196.357C312.712 192.428 310.757 188.594 308.604 184.871L303.211 175.573L303.202 175.577ZM270.273 153.538C267.023 153.427 263.886 153.876 260.976 154.877C259.963 155.219 259.584 156.506 260.125 157.733C260.668 158.969 261.927 159.69 262.937 159.339C265.484 158.468 268.221 158.079 271.062 158.17C271.374 158.183 271.663 158.11 271.898 157.975C272.519 157.627 272.86 156.842 272.708 155.922C272.497 154.64 271.403 153.57 270.282 153.536L270.273 153.538Z" fill="#1B1B1C"/>
<path d="M310.333 171.582C296.632 147.944 270.337 137.184 251.719 147.596C251.089 147.946 250.479 148.319 249.875 148.712C248.991 149.287 248.867 150.69 249.597 151.829C250.325 152.968 251.637 153.431 252.518 152.847C253.053 152.498 253.612 152.154 254.18 151.836C270.954 142.458 294.645 152.15 306.985 173.455L312.378 182.752C313.057 183.929 314.362 184.458 315.278 183.942C316.205 183.424 316.396 182.06 315.716 180.883L310.324 171.584L310.333 171.582ZM243.499 154.314C240.642 157.619 238.437 161.549 236.923 166.001C236.559 167.096 237.129 168.518 238.222 169.185C238.892 169.598 239.599 169.625 240.12 169.324C240.454 169.142 240.708 168.834 240.856 168.408C242.217 164.395 244.205 160.852 246.775 157.878C247.477 157.068 247.313 155.602 246.41 154.619C245.506 153.636 244.197 153.493 243.496 154.305L243.499 154.314ZM239.103 176.367C239.244 175.156 238.437 173.836 237.297 173.405C236.154 172.974 235.125 173.613 234.981 174.816C234.053 182.841 235.202 191.336 238.202 199.51L242.709 200.447C239.472 192.523 238.195 184.189 239.099 176.358L239.103 176.367ZM286.338 138.524C285.21 138.017 284.117 138.543 283.901 139.72C283.683 140.896 284.411 142.264 285.54 142.772C292.01 145.732 298.015 149.969 303.379 155.378C304.125 156.137 305.103 156.326 305.804 155.94C305.98 155.846 306.139 155.706 306.276 155.533C306.935 154.664 306.708 153.2 305.768 152.262C299.93 146.369 293.39 141.743 286.342 138.534L286.338 138.524ZM276.851 135.174C271.556 133.845 266.325 133.428 261.298 133.931C260.21 134.042 259.601 135.162 259.938 136.44C260.285 137.717 261.447 138.658 262.54 138.557C267.15 138.099 271.958 138.481 276.823 139.704C277.287 139.818 277.718 139.757 278.07 139.569C278.577 139.283 278.912 138.707 278.923 137.967C278.934 136.719 277.999 135.478 276.858 135.192L276.851 135.174ZM287.198 196.84L281.806 187.543C279.685 183.876 275.603 182.206 272.71 183.822C269.816 185.439 269.204 189.734 271.325 193.401L276.193 201.799C277.37 203.832 278.428 205.932 279.361 208.088L283.924 209.035C282.694 205.893 281.229 202.848 279.54 199.926L274.673 191.528C273.907 190.206 274.13 188.644 275.17 188.064C276.22 187.481 277.689 188.084 278.455 189.407L283.847 198.704C285.964 202.353 287.758 206.179 289.209 210.139L293.649 211.069C291.974 206.124 289.81 201.359 287.189 196.844L287.198 196.84Z" fill="#1B1B1C"/>
<defs>
<linearGradient id="paint0_linear_0_629" x1="18.9681" y1="75.4716" x2="30.5389" y2="191.037" gradientUnits="userSpaceOnUse">
<stop stop-color="#FFAEFE"/>
<stop offset="1" stop-color="#FFF465"/>
</linearGradient>
<linearGradient id="paint1_linear_0_629" x1="147.948" y1="62.5605" x2="159.517" y2="178.126" gradientUnits="userSpaceOnUse">
<stop stop-color="#FFAEFE"/>
<stop offset="1" stop-color="#FFF465"/>
</linearGradient>
<linearGradient id="paint2_linear_0_629" x1="92.1677" y1="68.1427" x2="103.738" y2="183.708" gradientUnits="userSpaceOnUse">
<stop stop-color="#FFAEFE"/>
<stop offset="1" stop-color="#FFF465"/>
</linearGradient>
<linearGradient id="paint3_linear_0_629" x1="263.744" y1="275.665" x2="268.038" y2="278.121" gradientUnits="userSpaceOnUse">
<stop stop-color="#FFAEFE"/>
<stop offset="1" stop-color="#FFF465"/>
</linearGradient>
<linearGradient id="paint4_linear_0_629" x1="217.249" y1="277.813" x2="190.639" y2="336.826" gradientUnits="userSpaceOnUse">
<stop stop-color="#FFAEFE"/>
<stop offset="1" stop-color="#FFF465"/>
</linearGradient>
<linearGradient id="paint5_linear_0_629" x1="133.635" y1="240.093" x2="107.015" y2="299.099" gradientUnits="userSpaceOnUse">
<stop stop-color="#FFAEFE"/>
<stop offset="1" stop-color="#FFF465"/>
</linearGradient>
<linearGradient id="paint6_linear_0_629" x1="171.991" y1="228.743" x2="229.415" y2="253.993" gradientUnits="userSpaceOnUse">
<stop stop-color="#FFAEFE"/>
<stop offset="1" stop-color="#FFF465"/>
</linearGradient>
</defs>
</svg>
