<svg width="440" height="324" viewBox="0 0 440 324" fill="none" xmlns="http://www.w3.org/2000/svg">
<mask id="mask0_0_481" style="mask-type:luminance" maskUnits="userSpaceOnUse" x="0" y="0" width="440" height="324">
<path d="M0.610817 0.950928H439.394V323.679H0.610817V0.950928Z" fill="white"/>
</mask>
<g mask="url(#mask0_0_481)">
<path d="M345.931 21.8467L344.993 24.2889C344.056 26.7166 342.197 28.8016 339.583 30.0281C333.967 32.6532 326.991 30.3381 323.996 24.8544C322.4 21.9339 322.256 18.7034 323.328 15.9258L324.266 13.4824C323.201 16.26 323.336 19.4917 324.933 22.4121C327.929 27.8947 334.903 30.2025 340.521 27.5835C343.142 26.3582 345.002 24.2816 345.931 21.8467Z" fill="#48FF8E" stroke="#0500FF" stroke-width="0.764319" stroke-linecap="round" stroke-linejoin="round"/>
<path d="M345.933 21.8372C348.095 16.219 344.997 9.79327 339.016 7.48425C333.033 5.17645 326.432 7.8596 324.272 13.4778C322.111 19.0959 325.207 25.5229 331.19 27.8307C337.171 30.1397 343.772 27.4554 345.933 21.8372Z" fill="#1B1B1C" stroke="#0500FF" stroke-width="0.764319" stroke-linecap="round" stroke-linejoin="round"/>
<path d="M329.802 41.4754L330.74 39.032C329.913 41.1727 330.017 43.6718 331.24 45.907L330.302 48.3504C329.079 46.1067 328.976 43.6161 329.802 41.4754Z" fill="#48FF8E" stroke="#0500FF" stroke-width="0.764319" stroke-linecap="round" stroke-linejoin="round"/>
<path d="M349.994 27.5644C354.3 25.5508 359.702 27.3501 361.998 31.5516L366.066 38.992L335.32 53.3559L331.253 45.9154C328.957 41.7139 330.601 36.6285 334.907 34.6149L349.994 27.5644Z" fill="#1B1B1C" stroke="#0500FF" stroke-width="0.764319" stroke-linecap="round" stroke-linejoin="round"/>
<path d="M366.064 38.9814L365.119 41.4333L334.373 55.7887L335.318 53.3453L366.064 38.9814ZM335.316 53.3453L334.371 55.7875L330.311 48.3471L331.248 45.9049L335.316 53.3453Z" fill="#48FF8E" stroke="#0500FF" stroke-width="0.764319" stroke-linecap="round" stroke-linejoin="round"/>
<path d="M428.97 200.173L425.108 199.25C426.611 192.955 413.772 179.849 373.255 161.944C336.432 145.67 286.112 129.532 231.581 116.504C177.05 103.477 124.878 95.1457 84.6787 93.0292C40.4514 90.6972 23.1004 96.5938 21.5991 102.889L17.7383 101.966C20.9319 88.5407 56.0231 87.5309 84.8854 89.0505C125.315 91.1755 177.741 99.5543 232.502 112.63C287.264 125.704 337.823 141.922 374.86 158.299C401.307 169.988 432.171 186.74 428.97 200.173Z" fill="#48FF91"/>
<path d="M17.7383 101.966C20.9319 88.5407 56.0231 87.5309 84.8854 89.0505C125.315 91.1755 177.741 99.5543 232.502 112.63C287.264 125.704 337.823 141.922 374.86 158.299C401.307 169.988 432.171 186.74 428.97 200.173" stroke="#0500FF" stroke-width="0.611455" stroke-miterlimit="10"/>
<path d="M425.126 199.251C426.628 192.956 413.79 179.851 373.273 161.945C336.449 145.672 286.13 129.533 231.599 116.506C177.068 103.48 124.895 95.1471 84.6968 93.0306C40.4696 90.6998 23.1186 96.5964 21.6173 102.89" stroke="#0500FF" stroke-width="0.611455" stroke-miterlimit="10"/>
<path d="M23.253 219.391C14.4578 193.56 27.248 162.181 59.2568 131.043C90.8909 100.27 137.573 73.3334 190.698 55.1894C244.046 36.9739 297.583 29.7563 341.47 34.8816C385.553 40.03 414.653 57.0274 423.402 82.7401L419.643 84.0212C411.413 59.8377 383.487 43.7944 341.008 38.8289C297.694 33.7677 244.777 40.9212 191.977 58.9526C139.392 76.9065 93.2432 103.525 62.0201 133.892C31.1717 163.901 18.7393 193.798 27.0099 218.101L23.2517 219.383L23.253 219.391Z" fill="#48FF91"/>
<path d="M419.63 84.0268C411.399 59.8433 383.473 43.8001 340.994 38.8346C297.681 33.7734 244.762 40.928 191.963 58.9594C139.379 76.9133 93.2294 103.532 62.0063 133.899C31.158 163.908 18.7256 193.805 26.9961 218.107" stroke="#0500FF" stroke-width="0.611455" stroke-miterlimit="10"/>
<path d="M23.253 219.391C14.4578 193.56 27.248 162.181 59.2568 131.043C90.8909 100.27 137.573 73.3334 190.698 55.1894C244.046 36.9739 297.583 29.7563 341.47 34.8816C385.553 40.03 414.653 57.0274 423.401 82.7401" stroke="#0500FF" stroke-width="0.611455" stroke-miterlimit="10"/>
<path d="M223.395 323.267C312.143 323.267 384.088 251.201 384.088 162.304C384.088 73.4073 312.143 1.34229 223.395 1.34229C134.645 1.34229 62.7004 73.4073 62.7004 162.304C62.7004 251.201 134.645 323.267 223.395 323.267Z" fill="#2D9FFF"/>
<path d="M223.395 323.267C312.143 323.267 384.088 251.201 384.088 162.304C384.088 73.4073 312.143 1.34229 223.395 1.34229C134.645 1.34229 62.7004 73.4073 62.7004 162.304C62.7004 251.201 134.645 323.267 223.395 323.267Z" fill="url(#paint0_radial_0_481)"/>
<path d="M265.829 7.04842L261.754 5.98291C259.355 5.40899 256.137 4.73335 253.722 4.21513C251.616 3.82646 248.805 3.3724 246.699 3.02248C245.852 2.89361 244.997 2.82443 244.141 2.81543C247.731 3.34092 251.204 4.00929 254.492 4.81327C258.917 5.96596 259.649 6.22144 263.708 7.65383C269.458 8.38164 275.101 9.79205 280.518 11.8553C275.18 9.84176 274.473 9.62745 265.829 7.04116V7.04842Z" stroke="#0500FF" stroke-width="0.764319" stroke-linecap="round" stroke-linejoin="round"/>
<path d="M233.695 1.67381C239.922 2.16661 240.042 2.17509 243.227 2.57345L246.692 3.04203C245.845 2.91362 244.99 2.84484 244.134 2.83619C240.543 2.3107 236.833 1.92808 233.059 1.68955C233.273 1.67381 233.48 1.66534 233.686 1.68955M209.265 1.95593C211.133 1.82032 213.619 1.62901 215.494 1.52609C217.313 1.46192 219.744 1.37474 221.572 1.34326C221.603 1.34326 221.635 1.35053 221.659 1.37474C217.845 1.4147 214.033 1.6048 210.299 1.93172C209.954 1.9198 209.609 1.92788 209.265 1.95593Z" stroke="#0500FF" stroke-width="0.764319" stroke-linecap="round" stroke-linejoin="round"/>
<path d="M195.865 3.71025C200.393 2.99951 203.797 2.51882 206.074 2.26939L209.259 1.95942C209.601 1.92794 209.942 1.91947 210.293 1.93521C206.559 2.26212 202.896 2.73192 199.369 3.35185C198.184 3.39181 197.017 3.51168 195.873 3.71873" stroke="#0500FF" stroke-width="0.764319" stroke-linecap="round" stroke-linejoin="round"/>
<path d="M179.627 7.42131L184.172 6.20445C189.294 5.01059 193.181 4.18118 195.834 3.71381H195.85C197.005 3.50817 198.173 3.38597 199.346 3.34814C195.819 3.96081 192.426 4.71636 189.24 5.62447C187.681 6.06375 186.137 6.55194 184.608 7.08834C183.123 7.61383 181.741 8.15385 180.445 8.7193C173.855 9.6656 167.402 11.4052 161.228 13.9004C162.188 13.4836 163.155 13.0827 164.128 12.698L170.166 10.4302C174.574 8.98204 175.877 8.53647 179.62 7.42252L179.627 7.42131ZM304.153 35.0278C296.149 30.4483 287.785 26.5308 279.144 23.3144C278.873 24.7068 278.215 26.0993 277.165 27.453C276.116 28.8054 274.686 30.1349 272.867 31.4002C280.643 35.9437 288.063 41.0721 295.064 46.7412C302.132 52.4552 308.778 58.6735 314.95 65.3477C318.31 62.9987 320.964 60.5565 322.894 58.0501C324.824 55.5438 326.048 52.9805 326.548 50.3954C319.508 44.6757 312.016 39.539 304.144 35.0363L304.153 35.0278Z" stroke="#0500FF" stroke-width="0.764319" stroke-linecap="round" stroke-linejoin="round"/>
<path d="M295.047 46.7316C288.042 41.0669 280.622 35.938 272.85 31.3882C271.031 32.6547 268.831 33.8631 266.24 35.0012C264.946 35.5667 263.547 36.1152 262.061 36.6407C260.539 37.177 259 37.6628 257.446 38.0973C262.777 43.6597 267.893 49.8034 272.739 56.4398C277.585 63.0763 282.17 70.2068 286.443 77.7344C289.382 76.8989 292.235 76.0005 294.976 75.0367C297.589 74.1218 300.167 73.1105 302.706 72.0048C307.488 69.9125 311.564 67.6689 314.924 65.3284C308.749 58.6589 302.103 52.4416 295.04 46.7243L295.047 46.7316Z" stroke="#0500FF" stroke-width="0.764319" stroke-linecap="round" stroke-linejoin="round"/>
<path d="M272.771 56.4473C267.925 49.8121 262.808 43.6672 257.478 38.1047C254.15 39.0362 250.777 39.7959 247.372 40.3811C243.845 40.9937 240.182 41.4708 236.448 41.7977C238.498 47.9329 240.46 54.6335 242.319 61.7954C244.269 69.3405 246.022 76.9348 247.579 84.5708C254.491 83.9654 261.267 83.09 267.79 81.953C274.313 80.8149 280.58 79.414 286.484 77.743C282.21 70.2142 277.626 63.085 272.779 56.4473H272.771Z" stroke="#0500FF" stroke-width="0.764319" stroke-linecap="round" stroke-linejoin="round"/>
<path d="M242.324 61.7966C240.465 54.6346 238.503 47.934 236.453 41.7988C232.719 42.1257 228.906 42.3158 225.093 42.3558C221.288 42.3975 217.482 42.2994 213.684 42.0616C212.175 48.2452 210.722 54.9773 209.347 62.1792C207.903 69.7819 206.608 77.4123 205.462 85.0659C212.43 85.5115 219.508 85.6943 226.57 85.6144C233.585 85.5395 240.595 85.1945 247.584 84.5804C246.027 76.9444 244.274 69.3501 242.324 61.8051V61.7966Z" stroke="#0500FF" stroke-width="0.764319" stroke-linecap="round" stroke-linejoin="round"/>
<path d="M202.601 40.9114C199.121 40.4083 195.667 39.7416 192.249 38.9136C187.388 44.6032 182.731 50.874 178.314 57.6218C173.898 64.3781 169.719 71.6115 165.826 79.2433C171.903 80.7398 178.33 81.9651 184.972 82.9362C191.768 83.9209 198.6 84.6294 205.453 85.06C206.599 77.4069 207.894 69.7769 209.338 62.1745C210.712 54.9726 212.167 48.232 213.675 42.0568C209.97 41.8254 206.276 41.4441 202.601 40.9114Z" stroke="#0500FF" stroke-width="0.764319" stroke-linecap="round" stroke-linejoin="round"/>
<path d="M183.017 36.0681C180.164 34.9783 177.702 33.8075 175.636 32.5664C168.176 37.2619 161.026 42.5859 154.249 48.4341C147.424 54.3354 141.021 60.7094 135.087 67.5092C138.908 69.7928 143.461 71.965 148.736 73.9785C154.011 75.9921 159.747 77.743 165.833 79.2383C169.725 71.6078 173.904 64.3744 178.321 57.6181C182.738 50.8618 187.401 44.5982 192.256 38.9086C188.967 38.1047 185.869 37.1578 183.017 36.0681Z" stroke="#0500FF" stroke-width="0.764319" stroke-linecap="round" stroke-linejoin="round"/>
<path d="M170.593 28.6987C169.306 27.362 168.416 25.9853 167.909 24.6001C159.313 28.0267 151.005 32.138 143.066 36.8947C135.236 41.586 127.793 46.8949 120.806 52.7708C121.743 55.3414 123.395 57.8877 125.77 60.3541C128.146 62.829 131.244 65.2252 135.073 67.5161C141.005 60.7149 147.409 54.3412 154.236 48.4422C161.013 42.5927 168.163 37.2688 175.622 32.5733C173.556 31.3407 171.881 30.0427 170.593 28.706V28.6987Z" stroke="#0500FF" stroke-width="0.764319" stroke-linecap="round" stroke-linejoin="round"/>
<path d="M167.567 20.4098C167.836 19.0174 168.496 17.6249 169.544 16.2725C161.264 18.3852 153.193 21.251 145.433 24.8341C137.862 28.3329 130.631 32.5261 123.831 37.3599C121.894 39.8663 120.669 42.4296 120.169 45.0159C119.668 47.6022 119.875 50.1957 120.813 52.7663C127.797 46.8867 135.241 41.5777 143.073 36.8901C151.013 32.1335 159.32 28.0221 167.916 24.5956C167.415 23.2572 167.294 21.8057 167.567 20.4025V20.4098Z" stroke="#0500FF" stroke-width="0.764319" stroke-linecap="round" stroke-linejoin="round"/>
<path d="M161.253 13.893C160.195 14.321 159.146 14.772 158.108 15.2455C153.58 17.3947 147.629 20.4423 143.219 22.83C141.44 23.8713 139.39 25.1693 137.365 26.4661C135.709 27.4738 134.08 28.5247 132.479 29.6178L132.28 29.745C132.121 29.8564 131.962 29.9605 131.803 30.0719C128.434 32.4112 125.79 34.8619 123.851 37.3682C130.648 32.5319 137.879 28.339 145.452 24.8436C153.212 21.2599 161.283 18.3938 169.563 16.2808C170.611 14.9283 172.041 13.6073 173.862 12.3335C175.681 11.061 177.881 9.85862 180.472 8.72046C173.881 9.66678 167.428 11.4064 161.253 13.9015V13.893Z" stroke="#0500FF" stroke-width="0.764319" stroke-linecap="round" stroke-linejoin="round"/>
<path d="M158.095 15.2446L164.141 12.6982C163.166 13.0792 162.2 13.4796 161.241 13.8994C160.182 14.3272 159.133 14.7786 158.095 15.2531M130.794 30.7793L132.271 29.7452C132.113 29.8566 131.955 29.9596 131.795 30.0722C131.461 30.3022 131.119 30.5407 130.786 30.7793" stroke="#0500FF" stroke-width="0.764319" stroke-linecap="round" stroke-linejoin="round"/>
<path d="M105.192 53.4806C105.963 52.4937 106.785 51.548 107.655 50.6473C110.984 47.4253 115.408 43.104 118.889 40.0479C122.424 37.2146 127.135 33.4356 130.798 30.7779C131.131 30.5382 131.465 30.3081 131.807 30.0696C128.438 32.4089 125.792 34.8595 123.854 37.3659C117.144 42.1404 110.898 47.5387 105.2 53.4891M345.908 68.9439C339.976 62.2363 333.504 56.0293 326.555 50.3858C326.055 52.9648 324.84 55.5353 322.901 58.0417C320.971 60.5481 318.317 62.9915 314.957 65.3393C321.173 72.0513 326.912 79.1908 332.133 86.7052C337.367 94.2385 342.066 102.131 346.194 110.325C350.698 107.181 354.258 103.902 356.848 100.536C359.438 97.1775 361.075 93.7316 361.749 90.2711C357.081 82.7256 351.782 75.5909 345.908 68.9439Z" stroke="#0500FF" stroke-width="0.764319" stroke-linecap="round" stroke-linejoin="round"/>
<path d="M332.146 86.7016C326.925 79.1867 321.186 72.0469 314.97 65.3345C311.61 67.6822 307.534 69.9186 302.751 72.0109C300.213 73.1166 297.634 74.1279 295.022 75.0428C292.205 76.0282 289.36 76.9278 286.489 77.7404C290.84 85.4273 294.792 93.3348 298.326 101.431C301.974 109.776 305.208 118.296 308.019 126.96C311.966 125.846 315.789 124.636 319.459 123.338C322.962 122.115 326.417 120.758 329.818 119.272C336.238 116.463 341.695 113.463 346.208 110.32C342.082 102.125 337.383 94.2326 332.146 86.7016Z" stroke="#0500FF" stroke-width="0.764319" stroke-linecap="round" stroke-linejoin="round"/>
<path d="M298.312 101.438C294.777 93.3419 290.826 85.4344 286.474 77.7476C280.579 79.4185 274.303 80.8194 267.781 81.9575C261.085 83.1167 254.341 83.9901 247.57 84.5753C249.264 92.8656 250.779 101.191 252.114 109.547C253.527 118.379 254.767 127.238 255.833 136.118C265.096 135.299 274.184 134.129 282.931 132.608C291.678 131.08 300.083 129.202 307.996 126.959C305.186 118.294 301.952 109.774 298.303 101.43L298.312 101.438Z" stroke="#0500FF" stroke-width="0.764319" stroke-linecap="round" stroke-linejoin="round"/>
<path d="M252.14 109.549C250.803 101.193 249.288 92.8673 247.596 84.5769C240.684 85.1823 233.637 85.5322 226.582 85.6121C219.541 85.6926 212.5 85.5092 205.473 85.0624C204.221 93.3967 203.103 101.751 202.121 110.121C201.079 118.991 200.165 127.876 199.379 136.773C208.8 137.372 218.24 137.616 227.678 137.504C237.086 137.397 246.485 136.935 255.858 136.12C254.793 127.239 253.553 118.38 252.14 109.549Z" stroke="#0500FF" stroke-width="0.764319" stroke-linecap="round" stroke-linejoin="round"/>
<path d="M184.98 82.9398C178.339 81.9687 171.912 80.7361 165.834 79.2468C161.861 87.0595 158.263 95.0584 155.054 103.216C151.726 111.665 148.781 120.26 146.228 128.975C154.379 130.973 162.99 132.628 171.904 133.925C181.017 135.244 190.179 136.194 199.369 136.774C200.154 127.878 201.068 118.993 202.109 110.124C203.091 101.753 204.209 93.3991 205.462 85.0648C198.609 84.6332 191.776 83.9243 184.98 82.9398Z" stroke="#0500FF" stroke-width="0.764319" stroke-linecap="round" stroke-linejoin="round"/>
<path d="M148.724 73.9918C143.449 71.9782 138.896 69.806 135.074 67.5225C123.028 81.3326 112.905 96.7138 104.981 113.246C110.105 116.31 116.206 119.223 123.285 121.921C130.364 124.618 138.054 126.973 146.205 128.971C148.761 120.257 151.706 111.661 155.031 103.211C158.24 95.0537 161.838 87.0551 165.813 79.2431C159.735 77.7465 153.991 75.9957 148.715 73.9821L148.724 73.9918Z" stroke="#0500FF" stroke-width="0.764319" stroke-linecap="round" stroke-linejoin="round"/>
<path d="M125.775 60.3582C123.4 57.8845 121.748 55.3455 120.811 52.7761C113.906 58.5835 107.479 64.9382 101.592 71.7786C95.7579 78.5604 90.4964 85.8163 85.8624 93.4715C87.1183 96.9174 89.334 100.331 92.5204 103.642C95.7056 106.96 99.8614 110.175 104.993 113.239C112.916 96.7056 123.04 81.3236 135.087 67.5129C131.266 65.2293 128.168 62.8271 125.784 60.351L125.775 60.3594V60.3582Z" stroke="#0500FF" stroke-width="0.764319" stroke-linecap="round" stroke-linejoin="round"/>
<path d="M120.174 45.0173C120.673 42.4383 121.896 39.8677 123.835 37.3613C117.125 42.1358 110.879 47.5342 105.181 53.4845C105.95 52.4957 106.772 51.5498 107.645 50.6512C105.968 52.4093 104.03 54.6142 102.187 56.7307C101.438 57.5659 100.701 58.4124 99.9774 59.2697C99.7078 59.5724 99.4455 59.8751 99.1916 60.1609L98.4603 61.0835C97.642 62.0861 96.8321 63.0971 96.0452 64.1227C93.6542 67.2587 90.7229 71.6357 88.4588 74.8662C86.694 77.5723 85.5504 80.3173 85.0101 83.0791C84.3356 86.5408 84.6209 90.0255 85.8768 93.4715C90.5116 85.8169 95.773 78.561 101.607 71.7786C107.489 64.9346 113.916 58.5796 120.824 52.7762C119.887 50.2056 119.681 47.6036 120.181 45.0245L120.174 45.0173ZM373.626 113.931C370.371 105.709 366.396 97.7914 361.748 90.2713C361.073 93.7342 359.444 97.179 356.847 100.538C354.256 103.895 350.706 107.182 346.194 110.326C350.32 118.516 353.843 126.998 356.735 135.702C359.627 144.396 361.842 153.301 363.361 162.338C368.502 158.756 372.545 155.016 375.501 151.188C378.456 147.361 380.314 143.438 381.085 139.491C379.393 130.76 376.896 122.206 373.626 113.938V113.931Z" stroke="#0500FF" stroke-width="0.764319" stroke-linecap="round" stroke-linejoin="round"/>
<path d="M356.744 135.702C353.853 126.996 350.329 118.514 346.202 110.323C341.697 113.468 336.231 116.468 329.812 119.277C326.409 120.757 322.953 122.113 319.452 123.343C315.677 124.667 311.862 125.875 308.013 126.964C310.876 135.775 313.301 144.722 315.281 153.773C317.274 162.864 318.799 172.052 319.849 181.3C324.238 180.06 328.589 178.685 332.894 177.178C336.887 175.778 340.827 174.233 344.708 172.546C352.025 169.347 358.245 165.925 363.385 162.345C361.866 153.308 359.651 144.403 356.759 135.709L356.744 135.702Z" stroke="#0500FF" stroke-width="0.764319" stroke-linecap="round" stroke-linejoin="round"/>
<path d="M315.27 153.77C313.291 144.719 310.865 135.771 308.001 126.96C300.097 129.196 291.683 131.082 282.937 132.61C274.189 134.138 265.101 135.308 255.838 136.119C256.94 145.297 257.869 154.495 258.625 163.709C259.394 173.036 259.979 182.378 260.382 191.728C270.939 190.797 281.3 189.46 291.27 187.726C301.24 185.983 310.821 183.842 319.83 181.288C318.78 172.04 317.255 162.853 315.262 153.762L315.27 153.77Z" stroke="#0500FF" stroke-width="0.764319" stroke-linecap="round" stroke-linejoin="round"/>
<path d="M258.61 163.714C257.853 154.501 256.924 145.303 255.821 136.125C246.449 136.948 237.049 137.41 227.642 137.51C218.203 137.617 208.764 137.373 199.344 136.777C198.531 145.983 197.844 155.198 197.285 164.423C196.721 173.769 196.292 183.123 195.999 192.482C206.652 193.166 217.465 193.445 228.253 193.317C238.976 193.196 249.69 192.668 260.373 191.734C259.971 182.383 259.386 173.042 258.617 163.714H258.61Z" stroke="#0500FF" stroke-width="0.764319" stroke-linecap="round" stroke-linejoin="round"/>
<path d="M171.895 133.93C162.981 132.632 154.377 130.977 146.217 128.98C143.609 137.868 141.403 146.869 139.608 155.957C137.794 165.099 136.41 174.321 135.462 183.594C144.749 185.877 154.568 187.755 164.72 189.236C174.874 190.716 185.369 191.798 196.022 192.482C196.316 183.124 196.745 173.742 197.309 164.423C197.864 155.198 198.55 145.982 199.367 136.778C190.024 136.182 180.817 135.234 171.903 133.93H171.895Z" stroke="#0500FF" stroke-width="0.764319" stroke-linecap="round" stroke-linejoin="round"/>
<path d="M123.306 121.921C116.227 119.223 110.134 116.31 105.002 113.246C101.025 121.543 97.6326 130.108 94.8484 138.878C92.0698 147.638 89.9406 156.591 88.4781 165.665C94.325 169.158 101.276 172.476 109.339 175.556C117.403 178.635 126.174 181.31 135.461 183.593C136.414 174.321 137.798 165.098 139.609 155.955C141.41 146.869 143.616 137.868 146.218 128.978C138.068 126.982 130.369 124.626 123.299 121.928L123.306 121.921Z" stroke="#0500FF" stroke-width="0.764319" stroke-linecap="round" stroke-linejoin="round"/>
<path d="M92.537 103.636C89.3518 100.318 87.1349 96.9124 85.8802 93.4664C81.2612 101.086 77.316 109.096 74.0896 117.404C70.8502 125.735 68.3721 134.343 66.6858 143.123C68.1158 147.054 70.6421 150.938 74.2734 154.718C77.9034 158.498 82.6382 162.165 88.4851 165.66C89.948 156.586 92.0777 147.633 94.8567 138.873C97.6373 130.101 101.03 121.536 105.011 113.241C99.8852 110.178 95.7234 106.955 92.537 103.645V103.636ZM87.6148 76.2414L88.4488 74.8647C88.1551 75.3176 87.8771 75.7789 87.6148 76.2414Z" stroke="#0500FF" stroke-width="0.764319" stroke-linecap="round" stroke-linejoin="round"/>
<path d="M85.0063 83.0753C85.4511 80.7832 86.3323 78.4984 87.6197 76.239L83.6234 82.8355C80.6377 88.4464 77.0053 96.1181 74.4004 101.918L72.1919 107.696C71.5921 109.58 71.0146 111.472 70.4597 113.37C68.4708 119.224 66.8784 125.206 65.6934 131.275V131.282C64.9222 135.23 65.2486 139.201 66.6786 143.133C68.3602 134.352 70.8384 125.742 74.0825 117.413C77.3166 109.108 81.2611 101.099 85.8718 93.4749C84.6171 90.0301 84.3306 86.5442 85.0063 83.0825V83.0753Z" stroke="#0500FF" stroke-width="0.764319" stroke-linecap="round" stroke-linejoin="round"/>
<path d="M65.6804 131.345L65.6974 131.271V131.279C65.6974 131.303 65.6974 131.32 65.6889 131.345M381.092 139.48C380.329 143.427 378.462 147.35 375.507 151.179C372.551 155.006 368.5 158.746 363.368 162.327C364.877 171.359 365.672 180.519 365.672 189.718C365.672 198.918 364.893 207.775 363.384 216.225C368.524 212.644 372.567 208.904 375.523 205.077C378.47 201.257 380.329 197.358 381.1 193.426L381.163 193.108C382.849 184.341 383.695 175.433 383.689 166.505C383.689 157.306 382.8 148.274 381.092 139.489V139.48Z" stroke="#0500FF" stroke-width="0.764319" stroke-linecap="round" stroke-linejoin="round"/>
<path d="M363.368 162.333C358.228 165.914 351.999 169.336 344.691 172.535C340.811 174.223 336.87 175.768 332.877 177.166C328.572 178.675 324.222 180.05 319.832 181.289C320.873 190.527 321.42 199.79 321.42 208.99C321.42 218.188 320.88 226.934 319.848 235.187C324.237 233.947 328.588 232.572 332.893 231.064C336.886 229.665 340.826 228.12 344.706 226.433C352.023 223.234 358.244 219.812 363.383 216.231C364.893 207.78 365.672 198.923 365.672 189.732C365.672 180.532 364.877 171.374 363.368 162.341V162.333Z" stroke="#0500FF" stroke-width="0.764319" stroke-linecap="round" stroke-linejoin="round"/>
<path d="M319.844 181.288C310.835 183.841 301.247 185.982 291.284 187.726C281.314 189.468 270.962 190.798 260.396 191.729C260.794 201.079 261.008 210.397 261.008 219.604C261.008 228.804 260.801 237.494 260.412 245.627C270.97 244.696 281.33 243.359 291.3 241.624C301.27 239.88 310.852 237.739 319.861 235.186C320.893 226.941 321.434 218.196 321.434 208.996C321.434 199.798 320.885 190.526 319.844 181.295V181.288Z" stroke="#0500FF" stroke-width="0.764319" stroke-linecap="round" stroke-linejoin="round"/>
<path d="M260.396 191.729C249.713 192.663 238.998 193.191 228.276 193.312C217.487 193.439 206.675 193.154 196.021 192.477C195.728 201.768 195.579 211.064 195.577 220.361C195.577 229.56 195.735 238.25 196.03 246.375C206.683 247.059 217.496 247.337 228.284 247.21C239.007 247.089 249.721 246.561 260.404 245.627C260.801 237.494 261.007 228.805 261 219.605C261 210.405 260.785 201.08 260.388 191.729H260.396Z" stroke="#0500FF" stroke-width="0.764319" stroke-linecap="round" stroke-linejoin="round"/>
<path d="M195.568 220.366C195.568 211.167 195.719 201.832 196.013 192.482C185.36 191.805 174.865 190.723 164.713 189.234C154.559 187.755 144.747 185.868 135.453 183.593C134.504 192.81 134.024 202.069 134.014 211.334C134.014 220.533 134.515 229.27 135.46 237.491C144.756 239.775 154.567 241.653 164.72 243.132C174.873 244.613 185.367 245.696 196.022 246.38C195.714 237.715 195.563 229.045 195.568 220.374V220.366Z" stroke="#0500FF" stroke-width="0.764319" stroke-linecap="round" stroke-linejoin="round"/>
<path d="M134.029 211.327C134.029 202.129 134.522 192.85 135.467 183.586C126.172 181.303 117.408 178.629 109.345 175.549C101.283 172.47 94.3297 169.151 88.4828 165.658C87.0204 174.733 86.282 183.911 86.2743 193.104C86.2743 202.303 87.0371 211.144 88.4912 219.556C94.3382 223.049 101.29 226.368 109.354 229.447C117.416 232.527 126.187 235.201 135.475 237.484C134.522 229.264 134.029 220.527 134.029 211.327Z" stroke="#0500FF" stroke-width="0.764319" stroke-linecap="round" stroke-linejoin="round"/>
<path d="M86.2756 193.113C86.2756 183.913 87.0298 174.73 88.484 165.666C82.6371 162.173 77.9023 158.504 74.271 154.724C70.641 150.944 68.1147 147.061 66.6847 143.129C64.979 152.052 64.1197 161.117 64.1184 170.202C64.1184 179.402 65.0081 188.362 66.6931 197.02C68.1219 200.95 70.6483 204.835 74.2795 208.614C77.9107 212.394 82.6443 216.063 88.4925 219.556C87.0383 211.144 86.2756 202.304 86.2756 193.104V193.113Z" stroke="#0500FF" stroke-width="0.764319" stroke-linecap="round" stroke-linejoin="round"/>
<path d="M372.406 222.79C370.245 227.581 367.496 234.05 364.954 238.657C362.984 242.016 360.457 246.56 358.351 249.831C357.901 250.524 357.422 251.199 356.914 251.852C354.324 255.218 350.765 258.496 346.26 261.64C350.458 254.892 353.987 247.749 356.795 240.313C359.67 232.722 361.894 224.676 363.404 216.225C368.537 212.644 372.589 208.904 375.544 205.076C378.086 201.782 379.818 198.408 380.739 195.017C379.357 200.867 377.641 208.132 375.814 213.543L372.406 222.79ZM372.406 222.79C372.167 223.371 371.906 223.952 371.619 224.533M64.1147 170.209C64.1121 161.121 64.9714 152.054 66.681 143.129C65.251 139.198 64.9246 135.226 65.6958 131.279C65.6958 131.303 65.6874 131.319 65.6801 131.343L65.1241 134.351C63.4076 144.553 63.3834 145.222 62.7004 162.403C62.8673 168.792 63.5103 177.3 64.099 183.666L65.7115 193.533C65.9412 194.704 66.2676 195.865 66.6894 197.027C64.969 188.192 64.1068 179.211 64.1147 170.209ZM380.725 195.016C380.868 194.483 380.995 193.958 381.098 193.425C380.979 193.942 380.852 194.475 380.725 195.016Z" stroke="#0500FF" stroke-width="0.764319" stroke-linecap="round" stroke-linejoin="round"/>
<path d="M344.704 226.438C340.824 228.126 336.883 229.67 332.89 231.069C328.586 232.578 324.235 233.953 319.845 235.191C318.813 243.435 317.28 251.186 315.294 258.38C313.307 265.574 310.876 272.227 308.04 278.274C311.988 277.16 315.81 275.95 319.48 274.653C322.983 273.429 326.439 272.073 329.839 270.588C336.259 267.778 341.717 264.778 346.229 261.635C350.353 255.03 353.88 247.899 356.764 240.308C359.711 232.502 361.924 224.438 363.374 216.22C358.234 219.8 352.005 223.222 344.697 226.422L344.704 226.438Z" stroke="#0500FF" stroke-width="0.764319" stroke-linecap="round" stroke-linejoin="round"/>
<path d="M291.283 241.626C281.313 243.368 270.962 244.698 260.395 245.629C259.998 253.762 259.409 261.345 258.655 268.324C257.892 275.304 256.963 281.693 255.875 287.431C265.138 286.611 274.227 285.442 282.974 283.921C291.72 282.401 300.125 280.516 308.038 278.271C310.875 272.223 313.313 265.571 315.292 258.376C317.278 251.183 318.811 243.433 319.844 235.188C310.826 237.743 301.246 239.884 291.283 241.626Z" stroke="#0500FF" stroke-width="0.764319" stroke-linecap="round" stroke-linejoin="round"/>
<path d="M228.282 247.206C217.493 247.333 206.681 247.046 196.028 246.37C196.321 254.495 196.766 262.062 197.331 269.033C197.895 276.005 198.586 282.363 199.397 288.084C208.747 288.681 218.233 288.928 227.694 288.816C237.102 288.709 246.501 288.248 255.874 287.432C256.962 281.686 257.891 275.304 258.654 268.326C259.417 261.347 259.997 253.762 260.395 245.629C249.712 246.564 238.997 247.092 228.275 247.213L228.282 247.206Z" stroke="#0500FF" stroke-width="0.764319" stroke-linecap="round" stroke-linejoin="round"/>
<path d="M197.343 269.031C196.78 262.061 196.342 254.492 196.041 246.367C185.387 245.692 174.892 244.609 164.739 243.121C154.587 241.64 144.775 239.755 135.479 237.479C136.433 245.699 137.832 253.411 139.642 260.564C141.454 267.719 143.679 274.307 146.268 280.283C154.419 282.281 163.031 283.936 171.945 285.233C181.058 286.551 190.22 287.502 199.409 288.082C198.599 282.361 197.907 275.995 197.343 269.031Z" stroke="#0500FF" stroke-width="0.764319" stroke-linecap="round" stroke-linejoin="round"/>
<path d="M72.2691 217.254V217.244M139.642 260.566C137.832 253.411 136.426 245.708 135.479 237.48C126.185 235.196 117.422 232.522 109.357 229.443C101.295 226.363 94.3441 223.045 88.4959 219.551C89.9501 227.971 92.103 235.96 94.8832 243.48C97.6634 251 101.072 258.042 105.044 264.553C110.17 267.616 116.27 270.528 123.349 273.226C130.426 275.924 138.117 278.28 146.269 280.277C143.678 274.293 141.454 267.703 139.642 260.557V260.566Z" stroke="#0500FF" stroke-width="0.764319" stroke-linecap="round" stroke-linejoin="round"/>
<path d="M94.8625 243.492C92.0823 235.972 89.9306 227.974 88.4752 219.563C82.6283 216.07 77.8935 212.401 74.2635 208.621C70.6323 204.84 68.1059 200.957 66.6759 197.026C66.2623 195.888 65.9357 194.72 65.6992 193.533C66.8028 198.73 68.6704 205.573 70.052 210.706C70.0762 210.786 71.9511 216.444 74.4218 222.889C76.0742 226.9 78.6091 232.096 80.444 236.027C82.6924 240.277 86.0214 245.776 88.4825 249.906C89.5958 251.609 90.9545 253.303 92.5513 254.967C95.7364 258.286 99.8923 261.5 105.024 264.564C101.051 258.054 97.6439 251.012 94.8625 243.492Z" stroke="#0500FF" stroke-width="0.764319" stroke-linecap="round" stroke-linejoin="round"/>
<path d="M107.15 273.522C103.423 269.321 98.5143 263.663 95.0342 259.247L88.4959 249.904C89.608 251.607 90.9666 253.302 92.5634 254.965C96.8266 261.598 101.708 267.812 107.141 273.522M346.245 261.644C342.182 268.172 337.473 274.275 332.192 279.86C326.837 285.455 326.432 285.773 315.953 293.961C320.521 290.563 326.432 285.789 330.793 282.12C333.431 279.828 336.656 276.454 339.159 274.027C342.52 270.43 346.746 265.409 349.915 261.644L350.695 260.642C352.882 257.8 354.952 254.869 356.898 251.856C354.309 255.215 350.758 258.501 346.245 261.644ZM325.901 42.6353C324.964 40.0647 323.304 37.5184 320.928 35.0508C314.267 30.3761 307.174 26.35 299.748 23.0274C292.136 19.6203 284.22 16.9421 276.105 15.0288C277.392 16.3655 278.291 17.7422 278.798 19.1274C279.307 20.5198 279.426 21.9207 279.148 23.3217C287.788 26.5394 296.152 30.4568 304.158 35.035C312.03 39.535 319.523 44.6713 326.561 50.3929C327.062 47.8151 326.847 45.2131 325.91 42.6426L325.901 42.6353Z" stroke="#0500FF" stroke-width="0.764319" stroke-linecap="round" stroke-linejoin="round"/>
<path d="M345.141 59.7409C346.253 62.7958 346.515 65.8749 345.919 68.9467C339.99 62.2378 333.517 56.0311 326.567 50.3898C327.067 47.8108 326.853 45.2087 325.915 42.6394C332.821 47.7558 339.255 53.4816 345.141 59.7482" stroke="#0500FF" stroke-width="0.764319" stroke-linecap="round" stroke-linejoin="round"/>
<path d="M339.232 50.7332C342.06 53.6694 344.022 56.6855 345.143 59.7416C339.251 53.4809 332.818 47.7556 325.917 42.6329C324.98 40.0623 323.319 37.516 320.944 35.0483C327.531 39.6761 333.658 44.9286 339.24 50.7332" stroke="#0500FF" stroke-width="0.764319" stroke-linecap="round" stroke-linejoin="round"/>
<path d="M339.649 51.1815C342.025 53.855 345.274 57.3409 347.546 60.0931C350.851 64.4399 355.228 70.2639 358.286 74.7839C359.336 76.3761 360.202 78.0821 360.868 79.8693C356.243 72.6918 350.975 65.9506 345.131 59.7286C344.019 56.6726 342.049 53.6564 339.22 50.7202L339.649 51.1731" stroke="#0500FF" stroke-width="0.764319" stroke-linecap="round" stroke-linejoin="round"/>
<path d="M360.886 79.8777C362.141 83.3236 362.435 86.8096 361.76 90.2701C357.092 82.7253 351.792 75.5911 345.919 68.9441C346.514 65.8807 346.253 62.7931 345.139 59.7371C350.989 65.9552 356.257 72.6969 360.878 79.8777M359.138 76.2077C358.869 75.7294 358.582 75.2609 358.281 74.7911L359.138 76.2077Z" stroke="#0500FF" stroke-width="0.764319" stroke-linecap="round" stroke-linejoin="round"/>
<path d="M381.07 131.172C379.393 124.026 376.771 114.589 374.555 107.594L374.364 107.076C373.824 105.588 373.252 104.108 372.664 102.644C372.561 102.366 372.458 102.095 372.347 101.816C372.185 101.438 372.018 101.061 371.847 100.686C370.366 97.1727 368.736 93.724 366.961 90.3498C365.705 87.8034 364.423 85.2698 363.115 82.7495L359.142 76.2087C359.816 77.3813 360.39 78.6085 360.859 79.8775C362.113 83.3222 362.408 86.8082 361.733 90.2699C366.384 97.7881 370.359 105.706 373.61 113.929C376.879 122.197 379.377 130.751 381.07 139.481C381.61 136.712 381.601 133.934 381.061 131.165L381.07 131.172Z" stroke="#0500FF" stroke-width="0.764319" stroke-linecap="round" stroke-linejoin="round"/>
<path d="M381.651 134.249C383.883 150.817 384.019 151.812 384.09 162.291C384.09 163.692 383.955 165.1 383.685 166.501C383.685 157.303 382.795 148.27 381.087 139.485C381.627 136.715 381.619 133.938 381.079 131.169L381.651 134.249Z" stroke="#0500FF" stroke-width="0.764319" stroke-linecap="round" stroke-linejoin="round"/>
<path d="M384.088 162.295C383.793 169.624 383.103 179.388 382.26 186.67L381.155 193.099C382.842 184.332 383.688 175.424 383.682 166.496C383.951 165.109 384.087 163.7 384.088 162.286M233.077 1.67482C233.292 1.65908 233.499 1.6506 233.706 1.67482H233.682C230.639 1.47625 230.528 1.47625 224.57 1.3479H221.574C221.574 1.3479 221.637 1.36485 221.661 1.38059C225.466 1.33886 229.272 1.437 233.07 1.67482H233.077Z" stroke="#0500FF" stroke-width="0.764319" stroke-linecap="round" stroke-linejoin="round"/>
<path d="M278.802 19.118C278.293 17.7256 277.396 16.3574 276.109 15.0206C274.821 13.6827 273.145 12.3859 271.072 11.1533C269.006 9.91828 266.551 8.74985 263.708 7.65891C259.774 6.235 258.862 5.99647 254.492 4.81835C251.075 3.98966 247.62 3.32297 244.14 2.82051C240.549 2.29623 236.839 1.91362 233.065 1.67509C228.688 1.3966 221.658 1.38086 221.658 1.38086C217.844 1.42082 214.03 1.61091 210.296 1.93783C206.562 2.26475 202.9 2.74181 199.372 3.35448C195.845 3.96715 192.453 4.7227 189.267 5.6308C187.708 6.07007 186.164 6.55827 184.636 7.09467C183.15 7.61895 181.768 8.16019 180.473 8.72564C177.882 9.85532 175.682 11.0649 173.863 12.3387C172.044 13.6113 170.614 14.925 169.565 16.2859C168.517 17.6384 167.857 19.0308 167.587 20.4233C167.314 21.8268 167.435 23.2787 167.937 24.6175C168.444 26.01 169.335 27.3782 170.621 28.7149C171.909 30.0528 173.585 31.3496 175.651 32.5834C177.716 33.816 180.179 34.9942 183.031 36.0839C185.883 37.1736 188.989 38.1217 192.271 38.9257C195.688 39.7543 199.142 40.421 202.622 40.9235C206.213 41.4478 209.923 41.8304 213.697 42.0689C217.462 42.3075 221.291 42.4104 225.105 42.3632C228.898 42.3224 232.687 42.1366 236.465 41.8062C240.199 41.4793 243.862 41.0022 247.389 40.3895C250.794 39.8043 254.167 39.0446 257.495 38.1132C259.047 37.6721 260.586 37.1867 262.111 36.6578C263.523 36.161 264.917 35.6142 266.29 35.0184C268.879 33.8875 271.08 32.6779 272.899 31.4053C274.719 30.14 276.149 28.819 277.197 27.4581C278.246 26.1056 278.898 24.7132 279.176 23.3195C279.454 21.9271 279.327 20.5189 278.826 19.1265L278.802 19.118Z" stroke="#0500FF" stroke-width="0.764319" stroke-linecap="round" stroke-linejoin="round"/>
<path d="M314.477 29.7019L306.001 24.2436L303.538 22.7943C297.055 19.0867 293.91 17.5829 287.411 14.7424C287.61 14.8368 287.816 14.9409 288.023 15.0366C287.116 14.614 286.02 14.1285 284.456 13.4528L287.411 14.7339C286.242 14.1769 285.043 13.6599 283.033 12.8317L280.531 11.8534C275.113 9.79022 269.47 8.37981 263.72 7.65186C266.565 8.73311 269.02 9.91123 271.085 11.145C273.15 12.3776 274.835 13.6756 276.121 15.0124C284.235 16.9289 292.151 19.6066 299.764 23.0098C307.191 26.3322 314.283 30.3583 320.944 35.0331C319.189 33.2048 317.036 31.4213 314.486 29.6862L314.477 29.7019Z" stroke="#0500FF" stroke-width="0.764319" stroke-linecap="round" stroke-linejoin="round"/>
<path d="M327.864 40.0008C331.272 43.1368 335.84 47.2971 339.098 50.5917L339.232 50.7273C333.65 44.9227 327.524 39.6702 320.937 35.0425C319.18 33.2117 317.027 31.4294 314.477 29.6956C318.553 32.7032 324.042 36.6662 327.864 39.9923" stroke="#0500FF" stroke-width="0.764319" stroke-linecap="round" stroke-linejoin="round"/>
<path d="M339.649 51.1861L339.22 50.7321C339.181 50.6848 339.133 50.6449 339.086 50.5977L339.649 51.1861ZM329.852 270.595C326.448 272.075 322.993 273.431 319.492 274.662C315.717 275.985 311.902 277.193 308.052 278.282C305.217 284.33 301.975 289.781 298.376 294.588C294.777 299.394 290.821 303.555 286.547 307.017C289.487 306.182 292.338 305.283 295.078 304.319C297.692 303.405 300.27 302.394 302.809 301.287C308.624 298.622 309.538 298.057 314.622 294.898L315.957 293.967C321.963 289.71 322.742 288.969 332.196 279.866C337.479 274.282 342.187 268.18 346.249 261.65C341.745 264.794 336.279 267.794 329.86 270.603L329.852 270.595Z" stroke="#0500FF" stroke-width="0.764319" stroke-linecap="round" stroke-linejoin="round"/>
<path d="M255.869 287.437C254.781 293.182 253.541 298.283 252.159 302.699C251.159 306.388 250.072 310.052 248.902 313.69C263.679 312.552 280.624 308.692 286.519 307.021C290.785 303.559 294.75 299.397 298.348 294.59C301.947 289.785 305.189 284.334 308.025 278.286C290.166 283.338 271.663 286.052 255.862 287.444L255.869 287.437Z" stroke="#0500FF" stroke-width="0.764319" stroke-linecap="round" stroke-linejoin="round"/>
<path d="M227.698 288.826V288.881M227.698 288.826C218.259 288.938 208.819 288.694 199.399 288.094C200.209 293.816 201.131 298.892 202.156 303.278C203.18 307.662 204.309 311.363 205.517 314.332C212.484 314.777 219.563 314.96 226.624 314.88C233.687 314.96 241.95 314.132 248.917 313.686C250.554 308.936 252.175 302.697 252.175 302.697C253.556 298.28 254.797 293.179 255.885 287.433C246.513 288.257 237.113 288.719 227.705 288.819L227.698 288.826Z" stroke="#0500FF" stroke-width="0.764319" stroke-linecap="round" stroke-linejoin="round"/>
<path d="M202.154 303.278C201.129 298.892 200.208 293.816 199.397 288.094C190.054 287.498 180.846 286.551 171.933 285.245C163.019 283.947 154.415 282.292 146.256 280.296C148.846 286.279 151.809 291.651 155.091 296.37C158.38 301.089 161.986 305.156 165.879 308.514C171.957 310.01 178.383 311.236 185.025 312.207C191.821 313.191 198.653 313.899 205.506 314.33C204.291 311.363 203.17 307.662 202.145 303.278H202.154Z" stroke="#0500FF" stroke-width="0.764319" stroke-linecap="round" stroke-linejoin="round"/>
<path d="M155.106 296.369C151.817 291.649 148.862 286.271 146.273 280.294C138.122 278.297 130.423 275.941 123.353 273.244C116.274 270.546 110.18 267.633 105.048 264.57C108.949 270.975 113.49 276.966 118.602 282.451C123.6 287.805 129.15 292.614 135.158 296.799C138.98 299.083 143.531 301.255 148.806 303.268C154.081 305.282 159.818 307.033 165.903 308.528C162.011 305.17 158.395 301.103 155.115 296.385L155.106 296.369Z" stroke="#0500FF" stroke-width="0.764319" stroke-linecap="round" stroke-linejoin="round"/>
<path d="M118.575 282.444C113.46 276.962 108.918 270.971 105.022 264.562C99.8963 261.499 95.7345 258.276 92.5493 254.966C96.8124 261.599 101.694 267.812 107.127 273.522L107.643 274.064C108.017 274.446 108.405 274.836 108.811 275.218L113.673 280.009C120.204 286.041 120.879 286.534 132.112 294.865C133.094 295.541 134.098 296.183 135.123 296.792C129.115 292.607 123.565 287.798 118.567 282.444H118.575Z" stroke="#0500FF" stroke-width="0.764319" stroke-linecap="round" stroke-linejoin="round"/>
<path d="M140.397 300.201L136.767 297.941L132.127 294.846C133.109 295.521 134.113 296.163 135.138 296.771L140.397 300.193M211.65 322.854C209.061 320.953 206.726 317.309 205.509 314.34C198.657 313.909 191.824 313.2 185.029 312.215C178.387 311.244 171.959 310.011 165.883 308.523C169.775 311.881 175.693 315.47 180.11 317.372M286.546 307.017C279.029 312.34 266.795 317.338 266.795 317.338M248.907 313.683C246.977 318.935 244.466 321.457 244.466 321.457" stroke="#0500FF" stroke-width="0.764319" stroke-linecap="round" stroke-linejoin="round"/>
<path d="M219.238 302.456C218.388 301.262 216.544 299.965 215.139 299.567L192.473 293.225L191.701 289.947C191.368 288.522 190.097 286.692 188.881 285.88L163.706 269.057L155.03 266.009C153.647 265.524 151.71 264.251 150.716 263.176L149.206 261.538C148.214 260.462 146.219 259.747 144.774 259.954L143.686 260.105C142.239 260.311 140.246 261.354 139.252 262.429C138.267 263.503 136.448 263.741 135.217 262.962L126.486 257.431C125.254 256.651 123.904 254.869 123.482 253.476L120.693 244.253L113.503 234.345L117.437 223.65C117.818 222.616 117.357 221.311 116.412 220.738L113.813 219.17C113.421 218.933 112.983 218.783 112.529 218.728C112.074 218.673 111.613 218.715 111.177 218.852L104.058 222.456C104.725 223.913 101.341 216.814 101.341 216.814L100.904 204.981L100.785 201.655C100.736 200.469 101.285 198.718 101.985 197.772L103.622 195.567C104.329 194.613 105.853 194.023 107.013 194.246L112.702 195.361C113.863 195.591 115.268 196.633 115.816 197.684L121.79 209.111C121.915 209.357 122.09 209.575 122.304 209.75C122.518 209.925 122.766 210.053 123.032 210.127C123.298 210.2 123.577 210.217 123.85 210.177C124.123 210.136 124.385 210.039 124.618 209.892L124.905 209.716C125.913 209.095 126.74 207.615 126.731 206.43V200.438C126.731 199.251 127.574 197.819 128.615 197.246L137.242 192.535L143.526 180.122L148.492 178.848C149.635 178.554 151.232 177.598 152.026 176.716L154.292 174.216C155.086 173.341 156.634 172.991 157.731 173.437L160.83 174.702L170.442 172.124C171.586 171.813 172.015 170.739 171.403 169.721L166.406 161.524C165.787 160.514 164.317 159.59 163.141 159.478L158.724 159.049L159.598 157.927C160.33 156.996 161.887 156.375 163.054 156.551L174.653 158.293C175.82 158.467 177.37 157.839 178.077 156.892L182.034 151.648C182.748 150.701 182.796 149.118 182.136 148.131L176.616 139.806C175.964 138.821 175.328 137.046 175.209 135.868L174.534 129.167C174.414 127.99 173.565 126.414 172.635 125.674L162.601 117.612C161.68 116.874 160.552 117.159 160.09 118.258L152.44 136.569C152.082 137.42 151.201 138.574 150.47 139.138L145.107 143.285C144.376 143.849 143.789 143.555 143.797 142.632L143.868 133.903C143.868 132.979 143.415 131.626 142.852 130.902L134.112 119.682C133.548 118.957 133.572 117.781 134.168 117.08L138.283 112.225C138.878 111.526 140.094 110.76 140.993 110.53L156.333 106.631C158.875 105.986 161.918 103.527 163.094 101.172L165.27 96.7948C165.525 96.2863 165.27 95.8879 164.707 95.9036L159.312 96.0393C159.182 96.0448 159.053 96.0225 158.932 95.9738C158.812 95.9251 158.703 95.8511 158.613 95.7568C158.524 95.6625 158.456 95.5501 158.413 95.4271C158.37 95.3042 158.355 95.1735 158.367 95.044L159.082 86.1324C159.161 85.1529 158.446 84.5487 157.501 84.7945C156.952 84.9385 156.285 85.4556 156.015 85.9484L152.853 91.7663C152.796 91.8807 152.713 91.9807 152.612 92.0589C152.511 92.1372 152.393 92.1916 152.268 92.2184C152.143 92.2451 152.014 92.2434 151.89 92.2133C151.765 92.1833 151.649 92.1257 151.55 92.0448L140.976 84.0074C140.756 83.8329 140.606 83.5849 140.553 83.3088C140.501 83.0326 140.55 82.7468 140.69 82.5036L142.247 79.9088L139.903 70.0407C139.777 69.4922 139.229 68.9026 138.689 68.7355L134.692 67.4714C134.264 67.3291 133.904 67.0313 133.683 66.6365C133.462 66.2416 133.397 65.7784 133.501 65.3379L137.568 48.8346C137.791 47.935 137.37 46.7484 136.639 46.1914L134.899 44.8631C134.168 44.3062 132.984 44.3304 132.277 44.9188L123.927 51.8737C123.22 52.4622 121.941 53.2262 121.083 53.5689L114.831 56.0595L103.287 66.4846C102.604 67.1045 101.881 68.3468 101.683 69.2452L101.356 70.7418C101.158 71.6402 101.659 72.0228 102.468 71.5845L111.192 66.8503C112.002 66.4119 112.503 66.7861 112.313 67.6942L108.991 83.2035L96.694 105.666L94.5799 120.954L80.431 146.499L81.7812 187.449C81.8211 188.635 82.3131 190.457 82.8776 191.5L85.063 195.55L85.0473 187.155C85.0473 185.133 86.2622 184.6 87.7478 185.953L89.0037 198.479L90.4893 213.288L99.0609 227.548C99.8877 228.917 101.81 230.39 103.352 230.827C105.314 231.376 107.673 233.31 108.602 235.124L116.881 251.294C117.611 252.718 119.185 254.74 120.384 255.798L134.692 268.371C135.892 269.422 136.654 271.579 136.385 273.154L134.962 281.59C134.692 283.165 135.423 285.353 136.583 286.451L149.731 298.953L172.023 312.585L183.528 316.477L186.268 318.968C190.526 319.977 194.839 320.813 199.225 321.482L201.155 317.295L211.945 315.602L220.112 308.288C221.2 307.309 221.399 305.535 220.548 304.341L219.222 302.47L219.238 302.455V302.456ZM362.348 226.137L351.568 202.176L351.13 201.197C350.129 198.969 347.372 197.617 344.997 198.189L335.106 200.577C333.812 200.887 332.834 200.06 332.921 198.73L333.621 188.704L328.528 177.643C328.004 176.496 326.566 175.335 325.334 175.064C324.238 174.817 322.983 175.462 322.546 176.496L315.3 193.447C313.783 196.995 309.62 201.086 306.053 202.542L283.84 211.598C282.49 212.147 280.749 213.62 279.987 214.869L273.822 224.928L265.695 238.202C263.828 241.257 262.017 246.668 261.675 250.241L260.007 267.781C259.888 269.077 260.651 270.757 261.707 271.512L272.956 279.55C274.013 280.305 275.872 280.552 277.095 280.091L297.353 272.452C298.721 271.934 301.016 271.728 302.455 271.989L308.23 273.049C309.667 273.31 310.407 274.64 309.867 276.001L308.206 280.227C307.666 281.587 307.292 283.903 307.372 285.359L307.514 288.144C307.594 289.608 306.84 291.677 305.839 292.751L297.075 302.158L293.263 307.291C329.831 289.576 358.669 258.39 373.374 220.169L365.955 226.885C364.676 228.047 363.048 227.705 362.34 226.129L362.348 226.137Z" stroke="#48FF91" stroke-width="0.764319" stroke-linecap="round" stroke-linejoin="round"/>
<path d="M173.127 119.305C174.644 121.454 176.94 121.334 178.235 119.042L185.203 106.683C185.663 105.872 185.735 104.495 185.37 103.636L183.24 98.6303C182.851 97.7234 183.057 96.354 183.685 95.5912L184.082 95.1141C184.718 94.3574 185.028 92.9492 184.781 91.9939L181.683 80.0977C181.436 79.1411 180.539 77.94 179.688 77.4314L178.18 76.5233C177.329 76.0148 175.954 76.0305 175.12 76.556L167.828 81.1789C166.199 82.2141 166.135 83.9965 167.685 85.1419L172.444 88.6678C173.412 89.3834 174.215 90.9598 174.231 92.161L174.302 98.4087C174.319 99.6099 173.389 100.898 172.237 101.265L170.592 101.782C169.449 102.148 168.026 103.302 167.43 104.353L166.342 106.286C165.755 107.337 165.833 109 166.533 109.987L173.119 119.313L173.127 119.305ZM148.242 77.5441L151.912 80.0347C152.976 80.7588 154.486 80.513 155.272 79.5019L163.129 69.3638C163.299 69.1496 163.422 68.9025 163.491 68.6382C163.561 68.3738 163.574 68.0979 163.532 67.8279C163.489 67.5579 163.392 67.2997 163.244 67.0695C163.097 66.8393 162.904 66.6422 162.677 66.4906L158.975 63.96L160.516 59.7427L159.793 58.0561C159.709 57.8547 159.585 57.673 159.427 57.5225C159.269 57.372 159.082 57.256 158.877 57.182C158.673 57.1079 158.455 57.0774 158.238 57.0924C158.02 57.1074 157.809 57.1676 157.616 57.269L151.539 60.3953C150.395 60.9838 149.569 62.5118 149.696 63.7929L150.228 69.2209L147.447 74.1937C146.82 75.3162 147.177 76.8212 148.242 77.5441ZM173.149 66.9131L178.719 71.1074C179.505 71.6958 180.872 71.846 181.769 71.4416L182.778 70.979C183.668 70.5734 184.947 69.6508 185.607 68.9267L187.354 67.0257C188.022 66.3005 189.261 65.3137 190.111 64.8281L205.992 55.8524C206.843 55.3669 207.057 54.3389 206.452 53.5603L205.602 52.4621C204.999 51.6824 203.712 50.9898 202.735 50.9099L194.512 50.2572C193.535 50.1785 192.303 50.7985 191.779 51.6254L187.275 58.7729C186.75 59.5998 185.598 60.6581 184.653 60.9136L172.975 64.1355C172.029 64.3983 171.394 65.5764 173.149 66.8962V66.9131ZM195.198 66.8841C194.404 67.4641 193.768 68.7366 193.777 69.7234L193.808 72.1039C193.824 73.0822 194.579 74.1719 195.501 74.5134L198.003 75.453C199.337 75.9555 200.402 77.5235 200.371 78.9474L200.021 97.1858C200.004 98.0697 199.521 99.3507 198.941 100.019L195.692 103.799C195.111 104.468 194.682 105.74 194.729 106.633L195.881 127.267C195.93 128.15 196.541 129.328 197.233 129.876L203.469 134.811C204.16 135.36 204.979 135.129 205.28 134.294L211.818 116.174C212.12 115.338 212.931 114.207 213.63 113.659L230.774 100.059C231.886 99.1752 232.291 97.4086 231.672 96.1276L228.962 90.5409C228.573 89.7454 228.764 88.5673 229.376 87.9316L231.037 86.205C231.648 85.5681 232.189 84.3185 232.236 83.4346L233.292 62.9284C233.341 61.9488 232.681 60.755 231.822 60.2864L224.839 56.4663C223.982 55.9965 222.48 55.7265 221.511 55.8778L209.133 57.7473C208.164 57.8902 206.718 58.4871 205.931 59.0683L195.198 66.8901V66.8829V66.8841ZM239.088 113.476L233.781 115.728L232.312 115.211C231.898 115.073 231.448 115.093 231.048 115.266C230.648 115.439 230.326 115.753 230.142 116.15L229.515 117.566L232.946 122.731C233.44 123.471 234.56 124.028 235.441 123.981L241.05 123.646C241.933 123.59 242.774 122.834 242.925 121.959L243.839 116.476L241.655 114.049C241.059 113.389 239.907 113.135 239.096 113.485L239.088 113.476ZM263.43 125.479L268.109 129.378C268.792 129.943 268.974 131.033 268.514 131.788L267.609 133.293L268.792 139.739C269.054 141.179 270.342 141.816 271.645 141.155L276.18 138.856C277.483 138.195 278.326 136.484 278.039 135.044L277.761 133.628C277.483 132.195 276.411 130.166 275.386 129.123L268.872 122.518C268.252 121.89 267.553 120.672 267.315 119.821L266.877 118.228C266.648 117.377 265.765 116.462 264.915 116.192L263.103 115.626C262.262 115.364 261.618 115.873 261.673 116.756L262.071 122.828C262.127 123.712 262.731 124.898 263.414 125.47L263.43 125.479ZM263.462 137.979C264.209 137.502 264.757 136.395 264.677 135.513L264.248 130.674C264.17 129.791 263.447 128.772 262.644 128.407L262.397 128.295C261.595 127.928 260.538 128.239 260.062 128.979L257.829 132.449L258.537 139.412C258.624 140.296 259.315 140.63 260.054 140.151L263.462 137.979Z" stroke="#48FF91" stroke-width="0.764319" stroke-linecap="round" stroke-linejoin="round"/>
<path d="M304.566 23.3799L285.53 17.4905L275.982 16.9723C274.408 16.8851 273.9 17.8477 274.846 19.1057L281.257 27.6117C281.869 28.4229 282.376 29.928 282.392 30.9462L282.416 34.0181C282.416 34.8862 282.885 36.143 283.441 36.8029L288.24 42.5325L289.185 44.6744L295.001 49.2331C296.931 50.7539 296.605 51.3738 294.261 50.634L290.6 49.4644C289.773 49.2016 289.114 49.6944 289.13 50.5626L289.185 53.2118L296.471 59.3325C296.923 59.7139 297.058 60.4464 296.765 60.9634L296.018 62.2929C295.708 62.8414 295.58 63.7883 295.74 64.4009L296.669 68.0382C296.707 68.183 296.715 68.334 296.694 68.4822C296.673 68.6303 296.622 68.7728 296.545 68.9011C296.468 69.0293 296.366 69.1409 296.246 69.2291C296.125 69.3174 295.988 69.3805 295.842 69.4149L295.286 69.5493C294.245 69.7963 294.032 70.6076 294.81 71.3486L295.914 72.3899C296.693 73.1309 297.487 74.5947 297.686 75.653L298.353 79.3375C298.417 79.6753 298.41 80.0226 298.335 80.358C298.259 80.6933 298.116 81.0095 297.913 81.287C297.71 81.5645 297.453 81.7974 297.157 81.9713C296.861 82.1452 296.532 82.2563 296.192 82.2979L294.349 82.5365L290.178 80.0228C289.114 79.3775 289.233 78.6449 290.456 78.3834L293.562 77.7295L293.967 76.9825C294.213 76.5158 294.275 75.9743 294.143 75.4637C294.011 74.9532 293.694 74.5104 293.253 74.2218L289.059 71.5556L275.742 71.8825C275.124 71.8971 274.488 72.3983 274.329 72.9965L271.874 82.1236C271.596 83.1576 272.017 84.5985 272.811 85.3225C273.169 85.641 273.534 86.2936 273.638 86.7549L274.948 92.8574L271.643 102.129C271.286 103.14 271.445 104.715 272.009 105.63L276.3 112.601C276.863 113.516 278.142 113.955 279.143 113.565L280.851 112.911C281.853 112.529 283.29 112.841 284.044 113.605L289.36 118.976L291.585 117.154L291.33 108.734C291.298 107.66 290.694 106.116 289.995 105.305L285.372 99.9649L284.442 88.3944C284.355 87.3434 285.094 86.7937 286.07 87.1593L286.937 87.4863L291.259 98.6669C291.648 99.6706 292.831 100.625 293.889 100.792L294.866 100.943C295.922 101.11 296.827 102.13 296.876 103.204L296.907 103.888L299.354 106.951C300.021 107.795 299.831 108.949 298.925 109.522C298.21 109.976 297.765 111.026 297.956 111.854L299.354 118.196C299.536 119.023 299.036 119.954 298.25 120.265L290.989 123.09C290.011 123.472 288.708 123.09 288.096 122.23L287.024 120.741C286.412 119.891 285.872 120.051 285.832 121.101L285.483 129.464L282.035 138.775C281.527 140.143 280.248 142.101 279.198 143.112L273.733 148.372C272.677 149.382 272.827 150.854 274.067 151.634L275.251 152.382C276.49 153.162 277.864 154.937 278.317 156.329L279.596 160.277C280.049 161.669 279.287 163.197 277.904 163.683L270.985 166.086C269.602 166.563 268.585 168.154 268.712 169.611L269.864 182.614C269.991 184.07 271.199 185.734 272.542 186.307L277.706 188.503C279.049 189.076 280.986 188.686 282.003 187.635L287.66 181.827L287.04 173.956C286.977 173.112 287.295 171.831 287.747 171.115L296.36 157.595H298.846C299.72 157.603 301.03 158.016 301.753 158.51L311.939 165.473L314.354 169.165C314.83 169.898 315.315 169.786 315.434 168.918L316.157 163.396C316.268 162.529 315.72 161.493 314.941 161.104L303.501 155.382C302.747 155 302.191 154.006 302.269 153.155L302.429 151.475C302.547 150.201 303.533 149.724 304.613 150.401L313.242 155.837C313.98 156.305 315.028 157.252 315.569 157.945L323.959 168.735L325.841 168.265C326.038 168.22 326.223 168.133 326.384 168.01C326.545 167.887 326.677 167.731 326.773 167.552C326.869 167.374 326.925 167.177 326.938 166.975C326.952 166.773 326.922 166.57 326.85 166.38L324.61 160.054C324.315 159.226 324.562 158.024 325.158 157.38L326.715 155.701L329.178 160.626C329.568 161.415 330.529 162.386 331.299 162.791L335.55 165.028C336.328 165.433 337.48 165.274 338.115 164.677L342.127 160.898C342.763 160.301 343.525 160.484 343.812 161.311L346.608 169.332C346.894 170.16 346.894 171.513 346.608 172.34L344.717 177.752C344.304 178.938 344.502 180.791 345.171 181.858L347.157 185.041C347.313 185.282 347.552 185.458 347.828 185.536C348.104 185.613 348.399 185.587 348.658 185.463L349.603 184.993C349.862 184.868 350.159 184.846 350.433 184.932C350.707 185.017 350.939 185.205 351.08 185.455L358.247 198.258L363.801 208.174L364.006 213.88C364.027 214.307 364.21 214.71 364.517 215.007C364.823 215.304 365.232 215.473 365.658 215.48C366.914 215.48 368.257 214.5 368.638 213.299L378.203 183.266L378.219 180.361L378.259 173.861C378.259 172.722 377.711 171.052 377.027 170.136L374.056 166.189C373.373 165.282 372.515 165.418 372.158 166.499L370.544 171.362C370.188 172.444 369.354 172.563 368.702 171.64L363.856 164.781C363.196 163.85 363.585 163.006 364.722 162.894L373.699 162.035C374.827 161.923 376.186 161.009 376.709 159.998L378.179 157.157C378.704 156.146 379.482 156.178 379.911 157.236L383.939 167.12L384.027 167.343L384.05 166.499C384.09 165.091 384.114 163.683 384.114 162.266C384.114 103.035 352.17 51.2867 304.598 23.3387L304.566 23.3799ZM122.33 225.344C122.74 224.942 123.273 224.689 123.843 224.627C124.414 224.565 124.989 224.697 125.475 225.002L133.428 229.991L141.77 237.67C142.366 238.22 142.19 238.69 141.381 238.697L137.956 238.753C137.544 238.753 136.964 238.53 136.67 238.243L126.778 228.75L122.297 227.508C122.125 227.46 121.968 227.368 121.843 227.24C121.717 227.112 121.628 226.953 121.584 226.779C121.539 226.606 121.542 226.423 121.59 226.251C121.639 226.078 121.732 225.922 121.861 225.797C122.019 225.647 122.179 225.487 122.337 225.336L122.33 225.344ZM147.266 241.7C146.528 241.366 145.407 241.516 144.788 242.05L144.05 242.678C143.429 243.204 143.493 243.983 144.184 244.413L148.362 246.96C149.062 247.381 150.286 247.652 151.096 247.548L156.729 246.856C157.538 246.761 157.594 246.403 156.848 246.06L147.259 241.7H147.266Z" stroke="#48FF91" stroke-width="0.764319" stroke-linecap="round" stroke-linejoin="round"/>
<path d="M223.395 323.267C312.143 323.267 384.088 251.201 384.088 162.304C384.088 73.4073 312.143 1.34229 223.395 1.34229C134.645 1.34229 62.7004 73.4073 62.7004 162.304C62.7004 251.201 134.645 323.267 223.395 323.267Z" stroke="#0500FF" stroke-width="0.764319" stroke-linecap="round" stroke-linejoin="round"/>
<path d="M428.967 200.283L425.106 199.36C423.604 205.655 406.246 211.543 362.026 209.204C321.835 207.079 269.664 198.723 215.133 185.68C160.602 172.646 110.289 156.491 73.4659 140.202C32.9496 122.281 20.1267 109.174 21.6281 102.88L17.7672 101.957C14.5651 115.382 45.4219 132.148 71.8691 143.838C108.906 160.223 159.458 176.458 214.219 189.548C268.981 202.639 321.399 211.034 361.828 213.167C390.699 214.695 425.781 213.7 428.982 200.276L428.967 200.283Z" fill="#48FF91"/>
<path d="M17.7398 101.967C14.5377 115.392 45.3945 132.159 71.8417 143.848C108.879 160.234 159.429 176.468 214.191 189.559C268.952 202.649 321.37 211.045 361.8 213.177C390.67 214.705 425.753 213.71 428.955 200.286" stroke="#0500FF" stroke-width="0.764319" stroke-miterlimit="10"/>
<path d="M425.107 199.364C423.606 205.658 406.246 211.547 362.028 209.208C321.837 207.083 269.665 198.727 215.134 185.684C160.603 172.649 110.291 156.495 73.4674 140.205C32.9499 122.285 20.1283 109.178 21.6296 102.883" stroke="#0500FF" stroke-width="0.764319" stroke-miterlimit="10"/>
<path d="M23.255 219.394C32.0502 245.226 61.3017 262.247 105.632 267.317C149.446 272.322 202.833 265.096 255.958 246.952C309.306 228.737 356.098 201.689 387.718 170.789C419.48 139.746 432.159 108.48 423.405 82.7676L419.647 84.0486C427.877 108.232 415.555 138.027 384.945 167.94C353.739 198.442 307.478 225.164 254.679 243.189C202.094 261.142 149.327 268.311 106.085 263.361C63.3663 258.476 35.2837 242.408 27.0132 218.106L23.255 219.387V219.394Z" fill="#48FF91"/>
<path d="M419.645 84.0469C427.875 108.23 415.553 138.025 384.943 167.938C353.736 198.441 307.476 225.162 254.676 243.187C202.092 261.14 149.325 268.309 106.083 263.359C63.3642 258.474 35.2803 242.406 27.011 218.104" stroke="#0500FF" stroke-width="0.764319" stroke-miterlimit="10"/>
<path d="M23.255 219.395C32.0502 245.227 61.3017 262.248 105.632 267.317C149.446 272.322 202.833 265.097 255.958 246.953C309.306 228.738 356.098 201.69 387.718 170.789C419.48 139.746 432.159 108.48 423.405 82.7688" stroke="#0500FF" stroke-width="0.764319" stroke-miterlimit="10"/>
<path d="M193.613 268.02L200.66 261.4L205.466 274.013L198.419 280.633L193.613 268.02Z" fill="#48FF8E" stroke="#0500FF" stroke-width="0.764319" stroke-linecap="round" stroke-linejoin="round"/>
<path d="M177.084 254.864C183.462 254.976 190.899 260.896 193.616 268.018L198.422 280.633L152.868 279.836L148.062 267.223C145.344 260.101 148.348 254.363 154.727 254.474L177.084 254.864Z" fill="#1B1B1C" stroke="#0500FF" stroke-width="0.764319" stroke-linecap="round" stroke-linejoin="round"/>
<path d="M184.116 248.237L161.76 247.847C159.504 247.807 157.661 248.5 156.358 249.733L149.312 256.362C150.622 255.128 152.457 254.437 154.714 254.477L177.069 254.866C183.449 254.978 190.884 260.897 193.602 268.021L200.649 261.391C197.932 254.269 190.495 248.349 184.116 248.237Z" fill="#48FF8E" stroke="#0500FF" stroke-width="0.764319" stroke-linecap="round" stroke-linejoin="round"/>
<path d="M184.116 248.237L161.76 247.847C159.504 247.807 157.661 248.5 156.358 249.733L149.312 256.362C150.622 255.128 152.457 254.437 154.714 254.477L177.069 254.866L184.116 248.237Z" fill="#0500FF" stroke="#0500FF" stroke-width="0.764319" stroke-linecap="round" stroke-linejoin="round"/>
<path d="M179.334 225.551C175.799 216.264 166.186 208.617 157.869 208.473C154.913 208.425 152.522 209.325 150.821 210.925L143.774 217.553C145.475 215.953 147.866 215.055 150.821 215.102C159.139 215.245 168.753 222.892 172.287 232.179C174.568 238.171 173.765 243.384 170.675 246.296L177.722 239.668C180.811 236.763 181.614 231.551 179.334 225.551Z" fill="#48FF8E" stroke="#0500FF" stroke-width="0.764319" stroke-linecap="round" stroke-linejoin="round"/>
<path d="M173.524 240.194L180.57 233.566C180.777 231.704 180.578 229.61 179.951 227.39L172.904 234.019C173.531 236.247 173.731 238.332 173.524 240.194Z" fill="#0500FF" stroke="#0500FF" stroke-width="0.764319" stroke-linecap="round" stroke-linejoin="round"/>
<path d="M150.824 215.098C159.142 215.243 168.754 222.89 172.29 232.177C175.825 241.463 171.956 248.88 163.638 248.736C155.321 248.593 145.707 240.938 142.173 231.651C138.637 222.364 142.506 214.948 150.824 215.098Z" fill="#1B1B1C" stroke="#0500FF" stroke-width="0.764319" stroke-linecap="round" stroke-linejoin="round"/>
<path d="M25.0493 119.974C26.4926 119.974 27.8768 119.4 28.8974 118.377C29.918 117.355 30.4913 115.969 30.4913 114.523C30.4913 113.077 29.918 111.691 28.8974 110.668C27.8768 109.646 26.4926 109.072 25.0493 109.072C23.606 109.072 22.2218 109.646 21.2013 110.668C20.1807 111.691 19.6073 113.077 19.6073 114.523C19.6073 115.969 20.1807 117.355 21.2013 118.377C22.2218 119.4 23.606 119.974 25.0493 119.974Z" fill="#2D9FFF"/>
<path d="M25.0573 109.072C24.3431 109.071 23.6358 109.212 22.9762 109.487C22.3165 109.761 21.7174 110.163 21.2134 110.67C20.2584 111.626 21.2134 114.117 23.3408 116.249C25.4707 118.381 27.9584 119.328 28.9109 118.381C29.4169 117.877 29.8184 117.276 30.0922 116.616C30.366 115.955 30.5068 115.247 30.5065 114.531C30.5059 113.086 29.9326 111.7 28.9124 110.677C27.8923 109.655 26.5088 109.08 25.0658 109.079L25.0573 109.072Z" fill="#48FF91"/>
<path d="M25.0493 119.974C26.4926 119.974 27.8768 119.4 28.8974 118.377C29.918 117.355 30.4913 115.969 30.4913 114.523C30.4913 113.077 29.918 111.691 28.8974 110.668C27.8768 109.646 26.4926 109.072 25.0493 109.072C23.606 109.072 22.2218 109.646 21.2013 110.668C20.1807 111.691 19.6073 113.077 19.6073 114.523C19.6073 115.969 20.1807 117.355 21.2013 118.377C22.2218 119.4 23.606 119.974 25.0493 119.974Z" stroke="#0500FF" stroke-width="0.611455" stroke-miterlimit="10"/>
<path d="M334.26 214.385C335.703 214.385 337.087 213.811 338.108 212.789C339.129 211.766 339.702 210.38 339.702 208.934C339.702 207.489 339.129 206.102 338.108 205.08C337.087 204.057 335.703 203.483 334.26 203.483C332.817 203.483 331.433 204.057 330.412 205.08C329.391 206.102 328.818 207.489 328.818 208.934C328.818 210.38 329.391 211.766 330.412 212.789C331.433 213.811 332.817 214.385 334.26 214.385Z" fill="#2D9FFF"/>
<path d="M334.269 203.483C333.554 203.483 332.847 203.624 332.187 203.899C331.527 204.173 330.928 204.576 330.424 205.083C329.47 206.038 330.424 208.529 332.552 210.662C334.682 212.795 337.169 213.741 338.121 212.795C338.628 212.29 339.03 211.689 339.304 211.028C339.578 210.367 339.719 209.659 339.719 208.943C339.718 207.498 339.145 206.112 338.124 205.09C337.104 204.067 335.72 203.493 334.277 203.492L334.269 203.483Z" fill="#48FF91"/>
<path d="M334.26 214.385C335.703 214.385 337.087 213.811 338.108 212.789C339.129 211.766 339.702 210.38 339.702 208.934C339.702 207.489 339.129 206.102 338.108 205.08C337.087 204.057 335.703 203.483 334.26 203.483C332.817 203.483 331.433 204.057 330.412 205.08C329.391 206.102 328.818 207.489 328.818 208.934C328.818 210.38 329.391 211.766 330.412 212.789C331.433 213.811 332.817 214.385 334.26 214.385Z" stroke="#0500FF" stroke-width="0.611455" stroke-miterlimit="10"/>
<path d="M157.933 177.786C159.376 177.786 160.76 177.212 161.781 176.189C162.801 175.167 163.375 173.781 163.375 172.335C163.375 170.889 162.801 169.503 161.781 168.48C160.76 167.458 159.376 166.884 157.933 166.884C156.489 166.884 155.105 167.458 154.085 168.48C153.064 169.503 152.491 170.889 152.491 172.335C152.491 173.781 153.064 175.167 154.085 176.189C155.105 177.212 156.489 177.786 157.933 177.786Z" fill="#2D9FFF"/>
<path d="M157.943 166.884C157.228 166.884 156.52 167.025 155.861 167.299C155.201 167.574 154.601 167.976 154.097 168.484C153.144 169.438 154.097 171.929 156.226 174.062C158.356 176.194 160.842 177.141 161.795 176.194C162.301 175.689 162.703 175.089 162.977 174.428C163.251 173.767 163.392 173.058 163.392 172.342C163.391 170.897 162.818 169.511 161.797 168.489C160.777 167.466 159.393 166.892 157.95 166.891L157.943 166.884Z" fill="#48FF91"/>
<path d="M157.933 177.786C159.376 177.786 160.76 177.212 161.781 176.189C162.801 175.167 163.375 173.781 163.375 172.335C163.375 170.889 162.801 169.503 161.781 168.48C160.76 167.458 159.376 166.884 157.933 166.884C156.489 166.884 155.105 167.458 154.085 168.48C153.064 169.503 152.491 170.889 152.491 172.335C152.491 173.781 153.064 175.167 154.085 176.189C155.105 177.212 156.489 177.786 157.933 177.786Z" stroke="#0500FF" stroke-width="0.611455" stroke-miterlimit="10"/>
<path d="M364.431 45.6697C365.146 45.6697 365.854 45.5287 366.514 45.2548C367.174 44.9808 367.774 44.5793 368.28 44.0731C368.785 43.567 369.186 42.966 369.459 42.3047C369.733 41.6433 369.873 40.9345 369.873 40.2186C369.873 39.5028 369.733 38.794 369.459 38.1326C369.186 37.4713 368.785 36.8703 368.28 36.3642C367.774 35.858 367.174 35.4565 366.514 35.1825C365.854 34.9086 365.146 34.7676 364.431 34.7676C362.988 34.7676 361.604 35.3419 360.583 36.3642C359.563 37.3864 358.989 38.7729 358.989 40.2186C358.989 41.6644 359.563 43.0509 360.583 44.0731C361.604 45.0954 362.988 45.6697 364.431 45.6697Z" fill="#2D9FFF"/>
<path d="M364.442 34.7678C363.727 34.7674 363.02 34.9083 362.36 35.1826C361.7 35.4569 361.101 35.8591 360.596 36.3661C359.643 37.3226 360.596 39.8121 362.725 41.9455C364.855 44.0777 367.341 45.0246 368.294 44.0777C368.8 43.573 369.202 42.973 369.476 42.3122C369.75 41.6514 369.891 40.9429 369.891 40.2274C369.89 38.7816 369.317 37.3952 368.297 36.3728C367.276 35.3504 365.892 34.7757 364.449 34.7751L364.442 34.7678Z" fill="#48FF91"/>
<path d="M364.431 45.6697C365.146 45.6697 365.854 45.5287 366.514 45.2548C367.174 44.9808 367.774 44.5793 368.28 44.0731C368.785 43.567 369.186 42.966 369.459 42.3047C369.733 41.6433 369.873 40.9345 369.873 40.2186C369.873 39.5028 369.733 38.794 369.459 38.1326C369.186 37.4713 368.785 36.8703 368.28 36.3642C367.774 35.858 367.174 35.4565 366.514 35.1825C365.854 34.9086 365.146 34.7676 364.431 34.7676C362.988 34.7676 361.604 35.3419 360.583 36.3642C359.563 37.3864 358.989 38.7729 358.989 40.2186C358.989 41.6644 359.563 43.0509 360.583 44.0731C361.604 45.0954 362.988 45.6697 364.431 45.6697Z" stroke="#0500FF" stroke-width="0.611455" stroke-miterlimit="10"/>
<path d="M135.835 271.923C137.278 271.923 138.662 271.348 139.683 270.326C140.703 269.304 141.277 267.917 141.277 266.472C141.277 265.026 140.703 263.639 139.683 262.617C138.662 261.595 137.278 261.021 135.835 261.021C134.391 261.021 133.007 261.595 131.987 262.617C130.966 263.639 130.393 265.026 130.393 266.472C130.393 267.917 130.966 269.304 131.987 270.326C133.007 271.348 134.391 271.923 135.835 271.923Z" fill="#2D9FFF"/>
<path d="M135.845 261.021C135.13 261.021 134.422 261.162 133.763 261.436C133.103 261.711 132.503 262.113 131.999 262.62C131.046 263.576 131.999 266.066 134.128 268.199C136.257 270.331 138.743 271.279 139.697 270.331C140.203 269.826 140.605 269.226 140.879 268.565C141.153 267.904 141.294 267.195 141.294 266.479C141.293 265.034 140.719 263.648 139.699 262.626C138.678 261.604 137.295 261.029 135.852 261.028L135.845 261.021Z" fill="#48FF91"/>
<path d="M135.835 271.923C137.278 271.923 138.662 271.348 139.683 270.326C140.703 269.304 141.277 267.917 141.277 266.472C141.277 265.026 140.703 263.639 139.683 262.617C138.662 261.595 137.278 261.021 135.835 261.021C134.391 261.021 133.007 261.595 131.987 262.617C130.966 263.639 130.393 265.026 130.393 266.472C130.393 267.917 130.966 269.304 131.987 270.326C133.007 271.348 134.391 271.923 135.835 271.923Z" stroke="#0500FF" stroke-width="0.611455" stroke-miterlimit="10"/>
<path d="M429.065 128.653C437.375 131.843 438.749 139.921 432.147 146.685C425.545 153.449 413.446 156.345 405.144 153.146C396.842 149.956 395.459 141.878 402.069 135.114C408.679 128.35 420.763 125.454 429.073 128.644L429.065 128.653Z" fill="#48FF8E"/>
<path d="M435.988 135.383L438.681 144.63C439.697 148.107 438.474 152.221 434.843 155.937C428.233 162.702 416.142 165.598 407.84 162.399C404.098 160.959 401.762 158.532 400.928 155.675L398.235 146.428C399.069 149.285 401.405 151.712 405.146 153.152C413.457 156.344 425.548 153.455 432.15 146.69C435.781 142.974 436.996 138.868 435.988 135.383ZM417.373 166.952L420.067 176.199C420.852 178.881 419.915 182.056 417.135 184.905L414.442 175.658C417.23 172.809 418.159 169.634 417.373 166.952Z" fill="#48FF8E" stroke="#0500FF" stroke-width="0.764319" stroke-linecap="round" stroke-linejoin="round"/>
<path d="M412.059 161.774C418.431 164.226 419.504 170.473 414.436 175.661L405.458 184.852L359.967 167.361L368.945 158.17C374.014 152.981 383.372 150.738 389.744 153.188L412.068 161.767L412.059 161.774Z" fill="#48FF8E"/>
<path d="M414.435 175.659L417.128 184.906L408.15 194.097L405.457 184.85L414.435 175.659Z" fill="#48FF8E" stroke="#0500FF" stroke-width="0.764319" stroke-linecap="round" stroke-linejoin="round"/>
<path d="M405.458 184.847L408.151 194.094L362.661 176.603L359.967 167.356L405.458 184.847Z" fill="#1B1B1C" stroke="#0500FF" stroke-width="0.764319" stroke-linecap="round" stroke-linejoin="round"/>
<path d="M389.744 153.198C383.372 150.746 374.014 152.991 368.945 158.179L359.967 167.371L361.484 167.952L392.072 154.097L389.744 153.198ZM429.073 128.653C420.771 125.462 408.679 128.35 402.068 135.122C396.977 140.334 396.626 146.327 400.536 150.258L435.611 134.375C434.562 131.963 432.361 129.926 429.064 128.661L429.073 128.653Z" fill="#2D9FFF"/>
<path d="M429.064 128.653C437.375 131.843 438.749 139.921 432.147 146.685C425.544 153.449 413.446 156.345 405.144 153.146C396.842 149.956 395.459 141.878 402.068 135.114C408.679 128.35 420.762 125.454 429.073 128.644L429.064 128.653ZM412.059 161.775C418.431 164.226 419.504 170.473 414.436 175.661L405.458 184.853L359.967 167.361L368.945 158.17C374.014 152.982 383.372 150.738 389.744 153.189L412.068 161.767L412.059 161.775Z" stroke="#0500FF" stroke-width="0.764319" stroke-linecap="round" stroke-linejoin="round"/>
<path d="M35.2961 159.001C40.5471 156.55 42.4933 158.858 39.649 164.157C36.8047 169.457 30.2506 175.744 24.9997 178.196C19.7487 180.646 17.8025 178.339 20.6456 173.03C23.4899 167.731 30.0439 161.453 35.2877 159.001H35.2961Z" fill="#48FF8E" stroke="#0500FF" stroke-width="0.764319" stroke-linecap="round" stroke-linejoin="round"/>
<path d="M40.4428 158.595L46.5363 164.873C47.4103 165.772 47.2193 167.713 45.7578 170.435C42.9136 175.735 36.3595 182.021 31.1073 184.473C28.5664 185.659 26.7943 185.73 25.9675 184.879L19.8752 178.6C20.7008 179.452 22.4644 179.379 25.015 178.194C30.266 175.743 36.82 169.457 39.6643 164.157C41.127 161.427 41.3167 159.493 40.4428 158.595Z" fill="#48FF8E"/>
<path d="M32.7674 172.671C30.2325 175.026 27.4765 177.039 24.9972 178.193C24.4412 178.448 23.9335 178.646 23.456 178.798L29.5496 185.077C30.0752 184.907 30.5899 184.705 31.0908 184.471C33.5688 183.318 36.326 181.304 38.8609 178.949L32.7674 172.671Z" fill="#1B1B1C"/>
<path d="M40.4428 158.595L46.5363 164.873C47.4103 165.772 47.2193 167.713 45.7578 170.435C42.9136 175.735 36.3595 182.021 31.1073 184.473C28.5664 185.659 26.7943 185.73 25.9675 184.879L19.8752 178.6C20.7008 179.452 22.4644 179.379 25.015 178.194C30.266 175.743 36.82 169.457 39.6643 164.157C41.127 161.427 41.3167 159.493 40.4428 158.595Z" stroke="#0500FF" stroke-width="0.764319" stroke-linecap="round" stroke-linejoin="round"/>
<path d="M30.2383 178.29C34.266 176.412 35.7746 178.194 33.5903 182.26L29.7294 189.462L0.994057 202.886L4.85494 195.686C7.03197 191.619 12.1077 186.756 16.1366 184.878L30.2383 178.29Z" fill="#48FF8E"/>
<path d="M40.2905 184.266L34.1969 177.988C34.8714 178.68 34.7288 180.176 33.601 182.27L29.7401 189.47L35.8324 195.75L39.6945 188.548C40.8139 186.455 40.9577 184.967 40.2905 184.266Z" fill="#48FF8E" stroke="#0500FF" stroke-width="0.764319" stroke-linecap="round" stroke-linejoin="round"/>
<path d="M29.7295 189.468L35.823 195.747L7.0876 209.171L0.995293 202.893L29.7295 189.468Z" fill="#1B1B1C" stroke="#0500FF" stroke-width="0.764319" stroke-linecap="round" stroke-linejoin="round"/>
<path d="M9.19329 190.067C7.40549 191.874 5.8401 193.856 4.85494 195.685L0.994057 202.887L18.2181 194.843L9.18483 190.076L9.19329 190.067Z" fill="#2D9FFF"/>
<path d="M30.2383 178.29C34.266 176.412 35.7746 178.194 33.5903 182.26L29.7294 189.462L0.994057 202.886L4.85494 195.686C7.03197 191.619 12.1077 186.756 16.1366 184.878L30.2383 178.29Z" stroke="#0500FF" stroke-width="0.764319" stroke-linecap="round" stroke-linejoin="round"/>
</g>
<defs>
<radialGradient id="paint0_radial_0_481" cx="0" cy="0" r="1" gradientUnits="userSpaceOnUse" gradientTransform="translate(163.373 119.046) scale(233.871 234.262)">
<stop offset="0.6" stop-color="#0500FF" stop-opacity="0"/>
<stop offset="0.61" stop-color="#0500FF" stop-opacity="0.05"/>
<stop offset="0.64" stop-color="#0500FF" stop-opacity="0.17"/>
<stop offset="0.68" stop-color="#0500FF" stop-opacity="0.37"/>
<stop offset="0.73" stop-color="#0500FF" stop-opacity="0.64"/>
<stop offset="0.78" stop-color="#0500FF"/>
<stop offset="0.8" stop-color="#0500FF" stop-opacity="0.96"/>
<stop offset="0.83" stop-color="#0500FF" stop-opacity="0.84"/>
<stop offset="0.88" stop-color="#0500FF" stop-opacity="0.65"/>
<stop offset="0.93" stop-color="#0500FF" stop-opacity="0.38"/>
<stop offset="0.99" stop-color="#0500FF" stop-opacity="0.05"/>
<stop offset="1" stop-color="#0500FF" stop-opacity="0"/>
</radialGradient>
</defs>
</svg>
