<svg width="592" height="614" viewBox="0 0 592 614" fill="none" xmlns="http://www.w3.org/2000/svg">
<path d="M360.715 593.289C355.937 602.357 344.009 607.351 334.185 604.391L13.8708 507.953C4.06162 504.995 -0.0599008 495.169 4.70358 486.103L225.909 66.2572C230.685 57.1895 242.615 52.1951 252.437 55.1553L572.751 151.593C582.561 154.551 586.682 164.377 581.919 173.443L360.715 593.289Z" fill="#1B1B1C" stroke="#0500FF" stroke-width="1.37732" stroke-linecap="round" stroke-linejoin="round"/>
<path d="M408.508 502.597H5.77808C7.68397 505.018 10.4117 506.925 13.8787 507.965L334.193 604.403C344.002 607.364 355.945 602.357 360.721 593.301L408.508 502.609V502.597Z" fill="url(#paint0_linear_0_399)" stroke="#0500FF" stroke-width="1.37732" stroke-miterlimit="10"/>
<path d="M402.018 514.901L361.15 502.594L478.489 279.892L519.359 292.187" stroke="#0500FF" stroke-width="1.37732" stroke-linecap="round" stroke-linejoin="round"/>
<path d="M392.021 533.875L288.134 502.596L429.717 233.874L533.617 265.156" stroke="#0500FF" stroke-width="1.37732" stroke-linecap="round" stroke-linejoin="round"/>
<path d="M382.017 552.85L215.098 502.597L380.928 187.857L547.857 238.11" stroke="#0500FF" stroke-width="1.37732" stroke-linecap="round" stroke-linejoin="round"/>
<path d="M372.033 571.824L142.072 502.596L332.159 141.836L562.107 211.064" stroke="#0500FF" stroke-width="1.37732" stroke-linecap="round" stroke-linejoin="round"/>
<path d="M362.029 590.798L69.0517 502.597L283.371 95.8165L576.348 184.018M510.237 309.698L240.31 55.1777M55.3433 390.005L433.771 454.612M459.26 406.253L115.145 276.512M524.604 282.22L355.415 86.1772M547.388 238.961L472.803 121.515M174.932 163.035L484.781 357.917M381.053 554.642L241.284 576.436M124.932 541.398L397.539 523.465" stroke="#0500FF" stroke-width="1.37732" stroke-linecap="round" stroke-linejoin="round"/>
<path d="M467.397 216.45L469.615 215.477L468.639 213.26L466.421 214.234L467.397 216.45ZM153 371.877L155.86 370.621L154.604 367.761L151.741 369.019L153 371.877ZM260.969 260.154L262.318 260.933L263.095 259.585L261.746 258.806L260.969 260.154ZM324.303 271.445L325.287 272.015L325.854 271.031L324.87 270.465L324.303 271.445ZM392.498 336.549L393.48 337.119L394.049 336.135L393.065 335.569L392.498 336.549ZM301.178 254.076L302.162 254.643L302.729 253.662L301.745 253.093L301.178 254.076ZM351.315 340.578L352.299 341.144L352.867 340.164L351.885 339.594L351.315 340.578ZM371.791 348.772L372.772 349.339L373.342 348.355L372.358 347.789L371.791 348.772ZM288.955 210.138L290.304 210.914L291.081 209.566L289.735 208.79L288.955 210.138ZM312.546 199.151L313.53 199.717L314.097 198.734L313.113 198.167L312.546 199.151ZM259.715 168.181L260.699 168.748L261.266 167.767L260.285 167.198L259.715 168.181ZM305.991 236.797L306.975 237.363L307.542 236.383L306.558 235.813L305.991 236.797ZM234.252 195.881L235.236 196.448L235.803 195.464L234.819 194.898L234.252 195.881ZM225.084 445.931L226.069 446.498L226.636 445.514L225.654 444.948L225.084 445.931ZM401.383 385.14L402.367 385.709L402.934 384.726L401.953 384.159L401.383 385.14ZM269.215 453.127L270.199 453.694L270.766 452.71L269.782 452.144L269.215 453.127ZM464.864 200.102L465.849 200.668L466.416 199.687L465.434 199.118L464.864 200.102ZM457.014 305.725L457.998 306.294L458.565 305.31L457.581 304.744L457.014 305.725ZM284.592 314.448L286.555 315.037L287.142 313.075L285.181 312.489L284.592 314.448ZM236.667 476.042L238.628 476.629L239.217 474.669L237.254 474.08L236.667 476.042ZM439.236 384.242L441.199 384.831L441.789 382.869L439.826 382.28L439.236 384.242ZM312.805 244.192L314.769 244.781L315.356 242.82L313.395 242.231L312.805 244.192ZM396.962 344.656L398.923 345.245L399.512 343.283L397.549 342.697L396.962 344.656ZM326.821 279.51L328.784 280.099L329.374 278.14L327.411 277.551L326.821 279.51ZM323.264 355.821L325.225 356.41L325.814 354.45L323.851 353.861L323.264 355.821ZM139.609 345.565L141.572 346.154L142.159 344.192L140.199 343.603L139.609 345.565ZM473.147 373.447L475.108 374.036L475.698 372.074L473.734 371.488L473.147 373.447ZM466.718 342.22L468.681 342.807L469.271 340.847L467.307 340.258L466.718 342.22Z" fill="#2D9FFF"/>
<path d="M399.873 208.897L459.297 264.309C460.434 265.363 462.622 266.229 464.178 266.229H487.336C489.337 266.229 492.1 267.422 493.481 268.872L518.03 294.795" stroke="#48FF91" stroke-width="1.37732" stroke-linecap="round" stroke-linejoin="round"/>
<path d="M421.215 162.867H347.367V236.657H421.215V162.867Z" fill="#F4F4F7"/>
<path d="M347.367 236.657L376.203 257.503L376.26 189.631L347.367 162.867V236.657Z" fill="#48FF91" stroke="#0500FF" stroke-width="1.37732" stroke-linecap="round" stroke-linejoin="round"/>
<path d="M347.367 162.867H421.215L444.36 189.631H376.26L347.367 162.867Z" fill="#48FF91" stroke="#0500FF" stroke-width="1.37732" stroke-linecap="round" stroke-linejoin="round"/>
<path d="M430.646 212.616C424.336 194.147 405.967 177.374 389.626 175.15C373.282 172.916 365.146 186.075 371.469 204.545C377.778 223.005 396.145 239.78 412.489 242.014C428.833 244.235 436.968 231.089 430.646 212.616Z" fill="url(#paint1_linear_0_399)"/>
<path d="M408.335 185.71C403.044 181.886 397.332 179.288 391.876 178.539C377.558 176.587 370.429 188.121 375.955 204.297C376.797 206.745 377.847 209.116 379.092 211.386L408.335 185.7V185.71Z" fill="#0500FF"/>
<path d="M427.267 238.397L423.627 241.601C420.128 244.679 415.082 246.069 408.852 245.215C392.509 242.982 374.142 226.221 367.832 207.749C363.933 196.333 365.549 186.938 371.214 181.966L374.856 178.761C369.188 183.746 367.575 193.125 371.472 204.544C377.784 223.002 396.151 239.777 412.494 242.011C418.734 242.867 423.78 241.474 427.267 238.397Z" fill="#48FF91"/>
<path d="M390.612 231.45L386.97 234.655C393.829 240.318 401.533 244.225 408.839 245.218C415.079 246.072 420.125 244.681 423.612 241.604L427.254 238.399C423.754 241.477 418.708 242.867 412.479 242.013C405.175 241.02 397.471 237.111 390.612 231.45ZM382.744 223.743C381.358 222.134 380.049 220.46 378.822 218.726L375.18 221.931C376.402 223.668 377.711 225.343 379.102 226.948L382.744 223.743Z" fill="#0500FF"/>
<path d="M427.267 238.397L423.627 241.601C420.128 244.679 415.082 246.069 408.852 245.215C392.509 242.982 374.142 226.221 367.832 207.749C363.933 196.333 365.549 186.938 371.214 181.966L374.856 178.761C369.188 183.746 367.575 193.125 371.472 204.544C377.784 223.002 396.151 239.777 412.494 242.011C418.734 242.867 423.78 241.474 427.267 238.397Z" stroke="#0500FF" stroke-width="1.37732" stroke-linecap="round" stroke-linejoin="round"/>
<path d="M430.646 212.616C424.336 194.147 405.967 177.374 389.626 175.15C373.282 172.916 365.146 186.075 371.469 204.545C377.778 223.005 396.145 239.78 412.489 242.014C428.833 244.235 436.968 231.089 430.646 212.616Z" stroke="#0500FF" stroke-width="1.37732" stroke-linecap="round" stroke-linejoin="round"/>
<path d="M444.295 257.503L421.207 236.657H347.302L376.195 257.503H444.295Z" fill="#2D9FFF" stroke="#0500FF" stroke-width="1.37732" stroke-linecap="round" stroke-linejoin="round"/>
<path d="M421.212 236.657L444.297 257.503L444.357 189.631L421.212 162.867V236.657Z" fill="#0500FF" stroke="#0500FF" stroke-width="1.37732" stroke-linecap="round" stroke-linejoin="round"/>
<path d="M416.223 306.154L444.484 324.741C446.297 325.934 447.784 328.695 447.784 330.871V334.662C447.784 336.836 449.307 339.552 451.156 340.685L483.291 360.42" stroke="#48FF91" stroke-width="1.37732" stroke-linecap="round" stroke-linejoin="round"/>
<path d="M428.469 319.932L439.649 327.057V296.877L428.469 288.523V319.932Z" fill="#0500FF" stroke="#0500FF" stroke-width="1.37732" stroke-linecap="round" stroke-linejoin="round"/>
<path d="M397.058 319.934L409.455 327.057H439.659L428.479 319.934H397.058Z" fill="#2D9FFF" stroke="#0500FF" stroke-width="1.37732" stroke-linecap="round" stroke-linejoin="round"/>
<path d="M428.479 288.523H397.058V319.922H428.479V288.523Z" fill="#48FF91" stroke="#0500FF" stroke-width="1.37732" stroke-linecap="round" stroke-linejoin="round"/>
<path d="M461.688 401.481L368.707 363.134C365.312 361.776 362.527 357.67 362.527 354.021V317.021C362.527 313.36 359.882 308.972 356.637 307.277L219.748 235.135M443.571 441.558L246.575 402.784C244.707 402.417 243.024 401.413 241.815 399.944C240.606 398.475 239.945 396.632 239.945 394.73V375.591C239.945 373.821 239.373 372.099 238.314 370.681C237.255 369.263 235.766 368.225 234.068 367.721L177.815 351.041" stroke="#48FF91" stroke-width="1.37732" stroke-linecap="round" stroke-linejoin="round"/>
<path d="M323.259 175.045C323.259 171.066 320.864 165.615 317.939 162.925L144.685 3.86876C139.879 -0.541561 135.947 1.17814 135.947 7.69752V221.659C135.947 226.828 139.572 233.215 144.008 235.866L317.042 328.884C320.459 330.924 323.247 329.339 323.247 325.373V175.032L323.259 175.045Z" fill="#2D9FFF"/>
<path d="M196.129 53.6152L139.022 148.833V223.761C139.022 226.658 141.051 230.233 143.534 231.718L152.911 237.331L229.653 84.4001L196.129 53.6152Z" fill="#0500FF"/>
<path d="M141.093 201.607L323.234 318.681M252.844 129.784V132.242" stroke="#0500FF" stroke-width="1.44486" stroke-linecap="round" stroke-linejoin="round"/>
<path d="M252.844 141.807V266.199" stroke="#0500FF" stroke-width="1.44486" stroke-linecap="round" stroke-linejoin="round" stroke-dasharray="2.88 8.66"/>
<path d="M256.138 129.092C256.535 131.001 256.465 132.786 256.06 134.121C255.651 135.482 254.951 136.223 254.197 136.38C253.442 136.535 252.506 136.131 251.589 135.045C250.687 133.982 249.915 132.369 249.521 130.462C249.124 128.553 249.196 126.768 249.596 125.433C250.008 124.073 250.707 123.331 251.462 123.174C252.218 123.019 253.153 123.424 254.072 124.509C254.971 125.573 255.743 127.185 256.138 129.092Z" fill="#48FF91" stroke="#48FF91" stroke-width="1.44486"/>
<path d="M139.022 171.289C157.407 183.544 154.754 127.34 167.019 137.139C179.283 146.938 177.44 211.453 193.279 222.887C209.121 234.318 212.378 182.093 226.364 179.418C240.349 176.74 240.851 118.767 253.388 128.972C265.923 139.176 264.559 227.198 276.122 237.99C287.687 248.785 293.082 213.492 301.77 220.835C310.458 228.178 307.645 241.859 316.223 248.785L323.264 254.471" stroke="#48FF91" stroke-width="1.44486" stroke-linecap="round" stroke-linejoin="round"/>
<path d="M191.526 308.944H86.4395V413.948H191.526V308.944Z" fill="#1B1B1C"/>
<path d="M32.7177 278.823L86.4398 308.944H191.526L147.733 278.823H32.7177ZM32.7177 393.751L86.4398 403.098V308.944L32.7177 278.823V393.751Z" fill="#FFAEFE"/>
<path d="M32.7177 278.823L86.4398 308.944M32.7177 278.823H147.733L191.526 308.944H86.4398M32.7177 278.823V393.751L86.4398 403.098V308.944" stroke="#0500FF" stroke-width="1.38025" stroke-linecap="round" stroke-linejoin="round"/>
<path d="M124.743 404.386C154.115 404.386 177.925 380.593 177.925 351.246C177.925 321.896 154.115 298.102 124.743 298.102C95.3674 298.102 71.5601 321.896 71.5601 351.246C71.5601 380.593 95.3724 404.386 124.743 404.386Z" fill="url(#paint2_radial_0_399)" stroke="#0500FF" stroke-width="1.38025" stroke-linecap="round" stroke-linejoin="round"/>
<path d="M166.217 384.516C161.146 390.803 138.492 380.987 115.617 362.574C92.7386 344.159 78.3033 324.139 83.374 317.852M176.7 359.709C172.331 365.128 152.835 356.671 133.139 340.827C113.444 324.983 101.027 307.741 105.393 302.335M144.335 399.881C139.969 405.3 120.473 396.844 100.777 380.999C81.0809 365.155 68.6639 347.913 73.0302 342.507" stroke="#0500FF" stroke-width="1.38025" stroke-linecap="round" stroke-linejoin="round"/>
<path d="M158.028 325.113C156.949 335.798 152.183 349.331 144.143 362.749C129.06 387.943 108.166 403.178 97.4846 396.786M90.7053 391.977C89.0392 390.594 102.96 371.193 121.787 348.665C132.198 336.198 141.94 325.383 148.841 318.451M84.3956 385.752C74.2292 373.894 84.0784 348.795 106.392 329.701C117.955 319.814 130.584 313.467 141.487 311.311" stroke="#0500FF" stroke-width="1.38025" stroke-linecap="round" stroke-linejoin="round"/>
<path d="M166.308 328.795C169.348 339.387 169.288 351.712 165.426 363.957C156.611 391.954 131.27 408.924 108.826 401.876M79.8682 379.627C66.2047 358.094 75.2446 327.894 100.056 312.177C111.679 304.811 124.705 301.938 136.678 303.181" stroke="#0500FF" stroke-width="1.38025" stroke-linecap="round" stroke-linejoin="round"/>
<path d="M176.718 359.689C172.339 365.12 152.831 356.664 133.147 340.82C113.452 324.973 101.032 307.734 105.411 302.302M170.995 328.617C173.076 326.036 167.169 317.827 157.799 310.287C148.43 302.744 139.145 298.726 137.062 301.309C134.981 303.892 140.888 312.099 150.258 319.639C159.63 327.182 168.912 331.2 170.995 328.617Z" stroke="#0500FF" stroke-width="1.38025" stroke-linecap="round" stroke-linejoin="round"/>
<path d="M147.745 393.751L192.032 404.162V299.158L147.745 278.823V393.751Z" fill="#0500FF" stroke="#0500FF" stroke-width="1.38025" stroke-linecap="round" stroke-linejoin="round"/>
<path d="M32.7177 393.751L86.6721 404.162H191.758L147.733 393.751H32.7177Z" fill="#2D9FFF" stroke="#0500FF" stroke-width="1.38025" stroke-linecap="round" stroke-linejoin="round"/>
<path d="M147.733 278.823H32.7177V393.751H147.733V278.823Z" stroke="#0500FF" stroke-width="1.38025" stroke-linecap="round" stroke-linejoin="round"/>
<path d="M34.6312 336.28H147.736L191.541 361.452" stroke="#F4F4F7" stroke-width="1.38025" stroke-linecap="round" stroke-linejoin="round"/>
<path d="M90.2243 365.932C106.61 365.932 119.897 352.658 119.897 336.283C119.897 319.907 106.61 306.633 90.2218 306.633C73.8356 306.633 60.5493 319.907 60.5493 336.283C60.5493 352.658 73.8356 365.932 90.2243 365.932Z" fill="#F4F4F7" stroke="#F4F4F7" stroke-width="1.38025" stroke-linecap="round" stroke-linejoin="round"/>
<path d="M136.742 547.995L278.782 536.708C282.437 536.414 285.409 533.187 285.409 529.538V482.22C285.399 481.364 285.568 480.516 285.903 479.728C286.239 478.941 286.735 478.232 287.359 477.646C287.983 477.06 288.722 476.609 289.529 476.323C290.336 476.038 291.194 475.922 292.048 475.985L418.294 483.927" stroke="#48FF91" stroke-width="1.37732" stroke-linecap="round" stroke-linejoin="round"/>
<path d="M372.347 460.517H315.406V517.417H372.347V460.517Z" fill="#2D9FFF" stroke="#0500FF" stroke-width="1.37732" stroke-linecap="round" stroke-linejoin="round"/>
<path d="M337.457 490.826H330.83V501.344H337.457V490.826ZM347.119 476.579H340.492V501.344H347.119V476.579ZM356.886 483.832H350.261V501.344H356.886V483.832Z" fill="#0500FF"/>
<path d="M392.312 463.385L372.341 460.517V517.417L392.312 516.925V463.385Z" fill="#0500FF" stroke="#0500FF" stroke-width="1.37732" stroke-linecap="round" stroke-linejoin="round"/>
<path d="M587.259 164.857H587.282L580.762 156.807H580.75C584.357 161.275 585.058 167.522 581.934 173.455L360.73 593.299C355.952 602.364 344.025 607.361 334.2 604.401L13.8859 507.963C10.5037 506.947 7.81101 505.097 5.91512 502.746H5.89014L12.4096 510.806H12.4346C14.333 513.134 17.0232 514.981 20.4079 516L340.722 612.438C350.532 615.395 362.474 610.388 367.25 601.336L588.453 181.489C591.58 175.559 590.876 169.299 587.272 164.854L587.259 164.857Z" fill="#F4F4F7"/>
<path d="M357.086 610.82C359.747 609.551 362.146 607.794 364.157 605.639L357.638 597.602C355.625 599.756 353.227 601.514 350.566 602.786L357.086 610.82ZM539.142 275.059L577.752 201.796L573.925 188.638L535.315 261.911L539.142 275.059Z" fill="#FFAEFE"/>
<path d="M530.26 281.729C529.336 283.471 529.606 286.161 530.845 287.694L531.841 288.922L551.205 252.167L550.208 250.939C548.967 249.406 547.201 249.581 546.277 251.326L530.26 281.729Z" stroke="#0500FF" stroke-width="1.37732" stroke-linecap="round" stroke-linejoin="round"/>
<path d="M347.151 604.141C342.925 605.464 338.371 605.663 334.192 604.401L13.8776 507.963C10.493 506.944 7.80027 505.097 5.90437 502.746H5.87939L12.4014 510.805H12.4264C14.3223 513.134 17.015 514.981 20.3971 516L340.712 612.435C344.891 613.688 349.444 613.501 353.671 612.178L347.151 604.141Z" fill="#1B1B1C"/>
<path d="M587.259 164.857H587.282L580.762 156.807H580.75C584.357 161.275 585.058 167.522 581.934 173.455L360.73 593.299C355.952 602.364 344.025 607.361 334.2 604.401L13.8859 507.963C10.5037 506.947 7.81101 505.097 5.91512 502.746H5.89014L12.4096 510.806H12.4346C14.333 513.134 17.0232 514.981 20.4079 516L340.722 612.438C350.532 615.395 362.474 610.388 367.25 601.336L588.453 181.489C591.58 175.559 590.876 169.299 587.272 164.854L587.259 164.857Z" stroke="#0500FF" stroke-width="1.37732" stroke-linecap="round" stroke-linejoin="round"/>
<path d="M228.457 488.232H118.997V597.607H228.455L228.457 488.232Z" fill="#48FF91"/>
<path d="M165.695 488.232H119V597.607L165.698 590.658L165.695 488.232Z" fill="#48FF91" stroke="#0500FF" stroke-width="1.37732" stroke-linecap="round" stroke-linejoin="round"/>
<path d="M118.997 597.604L165.695 590.656H268.261L228.457 597.604H118.997Z" fill="#48FF91" stroke="#0500FF" stroke-width="1.37732" stroke-linecap="round" stroke-linejoin="round"/>
<path d="M211.679 579.239C228.42 573.391 240.864 565.437 239.48 561.47L216.35 495.391L155.731 516.574L178.862 582.656C180.246 586.622 194.948 585.09 211.679 579.239Z" fill="url(#paint3_linear_0_399)" stroke="#0500FF" stroke-width="1.37732" stroke-linecap="round" stroke-linejoin="round"/>
<path d="M166.952 512.643L159.401 515.286L183.73 584.795C185.929 584.96 188.751 584.795 192.028 584.303L166.952 512.643Z" fill="#0500FF"/>
<path d="M231.759 539.442C233.14 543.408 220.693 551.35 203.955 557.21C187.214 563.061 172.522 564.593 171.14 560.627M224.043 517.415C225.424 521.381 212.977 529.323 196.239 535.184C179.498 541.034 164.806 542.564 163.424 538.601" stroke="#0500FF" stroke-width="1.37732" stroke-linecap="round" stroke-linejoin="round"/>
<path d="M188.566 513.097C205.307 507.247 217.754 499.295 216.367 495.336C214.983 491.377 200.288 492.912 183.547 498.765C166.809 504.616 154.36 512.568 155.746 516.526C157.132 520.483 171.822 518.948 188.566 513.097Z" fill="#48FF91" stroke="#0500FF" stroke-width="1.37732" stroke-linecap="round" stroke-linejoin="round"/>
<path d="M188.555 513.149C205.296 507.299 217.741 499.344 216.357 495.378C215.47 492.852 209.161 492.56 200.356 494.21L185.443 514.19C186.472 513.86 187.514 513.511 188.555 513.137V513.149Z" fill="#0500FF"/>
<path d="M268.263 489.156L228.459 488.232V597.607L268.263 590.658V489.156Z" fill="#0500FF" stroke="#0500FF" stroke-width="1.37732" stroke-linecap="round" stroke-linejoin="round"/>
<defs>
<linearGradient id="paint0_linear_0_399" x1="207.135" y1="624.091" x2="207.135" y2="503.031" gradientUnits="userSpaceOnUse">
<stop stop-color="#0500FF"/>
<stop offset="0.34" stop-color="#1540FF"/>
<stop offset="0.64" stop-color="#2273FF"/>
<stop offset="0.87" stop-color="#2A93FF"/>
<stop offset="1" stop-color="#2D9FFF"/>
</linearGradient>
<linearGradient id="paint1_linear_0_399" x1="380.411" y1="209.529" x2="413.683" y2="207.994" gradientUnits="userSpaceOnUse">
<stop stop-color="#47FD92"/>
<stop offset="0.22" stop-color="#3EDBB9"/>
<stop offset="0.42" stop-color="#36C1D7"/>
<stop offset="0.63" stop-color="#31AEED"/>
<stop offset="0.82" stop-color="#2EA2FA"/>
<stop offset="1" stop-color="#2D9FFF"/>
</linearGradient>
<radialGradient id="paint2_radial_0_399" cx="0" cy="0" r="1" gradientUnits="userSpaceOnUse" gradientTransform="translate(111.856 338.741) scale(53.1951 53.1534)">
<stop offset="0.62" stop-color="#FFAEFE"/>
<stop offset="0.68" stop-color="#FFB0F8"/>
<stop offset="0.74" stop-color="#FFB7E9"/>
<stop offset="0.81" stop-color="#FFC2D0"/>
<stop offset="0.88" stop-color="#FFD2AD"/>
<stop offset="0.96" stop-color="#FFE781"/>
<stop offset="1" stop-color="#FFF465"/>
</radialGradient>
<linearGradient id="paint3_linear_0_399" x1="222.555" y1="529.722" x2="197.121" y2="541.928" gradientUnits="userSpaceOnUse">
<stop stop-color="#47FD92"/>
<stop offset="0.22" stop-color="#3EDBB9"/>
<stop offset="0.42" stop-color="#36C1D7"/>
<stop offset="0.63" stop-color="#31AEED"/>
<stop offset="0.82" stop-color="#2EA2FA"/>
<stop offset="1" stop-color="#2D9FFF"/>
</linearGradient>
</defs>
</svg>
