<svg width="717" height="473" viewBox="0 0 717 473" fill="none" xmlns="http://www.w3.org/2000/svg">
<path d="M706.241 207.065H497.251L445.58 192.311L269.05 15.7805C266.599 13.3408 263.281 11.9712 259.823 11.9712C256.365 11.9712 253.047 13.3408 250.596 15.7805L7.62608 258.745C5.18738 261.195 3.81836 264.512 3.81836 267.97C3.81836 271.427 5.18738 274.744 7.62608 277.195L184.156 453.731L234.872 469.456H443.859C451.032 469.456 461.051 465.309 466.129 460.231L710.057 216.302C715.135 211.225 713.414 207.074 706.241 207.074V207.065Z" fill="#2D9FFF" stroke="#0500FF" stroke-width="1.97793" stroke-linecap="round" stroke-linejoin="round"/>
<path d="M271.546 11.2033L448.073 187.734L186.652 449.154L10.122 272.624C7.67591 270.178 6.30176 266.86 6.30176 263.4C6.30176 259.941 7.67591 256.623 10.122 254.177L253.098 11.2033C255.545 8.75721 258.863 7.38306 262.322 7.38306C265.782 7.38306 269.099 8.75721 271.546 11.2033ZM497.225 201.718H704.716C711.889 201.718 713.61 205.866 708.536 210.943L464.604 454.872C459.526 459.949 449.507 464.097 442.334 464.097H234.843L497.225 201.718Z" fill="#1B1B1C" stroke="#0500FF" stroke-width="1.97793" stroke-linecap="round" stroke-linejoin="round"/>
<path d="M186.681 449.182L234.862 464.112L497.244 201.715L448.104 187.743L186.681 449.182Z" fill="#1B1B1C" stroke="#0500FF" stroke-width="1.97793" stroke-linecap="round" stroke-linejoin="round"/>
<path d="M222.687 430.642L467.919 185.409L287.597 5.08691L26.6953 265.973L192.162 431.436C196.461 429.325 207.515 425.357 222.687 430.63V430.642Z" fill="#2D9FFF" stroke="#0500FF" stroke-width="1.97793" stroke-linecap="round" stroke-linejoin="round"/>
<path d="M287.616 5.06519L42.3682 250.31C95.386 301.968 186.671 358.97 222.691 430.636L467.923 185.403C431.903 113.737 340.619 56.7355 287.601 5.08064L287.616 5.06519Z" fill="#48FF91" stroke="#0500FF" stroke-width="1.97793" stroke-linecap="round" stroke-linejoin="round"/>
<path d="M303.47 19.7668L58.2373 264.999C112.049 312.791 190.063 365.692 222.699 430.63L467.932 185.397C435.296 120.459 357.282 67.5586 303.47 19.7668Z" fill="#0500FF"/>
<path d="M303.005 2.52148L57.7725 247.754C113.352 304.039 186.678 358.976 222.701 430.638L467.934 185.406C431.914 113.743 347.907 52.5322 303.005 2.52148Z" fill="url(#paint0_linear_0_3082)" stroke="#0500FF" stroke-width="1.97793" stroke-miterlimit="10"/>
<path d="M342.015 41.5115L255.119 50.5574C256.735 53.4934 295.617 123.525 312.615 187.761C333.238 265.673 338.869 314.481 338.869 314.481L467.941 185.409C440.788 131.402 386.392 83.3262 342.015 41.5115Z" fill="#2D9FFF"/>
<path d="M189.295 169.555C231.53 209.336 278.333 249.877 310.295 297.502L426.304 181.494C393.507 133.881 343.423 91.3153 304.797 54.053L189.295 169.555ZM132.445 261.217C169.532 295.707 207.99 331.396 235.474 372.33L285.392 322.412C238.571 334.168 170.712 289.791 132.461 261.217H132.445Z" stroke="#0500FF" stroke-width="1.97793" stroke-linecap="round" stroke-linejoin="round"/>
<path d="M312.603 210.647C333.405 210.647 350.27 194.112 350.27 173.715C350.27 153.318 333.405 136.78 312.603 136.78C291.801 136.78 274.936 153.315 274.936 173.712C274.936 194.109 291.801 210.647 312.603 210.647Z" stroke="#0500FF" stroke-width="1.97793" stroke-linecap="round" stroke-linejoin="round"/>
<path d="M312.593 210.647C325.258 210.647 335.521 194.112 335.521 173.715C335.521 153.318 325.258 136.78 312.593 136.78C299.928 136.78 289.661 153.315 289.661 173.712C289.661 194.109 299.928 210.647 312.593 210.647Z" stroke="#0500FF" stroke-width="1.97793" stroke-linecap="round" stroke-linejoin="round"/>
<path d="M426.306 181.49C426.306 181.49 362.852 175.062 312.603 173.715C262.354 172.367 189.282 169.567 189.282 169.567" stroke="#0500FF" stroke-width="1.97793" stroke-linecap="round" stroke-linejoin="round"/>
<path d="M303.005 2.52148L57.7725 247.754C113.352 304.039 186.678 358.976 222.701 430.638L467.934 185.406C431.914 113.743 347.907 52.5322 303.005 2.52148Z" stroke="#0500FF" stroke-width="1.97793" stroke-linecap="round" stroke-linejoin="round"/>
<path d="M446.292 430.639H222.687C238.547 436.15 244.326 450.125 245.556 453.63H446.292V430.639Z" fill="#2D9FFF" stroke="#0500FF" stroke-width="1.97793" stroke-linecap="round" stroke-linejoin="round"/>
<path d="M446.302 453.626V430.636L691.534 185.388V208.381L446.302 453.626Z" fill="#F4F4F7" stroke="#0500FF" stroke-width="1.97793" stroke-linecap="round" stroke-linejoin="round"/>
<path d="M691.52 185.388H467.931L222.698 430.636H446.288L691.52 185.388Z" fill="#1B1B1C" stroke="#0500FF" stroke-width="1.97793" stroke-linecap="round" stroke-linejoin="round"/>
<path d="M255.119 50.542L342.015 41.5115L314.204 73.3376L255.119 50.542Z" fill="#F4F4F7" stroke="#0500FF" stroke-width="1.97793" stroke-linecap="round" stroke-linejoin="round"/>
<path d="M614.246 185.388L565.196 234.438H644.394M565.203 234.438L516.153 283.487H595.351M467.091 332.54L516.141 283.487H436.94L485.99 234.438M467.091 332.54H546.289M467.091 332.54H387.909M467.106 332.54L418.069 381.589M418.057 381.583L369.007 430.633M535.039 185.388L485.99 234.438M485.99 234.438H565.187M485.99 234.438H418.879M436.943 283.487L387.909 332.54M387.909 332.54L338.862 381.589M338.862 381.583L289.816 430.633M338.862 381.583H418.063M338.862 381.583H271.736M418.069 381.583H497.254M320.798 332.54H387.924M369.848 283.487H436.958" stroke="#48FF91" stroke-width="1.97793" stroke-linecap="round" stroke-linejoin="round"/>
<path d="M467.931 185.394C548.565 112.668 657.058 124.183 657.058 124.183L411.826 369.416C411.826 369.416 303.317 357.901 222.698 430.627L467.931 185.394Z" fill="#F4F4F7" stroke="#0500FF" stroke-width="1.97793" stroke-linecap="round" stroke-linejoin="round"/>
<path d="M604.354 280.316L691.519 193.151M414.84 438.381H446.292L506.471 378.202M235.003 438.384H391.148M589.053 303.338L672.082 220.32" stroke="#0500FF" stroke-width="1.97793" stroke-linecap="round" stroke-linejoin="round"/>
<path d="M293.352 446.091H446.295L564.959 327.443" stroke="#0500FF" stroke-width="1.97793" stroke-linecap="round" stroke-linejoin="round"/>
<path d="M568.851 247.368H604.797M561.125 255.119H597.071M553.389 262.839H589.348M545.645 270.566H566.506M346.074 393.287H382.036M338.333 401.013H350.927M474.856 344.803H497.263M467.115 352.529H479.708M330.606 408.764H366.549" stroke="#48FF91" stroke-width="1.97793" stroke-linecap="round" stroke-linejoin="round"/>
<defs>
<linearGradient id="paint0_linear_0_3082" x1="244.387" y1="196.835" x2="385.2" y2="337.663" gradientUnits="userSpaceOnUse">
<stop stop-color="#48FF91"/>
<stop offset="1" stop-color="#2D9FFF"/>
</linearGradient>
</defs>
</svg>
