<svg width="567" height="488" viewBox="0 0 567 488" fill="none" xmlns="http://www.w3.org/2000/svg">
<mask id="mask0_0_984" style="mask-type:luminance" maskUnits="userSpaceOnUse" x="1" y="1" width="565" height="486">
<path d="M565.765 1.375H1.13222V486.136H565.765V1.375Z" fill="white"/>
</mask>
<g mask="url(#mask0_0_984)">
<path d="M196.41 418.633C229.802 396.914 217.496 318.769 168.925 244.092C120.354 169.413 53.91 126.479 20.5185 148.197C-12.8728 169.915 -0.567275 248.059 48.0037 322.738C96.575 397.418 163.019 440.351 196.41 418.633Z" fill="#1B1B1C" stroke="#0500FF" stroke-width="1.10845" stroke-linecap="round" stroke-linejoin="round"/>
<path d="M106.349 390.633C98.7651 365.2 85.805 337.262 67.9314 309.786C50.0578 282.313 29.7749 259.133 9.59872 241.901" stroke="#0500FF" stroke-width="1.10845" stroke-linecap="round" stroke-linejoin="round"/>
<path d="M3.2883 176.921C37.9912 184.79 82.9839 222.389 118.458 276.924C153.921 331.459 170.062 387.832 163.178 422.738" stroke="#0500FF" stroke-width="1.10845" stroke-linecap="round" stroke-linejoin="round"/>
<path d="M168.927 244.086L48.0008 322.736" stroke="#0500FF" stroke-width="1.10845" stroke-linecap="round" stroke-linejoin="round"/>
<path d="M125.521 190.03L16.1787 261.145" stroke="#0500FF" stroke-width="1.10845" stroke-linecap="round" stroke-linejoin="round"/>
<path d="M79.9833 154.573L2.22227 205.143" stroke="#0500FF" stroke-width="1.10845" stroke-linecap="round" stroke-linejoin="round"/>
<path d="M200.327 304.56L90.5688 375.949" stroke="#0500FF" stroke-width="1.10845" stroke-linecap="round" stroke-linejoin="round"/>
<path d="M214.578 360.366L135.784 411.614" stroke="#0500FF" stroke-width="1.10845" stroke-linecap="round" stroke-linejoin="round"/>
<path d="M213.025 392.792L166.074 423.329" stroke="#0500FF" stroke-width="1.10845" stroke-linecap="round" stroke-linejoin="round"/>
<path d="M258.138 292.893C260.061 288.312 264.759 281.95 268.582 278.77L314.037 240.886C317.669 237.861 319.39 231.725 317.847 227.25C316.162 222.336 310.536 218.325 305.337 218.349L297.838 218.373C289.791 218.396 277.495 221.683 270.517 225.684L239.433 243.461C236.798 244.97 233.63 243.937 232.395 241.172L227.932 231.261C226.687 228.495 226.294 223.844 227.054 220.912L259.799 95.2745L276.64 62.0077L281.518 46.0329C283.333 40.0632 280.094 33.2744 274.301 30.9364C272.178 30.082 269.341 30.9008 268.001 32.7522L248.156 60.2392C240.109 71.3717 229.512 90.9782 224.597 103.808L209.905 142.154C209.146 144.124 206.794 145.786 204.683 145.833L142.956 147.281L120.976 173.558L84.1484 258.963C81.5374 265.015 78.7008 275.305 77.8344 281.833L74.986 303.266C74.1196 309.794 69.1112 318.387 63.8535 322.362L53.1721 330.432C71.1526 356.602 91.2218 378.451 111.006 394.486L138.612 374.738C143.964 370.904 153.554 366.334 159.904 364.589L185.361 357.587C191.711 355.842 201.134 351.072 206.309 346.977L240.573 319.87C245.735 315.788 252.049 307.467 254.601 301.391L258.161 292.893H258.138Z" fill="#FFAEFE" stroke="#0500FF" stroke-width="1.10845" stroke-linecap="round" stroke-linejoin="round"/>
<path d="M130.999 254.423L127.403 256.51" stroke="#0500FF" stroke-width="1.10845" stroke-linecap="round" stroke-linejoin="round"/>
<path d="M203.916 190.038L187.311 199.794C170.458 209.705 166.672 233.654 153.237 241.487L137.132 250.864" stroke="#0500FF" stroke-width="1.10845" stroke-linecap="round" stroke-linejoin="round"/>
<path d="M202.497 149.937L216.608 106.179C218.886 99.1055 215.599 91.3318 219.479 85.2196L241.152 51.0982C244.772 45.3896 248.913 35.3134 250.337 28.7146L251.845 21.7362C252.793 17.3686 250.515 11.7549 246.8 9.27444C244.343 7.63662 240.842 8.19442 239.014 10.5087L188.041 75.2503L168.268 149.178" fill="#FFAEFE"/>
<path d="M202.497 149.937L216.608 106.179C218.886 99.1055 215.599 91.3319 219.479 85.2196L241.152 51.0982C244.772 45.3896 248.913 35.3134 250.337 28.7146L251.845 21.7362C252.793 17.3686 250.515 11.7549 246.8 9.27444C244.343 7.63662 240.842 8.19442 239.014 10.5087L188.041 75.2503L168.268 149.178" stroke="#0500FF" stroke-width="1.10845" stroke-linecap="round" stroke-linejoin="round"/>
<path d="M183.825 150.079L194.874 104.896C197.105 95.7579 192.322 88.7318 196.927 81.4923L216.511 50.7295C219.714 45.6856 222.325 36.6657 222.29 30.696C222.266 26.9219 219.405 22.6374 215.916 21.1775C213.174 20.0263 209.473 21.0471 207.704 23.4324L164.337 81.5991L147.792 153.284" fill="#FFAEFE"/>
<path d="M183.825 150.079L194.874 104.896C197.105 95.7579 192.322 88.7318 196.927 81.4923L216.511 50.7295C219.714 45.6856 222.325 36.6657 222.29 30.696C222.266 26.9219 219.405 22.6374 215.916 21.1775C213.174 20.0263 209.473 21.0471 207.704 23.4324L164.337 81.5991L147.792 153.284" stroke="#0500FF" stroke-width="1.10845" stroke-linecap="round" stroke-linejoin="round"/>
<path d="M120.957 173.556L128.85 125.94C130.001 119.009 134.191 108.589 138.167 102.785L177.913 44.7495C179.432 42.542 182.732 41.45 185.272 42.3283C188.915 43.5864 191.906 47.7877 191.906 51.6449C191.906 58.2318 189.188 68.2725 185.865 73.9692L164.443 110.642L157.785 160.726" fill="#FFAEFE"/>
<path d="M120.957 173.556L128.85 125.94C130.001 119.009 134.191 108.589 138.167 102.785L177.913 44.7495C179.432 42.542 182.732 41.45 185.272 42.3283C188.915 43.5864 191.906 47.7877 191.906 51.6449C191.906 58.2318 189.188 68.2725 185.865 73.9692L164.443 110.642L157.785 160.726" stroke="#0500FF" stroke-width="1.10845" stroke-linecap="round" stroke-linejoin="round"/>
<path d="M183.835 150.079L177.213 152.073" stroke="#0500FF" stroke-width="1.10845" stroke-linecap="round" stroke-linejoin="round"/>
<path d="M191.898 88.709L185.275 90.7028" stroke="#0500FF" stroke-width="1.10845" stroke-linecap="round" stroke-linejoin="round"/>
<path d="M216.576 85.9941L209.954 87.988" stroke="#0500FF" stroke-width="1.10845" stroke-linecap="round" stroke-linejoin="round"/>
<path d="M259.779 95.2744L253.11 96.1765" stroke="#0500FF" stroke-width="1.10845" stroke-linecap="round" stroke-linejoin="round"/>
<path d="M221.368 144.177L213.262 145.174" stroke="#0500FF" stroke-width="1.10845" stroke-linecap="round" stroke-linejoin="round"/>
<path d="M146.176 174.897L140.526 179.087" stroke="#0500FF" stroke-width="1.10845" stroke-linecap="round" stroke-linejoin="round"/>
<path d="M157.777 160.704C157.326 164.11 154.703 168.561 151.938 170.614L150.526 171.659" stroke="#0500FF" stroke-width="1.10845" stroke-linecap="round" stroke-linejoin="round"/>
<path d="M164.438 110.618L157.816 112.612" stroke="#0500FF" stroke-width="1.10845" stroke-linecap="round" stroke-linejoin="round"/>
<path d="M192.274 242.389C178.34 260.761 163.801 287.252 161.357 319.723" stroke="#0500FF" stroke-width="1.10845" stroke-linecap="round" stroke-linejoin="round"/>
<path d="M201.749 230.89C200.207 232.623 198.603 234.463 196.977 236.433" stroke="#0500FF" stroke-width="1.10845" stroke-linecap="round" stroke-linejoin="round"/>
<path d="M151.09 309.686L147.731 330.48" stroke="#0500FF" stroke-width="1.10845" stroke-linecap="round" stroke-linejoin="round"/>
<path d="M453.093 399.782C522.52 343.441 572.317 289.774 564.316 279.917C556.316 270.058 493.548 307.74 424.12 364.081C354.692 420.424 304.895 474.089 312.897 483.948C320.896 493.807 383.665 456.126 453.093 399.782Z" fill="#48FF91" stroke="#2ECCFF" stroke-width="1.10845" stroke-linecap="round" stroke-linejoin="round"/>
<path d="M382.517 82.1895L384.973 81.0976C387.17 80.1243 389.614 81.1806 390.421 83.4476L402.598 117.806L416.39 186.951L391.407 194.642L382.517 82.1895Z" fill="#1B1B1C"/>
<path d="M336.665 74.2492L337.662 24.9365C337.769 19.5838 340.452 11.6558 343.608 7.32387C346.552 3.30051 352.973 0.689494 357.886 1.53214L358.148 1.57961C360.509 1.98313 362.587 4.26186 362.751 6.65923L367.547 73.3591C368.282 83.5776 375.332 87.0906 375.854 98.3537L378.94 164.448C379.095 167.759 380.744 172.72 382.608 175.462L390.013 186.357L391.414 194.653L341.461 176.269L336.665 74.2492Z" fill="#1B1B1C"/>
<path d="M471.447 384.603L443.307 348.725C438.561 342.673 433.92 331.469 432.994 323.827L416.39 186.937L373.225 179.045L362.829 158.667L348.136 84.4901C346.284 75.1616 340.456 71.5062 338.628 62.4269L327.094 5.1506C326.523 2.31407 323.876 0.913621 321.206 2.04112L318.63 3.12113C314.358 4.9251 310.407 10.159 309.848 14.7639L308.686 24.4129C308.127 29.0177 308.067 36.554 308.543 41.159L317.076 123.394C317.076 135.69 311.913 139.571 312.27 155.178L313.67 217.829L307.225 238.101C306.156 241.461 302.941 242.516 300.092 240.452L289.305 232.631L262.279 192.183C258.126 185.964 249.036 178.653 242.069 175.923L232.549 172.197C227.056 170.049 218.616 171.081 213.811 174.487L212.599 175.342C209.074 177.834 208.053 182.878 210.345 186.546L240.727 235.159C244.809 241.685 249.308 253.209 250.733 260.769L255.943 288.423C257.367 295.982 262.138 307.34 266.53 313.643L302.086 364.629C306.489 370.943 315.817 378.729 322.809 381.932L330.535 385.469C337.526 388.675 347.529 395.913 352.763 401.563L393.104 445.143C411.606 432.29 432.044 416.934 453.122 399.831C459.413 394.728 465.525 389.648 471.47 384.627L471.447 384.603Z" fill="#1B1B1C"/>
<path d="M225.759 205.238L235.101 199.921C237.105 198.783 238.198 196.041 237.522 193.821L232.264 176.66C232.264 176.66 219.078 173.657 213.275 181.953" stroke="#2ECCFF" stroke-width="1.10845" stroke-linecap="round" stroke-linejoin="round"/>
<path d="M361.026 43.5688H372.656C375.055 43.5688 377.392 45.4915 377.866 47.8414L389.604 106.72L395.633 173.871C395.835 176.114 397.059 179.461 398.351 181.312L405.889 192.041L368.017 181.846L358.023 66.344L361.026 43.5688Z" fill="#1B1B1C"/>
<path d="M365.412 43.5688L367.561 73.3463C368.296 83.5649 375.346 87.078 375.868 98.3408L378.954 164.435C379.107 167.747 380.758 172.708 382.62 175.449L390.027 186.344" stroke="#2ECCFF" stroke-width="1.10845" stroke-linecap="round" stroke-linejoin="round"/>
<path d="M370.534 173.767L362.842 158.682L348.15 84.5052C346.298 75.1766 340.472 71.5213 338.644 62.4421L337.302 55.7603" stroke="#2ECCFF" stroke-width="1.10845" stroke-linecap="round" stroke-linejoin="round"/>
<path d="M375.556 183.618L373.229 179.061" stroke="#2ECCFF" stroke-width="1.10845" stroke-linecap="round" stroke-linejoin="round"/>
<path d="M384.563 81.3359L389.62 106.722L395.649 173.873C395.851 176.116 397.073 179.463 398.367 181.314L401.904 186.347" stroke="#2ECCFF" stroke-width="1.10845" stroke-linecap="round" stroke-linejoin="round"/>
</g>
</svg>
