<svg width="726" height="646" viewBox="0 0 726 646" fill="none" xmlns="http://www.w3.org/2000/svg">
<path d="M30.2613 530.402C28.518 531.412 26.5616 531.917 24.4696 531.917C21.6318 531.917 18.552 530.994 15.3946 529.17L13.0314 527.8C7.54956 524.625 4.53748 520.262 4.53748 515.503C4.53748 510.745 7.55927 506.387 13.0314 503.211L175.626 409.099C176.672 408.497 178.009 408.856 178.609 409.905C179.21 410.953 178.851 412.294 177.806 412.895L15.2105 507.01C11.1428 509.366 8.89579 512.378 8.89579 515.503C8.89579 518.633 11.1331 521.64 15.2105 524.002L17.5737 525.371C21.6415 527.732 25.3703 528.169 28.0725 526.604C30.765 525.039 32.2565 521.586 32.2565 516.873V506.873C32.2565 505.659 33.2347 504.676 34.4453 504.676C35.656 504.676 36.6342 505.659 36.6342 506.873V516.873C36.6342 523.214 34.3775 528.023 30.271 530.402H30.2613Z" fill="#C2C8CF" stroke="black" stroke-width="0.213448" stroke-miterlimit="10"/>
<path d="M456.1 368.257C455.343 368.257 454.608 367.869 454.199 367.16C453.6 366.111 453.959 364.771 455.002 364.169L469.94 355.527C478.366 350.642 483.012 344.263 483.012 337.543C483.012 330.824 478.375 324.444 469.94 319.56L445.687 305.518C421.561 291.555 391.595 291.555 367.479 305.518L287.528 351.798C286.482 352.4 285.146 352.041 284.545 350.992C283.945 349.943 284.303 348.603 285.349 348.002L365.3 301.722C390.772 286.981 422.414 286.981 447.886 301.722L472.136 315.763C481.978 321.463 487.391 329.193 487.391 337.543C487.391 345.894 481.978 353.624 472.136 359.323L457.203 367.966C456.854 368.16 456.486 368.257 456.11 368.257H456.1Z" fill="#C2C8CF" stroke="black" stroke-width="0.213448" stroke-miterlimit="10"/>
<path d="M304.072 637.902C312.247 642.633 325.622 642.633 333.796 637.902L441.079 575.804C449.253 571.077 449.253 563.339 441.079 558.599C432.905 553.872 419.53 553.872 411.355 558.599L304.072 620.697C299.985 623.067 297.942 626.183 297.942 629.299C297.942 632.416 299.985 635.536 304.072 637.902Z" stroke="black" stroke-width="0.213448" stroke-linecap="round" stroke-linejoin="round"/>
<path d="M467.063 232.526C471.487 232.526 475.072 230.538 475.072 228.088C475.072 225.637 471.487 223.65 467.063 223.65C462.639 223.65 459.054 225.637 459.054 228.088C459.054 230.538 462.639 232.526 467.063 232.526Z" stroke="black" stroke-width="0.213448" stroke-miterlimit="10"/>
<path d="M659.281 343.797C663.705 343.797 667.294 341.81 667.294 339.359C667.294 336.908 663.705 334.921 659.281 334.921C654.861 334.921 651.272 336.908 651.272 339.359C651.272 341.81 654.861 343.797 659.281 343.797Z" stroke="black" stroke-width="0.213448" stroke-miterlimit="10"/>
<path d="M547.014 339.554C557.613 339.554 566.207 334.793 566.207 328.921C566.207 323.048 557.613 318.288 547.014 318.288C536.41 318.288 527.816 323.048 527.816 328.921C527.816 334.793 536.41 339.554 547.014 339.554Z" fill="black" stroke="black" stroke-width="0.213448" stroke-miterlimit="10"/>
<path d="M614.94 381.959C625.54 381.959 634.134 377.198 634.134 371.326C634.134 365.453 625.54 360.693 614.94 360.693C604.336 360.693 595.742 365.453 595.742 371.326C595.742 377.198 604.336 381.959 614.94 381.959Z" fill="black" stroke="black" stroke-width="0.213448" stroke-miterlimit="10"/>
<path d="M545.135 385.445C549.559 385.445 553.144 383.458 553.144 381.007C553.144 378.556 549.559 376.569 545.135 376.569C540.711 376.569 537.127 378.556 537.127 381.007C537.127 383.458 540.711 385.445 545.135 385.445Z" stroke="black" stroke-width="0.213448" stroke-miterlimit="10"/>
<path d="M352.913 274.173C357.336 274.173 360.922 272.186 360.922 269.736C360.922 267.285 357.336 265.298 352.913 265.298C348.489 265.298 344.903 267.285 344.903 269.736C344.903 272.186 348.489 274.173 352.913 274.173Z" stroke="black" stroke-width="0.213448" stroke-miterlimit="10"/>
<path d="M519.585 323.668C530.184 323.668 538.778 318.907 538.778 313.034C538.778 307.162 530.184 302.402 519.585 302.402C508.981 302.402 500.386 307.162 500.386 313.034C500.386 318.907 508.981 323.668 519.585 323.668Z" fill="black" stroke="black" stroke-width="0.213448" stroke-miterlimit="10"/>
<path d="M492.146 307.791C502.746 307.791 511.345 303.03 511.345 297.158C511.345 291.285 502.746 286.525 492.146 286.525C481.547 286.525 472.948 291.285 472.948 297.158C472.948 303.03 481.547 307.791 492.146 307.791Z" fill="black" stroke="black" stroke-width="0.213448" stroke-miterlimit="10"/>
<path d="M464.708 291.905C475.312 291.905 483.906 287.144 483.906 281.272C483.906 275.4 475.312 270.639 464.708 270.639C454.109 270.639 445.513 275.4 445.513 281.272C445.513 287.144 454.109 291.905 464.708 291.905Z" fill="black" stroke="black" stroke-width="0.213448" stroke-miterlimit="10"/>
<path d="M437.271 276.019C447.873 276.019 456.468 271.258 456.468 265.386C456.468 259.513 447.873 254.753 437.271 254.753C426.669 254.753 418.075 259.513 418.075 265.386C418.075 271.258 426.669 276.019 437.271 276.019Z" fill="black" stroke="black" stroke-width="0.213448" stroke-miterlimit="10"/>
<path d="M409.833 260.142C420.435 260.142 429.029 255.382 429.029 249.51C429.029 243.637 420.435 238.876 409.833 238.876C399.231 238.876 390.637 243.637 390.637 249.51C390.637 255.382 399.231 260.142 409.833 260.142Z" fill="black" stroke="black" stroke-width="0.213448" stroke-miterlimit="10"/>
<path d="M662.779 128.362C662.779 119.002 656.445 108.01 648.359 103.329L481.474 6.73061C477.036 4.16706 472.503 3.84662 469.028 5.85665C465.552 7.86671 463.556 11.9645 463.556 17.1013V228.088C463.556 229.156 465.125 230.02 467.054 230.02C468.978 230.02 470.548 229.156 470.548 228.088V17.0915C470.548 14.5377 471.265 12.6442 472.526 11.9256C473.783 11.1973 475.77 11.5178 477.976 12.7996L644.874 109.408C650.791 112.836 655.796 121.517 655.796 128.372V339.359C655.796 340.427 657.366 341.291 659.294 341.291C661.223 341.291 662.788 340.427 662.788 339.359V128.362H662.779Z" fill="white" stroke="black" stroke-width="0.213448" stroke-miterlimit="10"/>
<path d="M419.51 189.936L482 11.0811" stroke="black" stroke-width="0.213448" stroke-linecap="round" stroke-linejoin="round"/>
<path d="M419.511 222.505C430.112 222.505 438.707 213.888 438.707 203.259C438.707 192.63 430.112 184.013 419.511 184.013C408.909 184.013 400.315 192.63 400.315 203.259C400.315 213.888 408.909 222.505 419.511 222.505Z" fill="url(#paint0_linear_0_723)" stroke="black" stroke-width="0.213448" stroke-miterlimit="10"/>
<path d="M425.62 192.684C418.269 194.898 412.409 201.958 410.53 207.842C408.787 213.328 404.961 212.794 403.567 209.59C400.603 202.764 402.84 194.49 409 189.694C414.162 185.673 420.893 185.091 426.472 187.567C430.249 189.237 429.717 191.451 425.62 192.684Z" fill="black"/>
<path d="M409.248 196.135C410.748 194 411.241 191.758 410.349 191.128C409.457 190.498 407.517 191.718 406.017 193.854C404.517 195.989 404.024 198.231 404.917 198.861C405.809 199.49 407.748 198.27 409.248 196.135Z" fill="white"/>
<path d="M367.848 52.7285L419.509 189.936" stroke="black" stroke-width="0.213448" stroke-linecap="round" stroke-linejoin="round"/>
<path d="M446.944 205.813L509.434 26.9575" stroke="black" stroke-width="0.213448" stroke-linecap="round" stroke-linejoin="round"/>
<path d="M446.944 238.391C457.548 238.391 466.142 229.774 466.142 219.145C466.142 208.516 457.548 199.899 446.944 199.899C436.342 199.899 427.748 208.516 427.748 219.145C427.748 229.774 436.342 238.391 446.944 238.391Z" fill="url(#paint1_linear_0_723)" stroke="black" stroke-width="0.213448" stroke-miterlimit="10"/>
<path d="M453.053 208.561C445.702 210.775 439.843 217.834 437.964 223.718C436.22 229.205 432.395 228.671 431 225.466C428.036 218.64 430.273 210.367 436.434 205.57C441.595 201.55 448.327 200.967 453.904 203.443C457.684 205.114 457.149 207.327 453.053 208.561Z" fill="black"/>
<path d="M436.677 212.015C438.177 209.88 438.67 207.639 437.778 207.008C436.886 206.379 434.947 207.599 433.447 209.734C431.946 211.869 431.453 214.111 432.345 214.741C433.238 215.371 435.177 214.151 436.677 212.015Z" fill="white"/>
<path d="M395.285 68.6147L446.946 205.812" stroke="black" stroke-width="0.213448" stroke-linecap="round" stroke-linejoin="round"/>
<path d="M474.386 221.699L536.872 42.8438" stroke="black" stroke-width="0.213448" stroke-linecap="round" stroke-linejoin="round"/>
<path d="M474.382 254.277C484.982 254.277 493.576 245.66 493.576 235.031C493.576 224.402 484.982 215.785 474.382 215.785C463.778 215.785 455.184 224.402 455.184 235.031C455.184 245.66 463.778 254.277 474.382 254.277Z" fill="url(#paint2_linear_0_723)" stroke="black" stroke-width="0.213448" stroke-miterlimit="10"/>
<path d="M480.49 224.447C473.139 226.661 467.281 233.72 465.402 239.605C463.66 245.091 459.83 244.557 458.437 241.352C455.474 234.526 457.711 226.253 463.873 221.456C469.032 217.436 475.766 216.853 481.343 219.329C485.122 221 484.587 223.213 480.49 224.447Z" fill="black"/>
<path d="M464.109 227.892C465.611 225.757 466.101 223.515 465.212 222.885C464.318 222.255 462.38 223.476 460.878 225.611C459.381 227.746 458.886 229.987 459.78 230.618C460.67 231.248 462.612 230.027 464.109 227.892Z" fill="white"/>
<path d="M422.723 84.4912L474.382 221.698" stroke="black" stroke-width="0.213448" stroke-linecap="round" stroke-linejoin="round"/>
<path d="M501.82 237.575L564.306 58.7202" stroke="black" stroke-width="0.213448" stroke-linecap="round" stroke-linejoin="round"/>
<path d="M501.825 270.154C512.424 270.154 521.018 261.537 521.018 250.907C521.018 240.278 512.424 231.662 501.825 231.662C491.221 231.662 482.627 240.278 482.627 250.907C482.627 261.537 491.221 270.154 501.825 270.154Z" fill="url(#paint3_linear_0_723)" stroke="black" stroke-width="0.213448" stroke-miterlimit="10"/>
<path d="M507.932 240.323C500.582 242.537 494.724 249.596 492.845 255.481C491.098 260.967 487.273 260.433 485.88 257.229C482.917 250.402 485.154 242.129 491.311 237.332C496.475 233.312 503.209 232.73 508.785 235.205C512.561 236.876 512.03 239.09 507.932 240.323Z" fill="black"/>
<path d="M491.547 243.781C493.049 241.646 493.539 239.404 492.65 238.774C491.756 238.144 489.819 239.364 488.317 241.499C486.819 243.634 486.325 245.876 487.219 246.506C488.108 247.136 490.05 245.916 491.547 243.781Z" fill="white"/>
<path d="M450.161 100.377L501.82 237.575" stroke="black" stroke-width="0.213448" stroke-linecap="round" stroke-linejoin="round"/>
<path d="M529.268 253.461L591.744 74.606" stroke="black" stroke-width="0.213448" stroke-linecap="round" stroke-linejoin="round"/>
<path d="M529.268 286.04C539.867 286.04 548.461 277.423 548.461 266.794C548.461 256.165 539.867 247.548 529.268 247.548C518.663 247.548 510.069 256.165 510.069 266.794C510.069 277.423 518.663 286.04 529.268 286.04Z" fill="url(#paint4_linear_0_723)" stroke="black" stroke-width="0.213448" stroke-miterlimit="10"/>
<path d="M535.375 256.209C528.024 258.424 522.166 265.483 520.283 271.367C518.541 276.854 514.716 276.32 513.323 273.115C510.36 266.289 512.597 258.015 518.754 253.219C523.918 249.199 530.647 248.616 536.228 251.092C540.003 252.762 539.472 254.976 535.375 256.209Z" fill="black"/>
<path d="M518.99 259.667C520.492 257.532 520.982 255.29 520.093 254.66C519.199 254.03 517.261 255.25 515.759 257.385C514.258 259.521 513.767 261.762 514.657 262.392C515.551 263.022 517.488 261.802 518.99 259.667Z" fill="white"/>
<path d="M477.604 116.254L529.263 253.461" stroke="black" stroke-width="0.213448" stroke-linecap="round" stroke-linejoin="round"/>
<path d="M556.692 269.348L619.178 90.4829" stroke="black" stroke-width="0.213448" stroke-linecap="round" stroke-linejoin="round"/>
<path d="M556.688 301.916C567.287 301.916 575.881 293.3 575.881 282.67C575.881 272.041 567.287 263.424 556.688 263.424C546.084 263.424 537.49 272.041 537.49 282.67C537.49 293.3 546.084 301.916 556.688 301.916Z" fill="url(#paint5_linear_0_723)" stroke="black" stroke-width="0.213448" stroke-miterlimit="10"/>
<path d="M562.795 272.085C555.444 274.299 549.587 281.359 547.703 287.243C545.961 292.73 542.136 292.196 540.743 288.991C537.78 282.165 540.017 273.891 546.174 269.095C551.338 265.074 558.067 264.492 563.648 266.968C567.423 268.638 566.893 270.852 562.795 272.085Z" fill="black"/>
<path d="M546.419 275.543C547.917 273.407 548.411 271.166 547.522 270.536C546.628 269.906 544.691 271.126 543.189 273.261C541.687 275.396 541.197 277.638 542.086 278.268C542.98 278.898 544.917 277.678 546.419 275.543Z" fill="white"/>
<path d="M505.028 132.14L556.688 269.347" stroke="black" stroke-width="0.213448" stroke-linecap="round" stroke-linejoin="round"/>
<path d="M635.758 254.287L646.616 106.369" stroke="black" stroke-width="0.213448" stroke-linecap="round" stroke-linejoin="round"/>
<path d="M646.616 289.399C657.216 289.399 665.81 280.782 665.81 270.153C665.81 259.524 657.216 250.907 646.616 250.907C636.012 250.907 627.418 259.524 627.418 270.153C627.418 280.782 636.012 289.399 646.616 289.399Z" fill="url(#paint6_linear_0_723)" stroke="black" stroke-width="0.213448" stroke-miterlimit="10"/>
<path d="M652.724 259.569C645.373 261.783 639.515 268.843 637.637 274.727C635.894 280.214 632.065 279.679 630.672 276.475C627.709 269.649 629.946 261.375 636.108 256.579C641.267 252.558 648 251.976 653.577 254.452C657.357 256.122 656.821 258.336 652.724 259.569Z" fill="black"/>
<path d="M636.344 263.019C637.845 260.884 638.335 258.642 637.446 258.012C636.552 257.382 634.615 258.602 633.113 260.738C631.615 262.873 631.121 265.114 632.015 265.744C632.904 266.374 634.846 265.154 636.344 263.019Z" fill="white"/>
<path d="M532.467 148.026L635.758 254.287" stroke="black" stroke-width="0.213448" stroke-linecap="round" stroke-linejoin="round"/>
<path d="M548.629 170.02C548.629 160.659 542.295 149.667 534.209 144.987L367.323 48.3787C362.887 45.8151 358.355 45.4944 354.878 47.5047C351.4 49.5146 349.405 53.6122 349.405 58.7492V269.736C349.405 270.804 350.974 271.668 352.902 271.668C354.829 271.668 356.398 270.804 356.398 269.736V58.7492C356.398 56.1953 357.115 54.3018 358.374 53.583C359.633 52.8552 361.618 53.1754 363.826 54.457L530.72 151.065C536.641 154.493 541.646 163.174 541.646 170.03V381.017C541.646 382.084 543.216 382.949 545.144 382.949C547.068 382.949 548.638 382.084 548.638 381.017V170.02H548.629Z" fill="white" stroke="black" stroke-width="0.213448" stroke-miterlimit="10"/>
<path d="M93.3804 534.306C97.0898 545.929 108.751 550.442 119.288 544.337L381.36 392.64C391.897 386.542 397.485 372.044 393.776 360.421L327.345 152.513C323.636 140.889 311.975 136.374 301.438 142.482L39.3661 294.177C28.8287 300.275 23.2403 314.773 26.9497 326.396L93.3804 534.306Z" fill="#C2C8CF" stroke="black" stroke-width="0.213448" stroke-linecap="round" stroke-linejoin="round"/>
<path d="M98.6089 533.478C102.318 545.101 113.98 549.619 124.517 543.509L386.588 391.815C397.126 385.716 402.714 371.219 399.005 359.595L332.574 151.687C328.865 140.064 317.204 135.548 306.666 141.656L44.5949 293.351C34.0574 299.45 28.4691 313.947 32.1785 325.57L98.6089 533.478Z" fill="white" stroke="black" stroke-width="0.213448" stroke-linecap="round" stroke-linejoin="round"/>
<path d="M105.412 529.779C107.784 537.199 115.232 540.084 121.963 536.189L384.422 384.26C391.153 380.366 394.718 371.103 392.345 363.684L325.846 155.581C323.473 148.162 316.025 145.278 309.294 149.172L46.8451 301.1C40.114 304.995 36.5498 314.258 38.9227 321.677L105.421 529.779H105.412Z" fill="black"/>
<path d="M258.619 332.115C260.992 339.524 268.421 342.408 275.152 338.514L333.292 304.858C340.013 300.964 343.578 291.72 341.205 284.311L332.391 256.724C330.019 249.315 322.59 246.431 315.859 250.325L257.719 283.981C250.997 287.875 247.433 297.119 249.806 304.528L258.619 332.115Z" fill="#2D3033"/>
<path d="M288.867 317.394C292.208 319.579 296.567 320.181 298.61 314.258L299.598 311.403C301.487 305.946 304.17 304.49 307.23 307.276L308.595 308.519C312.276 311.85 316.644 308.869 316.441 303.159L315.472 277.145C315.191 269.678 322.174 265.551 325.089 271.455L331.278 284C332.576 286.622 336.334 287.642 338.135 284.554" stroke="#C2C8CF" stroke-width="0.213448" stroke-linecap="round" stroke-linejoin="round"/>
<path d="M323.733 257.947C323.326 256.656 322.029 256.161 320.866 256.84L310.765 262.686C309.593 263.366 308.982 264.968 309.389 266.259C309.796 267.551 311.094 268.046 312.256 267.367L322.358 261.521C323.53 260.841 324.14 259.239 323.733 257.947Z" fill="black"/>
<path d="M292.316 437.57L287.387 422.16C285.014 414.751 288.578 405.496 295.299 401.612L353.439 367.956C360.161 364.062 367.599 366.946 369.972 374.355L374.902 389.765L292.316 437.57Z" fill="#2D3033"/>
<path d="M277.407 390.931C279.78 398.34 287.209 401.224 293.94 397.33L352.08 363.674C358.802 359.78 362.366 350.536 359.993 343.127L351.179 315.54C348.807 308.131 341.378 305.247 334.647 309.141L276.507 342.797C269.785 346.691 266.221 355.935 268.594 363.344L277.407 390.931Z" fill="#2D3033"/>
<path d="M255.483 300.712L258.553 298.935L258.911 300.051L255.841 301.828L255.483 300.712Z" fill="#C2C8CF"/>
<path d="M259.455 297.877C258.39 294.536 258.942 291.798 260.791 290.73C262.641 289.652 264.472 290.992 265.547 294.352C266.593 297.624 266.177 300.362 264.22 301.489C262.283 302.606 260.501 301.149 259.455 297.877ZM264.549 294.925C263.716 292.312 262.496 291.021 261.14 291.807C259.755 292.613 259.6 294.643 260.453 297.294C261.286 299.906 262.496 301.188 263.881 300.382C265.276 299.576 265.402 297.575 264.549 294.925Z" fill="#C2C8CF"/>
<path d="M267.562 297.537L268.676 296.896L269.15 298.381L268.037 299.022L267.562 297.537Z" fill="#C2C8CF"/>
<path d="M268.324 289.963L266.61 290.953L266.339 290.108C267.288 289.526 267.966 288.584 267.627 286.972L268.373 286.544L271.685 296.896L270.726 297.45L268.334 289.953L268.324 289.963Z" fill="#C2C8CF"/>
<path d="M274.455 289.623C275.24 288.244 275.695 287.35 275.298 286.108C274.891 284.845 273.962 284.369 272.915 284.972C272.363 285.292 272.034 285.768 271.869 286.34C271.695 286.952 271.744 287.603 272.083 288.662L271.075 289.244C270.649 287.923 270.649 286.923 270.93 286.02C271.23 285.078 271.86 284.34 272.663 283.884C274.252 282.961 275.705 283.69 276.296 285.525C276.925 287.506 276.111 288.768 275.143 290.409C274.494 291.516 273.671 292.982 273.826 294.254L278.107 291.778L278.494 292.982L273.06 296.129C272.276 293.322 273.429 291.468 274.475 289.632L274.455 289.623Z" fill="#C2C8CF"/>
<path d="M280.947 285.865C281.732 284.486 282.187 283.593 281.79 282.349C281.383 281.087 280.453 280.612 279.407 281.213C278.855 281.534 278.526 282.01 278.361 282.583C278.196 283.194 278.235 283.845 278.574 284.903L277.567 285.486C277.141 284.165 277.141 283.165 277.421 282.262C277.722 281.32 278.351 280.582 279.155 280.126C280.744 279.204 282.196 279.932 282.787 281.767C283.417 283.748 282.603 285.01 281.634 286.651C280.986 287.758 280.162 289.225 280.317 290.497L284.598 288.021L284.985 289.225L279.552 292.371C278.768 289.565 279.92 287.71 280.966 285.875L280.947 285.865Z" fill="#C2C8CF"/>
<path d="M342.534 316.773C342.127 315.481 340.83 314.986 339.668 315.666L329.566 321.511C328.394 322.191 327.784 323.793 328.191 325.085C328.598 326.376 329.895 326.871 331.057 326.192L341.159 320.346C342.331 319.666 342.941 318.064 342.534 316.773Z" fill="black"/>
<path d="M274.231 358.76L276.449 357.478L275.49 354.478L276.245 354.041L277.204 357.042L279.422 355.76L279.732 356.721L277.514 358.003L278.473 361.003L277.717 361.44L276.758 358.44L274.54 359.722L274.231 358.76Z" fill="#C2C8CF"/>
<path d="M280.729 355.264C279.663 351.924 280.216 349.186 282.065 348.118C283.915 347.04 285.746 348.38 286.821 351.74C287.867 355.012 287.451 357.75 285.494 358.877C283.557 359.993 281.775 358.537 280.729 355.264ZM285.823 352.312C284.99 349.701 283.77 348.409 282.414 349.196C281.029 350.001 280.874 352.021 281.727 354.682C282.56 357.294 283.77 358.576 285.155 357.77C286.55 356.964 286.676 354.964 285.823 352.312Z" fill="#C2C8CF"/>
<path d="M288.827 354.915L289.941 354.274L290.415 355.76L289.302 356.401L288.827 354.915Z" fill="#C2C8CF"/>
<path d="M292.796 348.7C293.58 347.321 294.035 346.428 293.638 345.185C293.232 343.923 292.302 343.447 291.256 344.049C290.704 344.369 290.375 344.845 290.21 345.418C290.045 346.03 290.084 346.68 290.423 347.739L289.416 348.322C288.99 347.001 288.989 346.001 289.27 345.098C289.571 344.156 290.2 343.418 291.004 342.952C292.593 342.029 294.045 342.757 294.636 344.593C295.266 346.574 294.452 347.836 293.483 349.477C292.834 350.584 292.011 352.05 292.166 353.322L296.447 350.846L296.835 352.05L291.401 355.197C290.616 352.39 291.769 350.535 292.815 348.7H292.796Z" fill="#C2C8CF"/>
<path d="M300.36 347.011L296.661 349.147L296.302 348.021L298.026 339.029L298.782 338.592L300.98 345.457L302.278 344.71L302.598 345.719L301.3 346.467L302.104 348.992L301.164 349.536L300.36 347.011ZM297.271 347.603L300.041 346.001L298.501 341.175H298.481L297.261 347.555V347.603H297.271Z" fill="#C2C8CF"/>
<path d="M303.073 344.903L304.022 344.35C304.554 345.554 305.503 345.971 306.607 345.321C307.731 344.67 308.138 343.262 307.654 341.757C307.16 340.213 306.056 339.776 305.029 340.379C304.186 340.873 303.741 341.66 303.605 342.466L302.675 343L301.775 336.97L305.949 334.552L306.308 335.679L302.801 337.708L303.276 341.097H303.296C303.566 340.272 304.061 339.611 304.816 339.174C306.21 338.368 307.906 338.941 308.632 341.223C309.329 343.417 308.584 345.486 306.956 346.428C305.329 347.37 303.731 346.768 303.053 344.894L303.073 344.903Z" fill="#C2C8CF"/>
<path d="M309.94 371.85L309.65 359.877C309.446 351.332 315.17 347.176 318.676 354.119L322.909 362.499C325.281 367.199 328.855 365.684 330.618 359.226L331.131 357.342C332.671 351.691 335.044 350.409 338.366 353.439L340.516 355.4C345.301 359.78 349.495 357.09 350.008 349.332L350.783 337.766C351.102 332.999 352.042 330.241 354.221 328.979" stroke="#C2C8CF" stroke-width="0.213448" stroke-linecap="round" stroke-linejoin="round"/>
<path d="M457.875 365.004C456.917 363.334 455.356 362.431 454.39 362.984L449.129 366.023C448.171 366.577 448.171 368.383 449.129 370.053C450.088 371.724 451.648 372.627 452.616 372.073L457.875 369.034C458.832 368.48 458.832 366.674 457.875 365.004Z" fill="black" stroke="black" stroke-width="0.213448" stroke-miterlimit="10"/>
<path d="M446.243 362.712L429.197 372.578C427.046 373.821 427.046 377.861 429.197 381.599C431.347 385.337 434.834 387.357 436.993 386.114L454.04 376.249L446.243 362.712Z" fill="#777E87" stroke="black" stroke-width="0.213448" stroke-miterlimit="10"/>
<path d="M454.04 367.218C451.889 363.479 448.403 361.46 446.243 362.702L429.197 372.569C427.046 373.811 427.046 377.851 429.197 381.589C431.347 385.328 434.834 387.347 436.993 386.104L454.04 376.239C456.191 374.996 456.191 370.957 454.04 367.218Z" fill="#C2C8CF" stroke="black" stroke-width="0.213448" stroke-miterlimit="10"/>
<path d="M311.55 418.042L346.833 425.937L392.886 399.281C400.518 394.863 413.002 394.863 420.634 399.281L558.398 479.022L489.265 519.038V543.577C484.16 543.609 479.047 542.508 475.172 540.274L317.274 448.882C313.458 446.678 311.55 443.765 311.55 440.852V418.042Z" fill="#C2C8CF"/>
<path d="M558.385 479.023L563.308 481.871L584.235 483.731V488.472C584.235 491.383 582.329 494.299 578.513 496.501L502.9 540.265C499.143 542.44 494.202 543.541 489.242 543.568V519.029L558.376 479.014L558.385 479.023Z" fill="#C2C8CF"/>
<path d="M311.551 418.042L346.834 425.937L392.887 399.281C400.519 394.863 413.003 394.863 420.635 399.281L563.317 481.879L584.248 483.74V488.48C584.248 491.392 582.338 494.308 578.522 496.51L502.909 540.274C495.277 544.696 482.795 544.696 475.162 540.274L317.265 448.882C313.449 446.678 311.541 443.765 311.541 440.852V418.042H311.551Z" stroke="black" stroke-width="0.213448" stroke-miterlimit="10"/>
<path d="M547.3 443.59C545.149 440.134 540.507 435.637 536.981 433.598L420.625 366.238C412.993 361.819 400.509 361.819 392.877 366.238L317.265 410.002C309.633 414.42 309.633 421.645 317.265 426.063L433.623 493.426C437.139 495.464 441.787 499.959 443.938 503.416L453.7 519.098C455.851 522.555 460.488 527.05 464.014 529.088L475.153 535.539C482.785 539.956 495.268 539.956 502.9 535.539L578.513 491.774C586.145 487.357 586.145 480.128 578.513 475.711L567.374 469.265C563.862 467.226 559.211 462.727 557.06 459.274L547.3 443.59Z" fill="#E9EAEB" stroke="black" stroke-width="0.213448" stroke-miterlimit="10"/>
<path d="M448.556 397.058C446.57 395.912 443.336 395.912 441.35 397.058L368.721 439.094C366.735 440.24 366.735 442.114 368.721 443.26L441.098 485.15C443.084 486.297 446.318 486.297 448.304 485.15L520.932 443.114C522.92 441.968 522.92 440.094 520.932 438.949L448.556 397.058Z" fill="black"/>
<path d="M461.31 402.826L458.056 392.775H431.343L428.089 402.826C427.789 403.748 428.254 404.749 429.484 405.457L441.096 412.177C443.082 413.323 446.317 413.323 448.302 412.177L459.917 405.457C461.146 404.749 461.609 403.748 461.31 402.826Z" fill="#777E87"/>
<path d="M428.098 402.826C427.798 403.748 428.262 404.749 429.493 405.457L441.105 412.177C442.141 412.779 443.526 413.051 444.892 413.032V393.96L440.505 392.775H431.352L428.098 402.826Z" fill="black"/>
<path d="M461.31 402.826L458.056 392.775H431.343L428.089 402.826C427.789 403.748 428.254 404.749 429.484 405.457L441.096 412.177C443.082 413.323 446.317 413.323 448.302 412.177L459.917 405.457C461.146 404.749 461.609 403.748 461.31 402.826Z" stroke="black" stroke-width="0.213448" stroke-miterlimit="10"/>
<path d="M447.595 386.134C446.006 385.212 443.391 385.212 441.803 386.134L432.466 391.543C430.878 392.465 430.878 393.97 432.466 394.893L441.803 400.301C443.391 401.224 446.006 401.224 447.595 400.301L456.931 394.893C458.519 393.97 458.519 392.465 456.931 391.543L447.595 386.134Z" fill="#777E87" stroke="black" stroke-width="0.213448" stroke-miterlimit="10"/>
<path d="M441.05 414.556L437.796 404.506H411.084L407.83 414.556C407.53 415.478 407.994 416.479 409.224 417.187L420.837 423.907C422.822 425.053 426.057 425.053 428.043 423.907L439.655 417.187C440.885 416.479 441.35 415.478 441.05 414.556Z" fill="#777E87"/>
<path d="M407.839 414.556C407.538 415.478 408.003 416.479 409.233 417.187L420.846 423.907C421.882 424.509 423.267 424.781 424.633 424.762V405.69L420.245 404.506H411.093L407.839 414.556Z" fill="black"/>
<path d="M441.05 414.556L437.796 404.506H411.084L407.83 414.556C407.53 415.478 407.994 416.479 409.224 417.187L420.837 423.907C422.822 425.053 426.057 425.053 428.043 423.907L439.655 417.187C440.885 416.479 441.35 415.478 441.05 414.556Z" stroke="black" stroke-width="0.213448" stroke-miterlimit="10"/>
<path d="M427.345 397.864C425.756 396.942 423.141 396.942 421.553 397.864L412.216 403.273C410.628 404.196 410.628 405.7 412.216 406.623L421.553 412.032C423.141 412.954 425.756 412.954 427.345 412.032L436.681 406.623C438.269 405.7 438.269 404.196 436.681 403.273L427.345 397.864Z" fill="#777E87" stroke="black" stroke-width="0.213448" stroke-miterlimit="10"/>
<path d="M420.8 426.277L417.545 416.227H390.834L387.579 426.277C387.279 427.199 387.744 428.199 388.974 428.908L400.586 435.628C402.572 436.774 405.807 436.774 407.792 435.628L419.405 428.908C420.635 428.199 421.1 427.199 420.8 426.277Z" fill="#777E87"/>
<path d="M387.588 426.277C387.288 427.199 387.753 428.199 388.983 428.908L400.595 435.628C401.632 436.23 403.017 436.502 404.382 436.482V417.411L399.995 416.227H390.843L387.588 426.277Z" fill="black"/>
<path d="M420.8 426.277L417.545 416.227H390.834L387.579 426.277C387.279 427.199 387.744 428.199 388.974 428.908L400.586 435.628C402.572 436.774 405.807 436.774 407.792 435.628L419.405 428.908C420.635 428.199 421.1 427.199 420.8 426.277Z" stroke="black" stroke-width="0.213448" stroke-miterlimit="10"/>
<path d="M407.085 409.585C405.497 408.662 402.882 408.662 401.293 409.585L391.957 414.993C390.368 415.916 390.368 417.421 391.957 418.343L401.293 423.752C402.882 424.675 405.497 424.675 407.085 423.752L416.422 418.343C418.01 417.421 418.01 415.916 416.422 414.993L407.085 409.585Z" fill="#777E87" stroke="black" stroke-width="0.213448" stroke-miterlimit="10"/>
<path d="M400.545 438.007L397.29 427.957H370.579L367.325 438.007C367.024 438.929 367.489 439.929 368.719 440.638L380.332 447.358C382.317 448.504 385.552 448.504 387.537 447.358L399.15 440.638C400.38 439.929 400.845 438.929 400.545 438.007Z" fill="#777E87"/>
<path d="M367.325 438.007C367.024 438.929 367.489 439.929 368.719 440.638L380.332 447.358C381.368 447.96 382.753 448.232 384.119 448.212V429.141L379.731 427.957H370.579L367.325 438.007Z" fill="black"/>
<path d="M400.545 438.007L397.29 427.957H370.579L367.325 438.007C367.024 438.929 367.489 439.929 368.719 440.638L380.332 447.358C382.317 448.504 385.552 448.504 387.537 447.358L399.15 440.638C400.38 439.929 400.845 438.929 400.545 438.007Z" stroke="black" stroke-width="0.213448" stroke-miterlimit="10"/>
<path d="M386.831 421.314C385.242 420.392 382.627 420.392 381.038 421.314L371.702 426.723C370.114 427.645 370.114 429.151 371.702 430.073L381.038 435.482C382.627 436.404 385.242 436.404 386.831 435.482L396.167 430.073C397.755 429.151 397.755 427.645 396.167 426.723L386.831 421.314Z" fill="#777E87" stroke="black" stroke-width="0.213448" stroke-miterlimit="10"/>
<path d="M481.565 414.556L478.312 404.506H451.598L448.344 414.556C448.044 415.479 448.508 416.479 449.738 417.188L461.35 423.907C463.338 425.053 466.573 425.053 468.556 423.907L480.167 417.188C481.402 416.479 481.864 415.479 481.565 414.556Z" fill="#E9EAEB"/>
<path d="M448.353 414.556C448.052 415.479 448.517 416.479 449.747 417.188L461.359 423.907C462.394 424.51 463.782 424.781 465.148 424.762V405.69L460.76 404.506H451.607L448.353 414.556Z" fill="#C2C8CF"/>
<path d="M481.565 414.556L478.312 404.506H451.598L448.344 414.556C448.044 415.479 448.508 416.479 449.738 417.188L461.35 423.907C463.338 425.053 466.573 425.053 468.556 423.907L480.167 417.188C481.402 416.479 481.864 415.479 481.565 414.556Z" stroke="black" stroke-width="0.213448" stroke-miterlimit="10"/>
<path d="M467.857 397.864C466.269 396.942 463.655 396.942 462.067 397.864L452.73 403.273C451.142 404.196 451.142 405.7 452.73 406.623L462.067 412.032C463.655 412.954 466.269 412.954 467.857 412.032L477.195 406.623C478.783 405.7 478.783 404.196 477.195 403.273L467.857 397.864Z" fill="white" stroke="black" stroke-width="0.213448" stroke-miterlimit="10"/>
<path d="M522.076 438.006L518.822 427.956L471.859 416.236L468.601 426.286C468.302 427.209 468.769 428.209 469.999 428.918L501.861 447.368C503.848 448.513 507.084 448.513 509.067 447.368L520.678 440.648C521.912 439.939 522.375 438.939 522.076 438.017V438.006Z" fill="url(#paint7_linear_0_723)"/>
<path d="M468.601 426.277C468.302 427.199 468.769 428.199 469.999 428.908L501.861 447.358C502.9 447.96 504.284 448.231 505.65 448.212V429.141L501.262 427.956L471.845 416.236L468.592 426.286L468.601 426.277Z" fill="url(#paint8_linear_0_723)"/>
<path d="M522.076 438.006L518.822 427.956L471.859 416.236L468.601 426.286C468.302 427.209 468.769 428.209 469.999 428.918L501.861 447.368C503.848 448.513 507.084 448.513 509.067 447.368L520.678 440.648C521.912 439.939 522.375 438.939 522.076 438.017V438.006Z" stroke="black" stroke-width="0.213448" stroke-miterlimit="10"/>
<path d="M488.108 409.585C486.52 408.662 483.906 408.662 482.318 409.585L472.98 414.993C471.392 415.916 471.392 417.421 472.98 418.343L502.569 435.472C504.157 436.395 506.771 436.395 508.359 435.472L517.697 430.064C519.285 429.141 519.285 427.636 517.697 426.714L488.108 409.585Z" fill="url(#paint9_linear_0_723)" stroke="black" stroke-width="0.213448" stroke-miterlimit="10"/>
<path d="M461.31 426.277L458.056 416.227H431.343L428.089 426.277C427.789 427.199 428.254 428.199 429.484 428.908L441.096 435.628C443.082 436.774 446.317 436.774 448.302 435.628L459.917 428.908C461.146 428.199 461.609 427.199 461.31 426.277Z" fill="#E9EAEB"/>
<path d="M428.098 426.277C427.798 427.199 428.262 428.199 429.493 428.908L441.105 435.628C442.141 436.23 443.526 436.502 444.892 436.482V417.411L440.505 416.227H431.352L428.098 426.277Z" fill="#C2C8CF"/>
<path d="M461.31 426.277L458.056 416.227H431.343L428.089 426.277C427.789 427.199 428.254 428.199 429.484 428.908L441.096 435.628C443.082 436.774 446.317 436.774 448.302 435.628L459.917 428.908C461.146 428.199 461.609 427.199 461.31 426.277Z" stroke="black" stroke-width="0.213448" stroke-miterlimit="10"/>
<path d="M447.595 409.585C446.006 408.662 443.391 408.662 441.803 409.585L432.466 414.993C430.878 415.916 430.878 417.421 432.466 418.343L441.803 423.752C443.391 424.675 446.006 424.675 447.595 423.752L456.931 418.343C458.519 417.421 458.519 415.916 456.931 414.993L447.595 409.585Z" fill="white" stroke="black" stroke-width="0.213448" stroke-miterlimit="10"/>
<path d="M441.05 438.007L437.796 427.957H411.084L407.83 438.007C407.53 438.929 407.994 439.929 409.224 440.638L420.837 447.358C422.822 448.504 426.057 448.504 428.043 447.358L439.655 440.638C440.885 439.929 441.35 438.929 441.05 438.007Z" fill="#E9EAEB"/>
<path d="M407.839 438.007C407.538 438.929 408.003 439.929 409.233 440.638L420.846 447.358C421.882 447.96 423.267 448.232 424.633 448.212V429.141L420.245 427.957H411.093L407.839 438.007Z" fill="#C2C8CF"/>
<path d="M441.05 438.007L437.796 427.957H411.084L407.83 438.007C407.53 438.929 407.994 439.929 409.224 440.638L420.837 447.358C422.822 448.504 426.057 448.504 428.043 447.358L439.655 440.638C440.885 439.929 441.35 438.929 441.05 438.007Z" stroke="black" stroke-width="0.213448" stroke-miterlimit="10"/>
<path d="M427.345 421.314C425.756 420.392 423.141 420.392 421.553 421.314L412.216 426.723C410.628 427.645 410.628 429.151 412.216 430.073L421.553 435.482C423.141 436.404 425.756 436.404 427.345 435.482L436.681 430.073C438.269 429.151 438.269 427.645 436.681 426.723L427.345 421.314Z" fill="white" stroke="black" stroke-width="0.213448" stroke-miterlimit="10"/>
<path d="M420.8 449.727L417.545 439.677H390.834L387.579 449.727C387.279 450.65 387.744 451.65 388.974 452.358L400.586 459.079C402.572 460.225 405.807 460.225 407.792 459.079L419.405 452.358C420.635 451.65 421.1 450.65 420.8 449.727Z" fill="#E9EAEB"/>
<path d="M387.588 449.727C387.288 450.65 387.753 451.65 388.983 452.358L400.595 459.079C401.632 459.679 403.017 459.952 404.382 459.934V440.861L399.995 439.677H390.843L387.588 449.727Z" fill="#C2C8CF"/>
<path d="M420.8 449.727L417.545 439.677H390.834L387.579 449.727C387.279 450.65 387.744 451.65 388.974 452.358L400.586 459.079C402.572 460.225 405.807 460.225 407.792 459.079L419.405 452.358C420.635 451.65 421.1 450.65 420.8 449.727Z" stroke="black" stroke-width="0.213448" stroke-miterlimit="10"/>
<path d="M407.085 433.035C405.497 432.113 402.882 432.113 401.293 433.035L391.957 438.444C390.368 439.366 390.368 440.871 391.957 441.794L401.293 447.202C402.882 448.125 405.497 448.125 407.085 447.202L416.422 441.794C418.01 440.871 418.01 439.366 416.422 438.444L407.085 433.035Z" fill="white" stroke="black" stroke-width="0.213448" stroke-miterlimit="10"/>
<path d="M481.565 438.007L478.312 427.957H451.598L448.344 438.007C448.044 438.929 448.508 439.929 449.738 440.638L461.35 447.358C463.338 448.503 466.573 448.503 468.556 447.358L480.167 440.638C481.402 439.929 481.864 438.929 481.565 438.007Z" fill="#E9EAEB"/>
<path d="M448.353 438.007C448.052 438.929 448.517 439.929 449.747 440.638L461.359 447.358C462.394 447.96 463.782 448.232 465.148 448.212V429.141L460.76 427.957H451.607L448.353 438.007Z" fill="#C2C8CF"/>
<path d="M481.565 438.007L478.312 427.957H451.598L448.344 438.007C448.044 438.929 448.508 439.929 449.738 440.638L461.35 447.358C463.338 448.503 466.573 448.503 468.556 447.358L480.167 440.638C481.402 439.929 481.864 438.929 481.565 438.007Z" stroke="black" stroke-width="0.213448" stroke-miterlimit="10"/>
<path d="M467.857 421.315C466.269 420.392 463.655 420.392 462.067 421.315L452.73 426.723C451.142 427.646 451.142 429.151 452.73 430.073L462.067 435.482C463.655 436.405 466.269 436.405 467.857 435.482L477.195 430.073C478.783 429.151 478.783 427.646 477.195 426.723L467.857 421.315Z" fill="white" stroke="black" stroke-width="0.213448" stroke-miterlimit="10"/>
<path d="M461.31 449.727L458.056 439.677H431.343L428.089 449.727C427.789 450.65 428.254 451.65 429.484 452.358L441.096 459.079C443.082 460.225 446.317 460.225 448.302 459.079L459.917 452.358C461.146 451.65 461.609 450.65 461.31 449.727Z" fill="#E9EAEB"/>
<path d="M428.098 449.727C427.798 450.65 428.262 451.65 429.493 452.358L441.105 459.079C442.141 459.679 443.526 459.952 444.892 459.934V440.861L440.505 439.677H431.352L428.098 449.727Z" fill="#C2C8CF"/>
<path d="M461.31 449.727L458.056 439.677H431.343L428.089 449.727C427.789 450.65 428.254 451.65 429.484 452.358L441.096 459.079C443.082 460.225 446.317 460.225 448.302 459.079L459.917 452.358C461.146 451.65 461.609 450.65 461.31 449.727Z" stroke="black" stroke-width="0.213448" stroke-miterlimit="10"/>
<path d="M447.595 433.035C446.006 432.113 443.391 432.113 441.803 433.035L432.466 438.444C430.878 439.366 430.878 440.871 432.466 441.794L441.803 447.202C443.391 448.125 446.006 448.125 447.595 447.202L456.931 441.794C458.519 440.871 458.519 439.366 456.931 438.444L447.595 433.035Z" fill="white" stroke="black" stroke-width="0.213448" stroke-miterlimit="10"/>
<path d="M441.05 461.458L437.796 451.407H411.084L407.83 461.458C407.53 462.381 407.994 463.382 409.224 464.087L420.837 470.807C422.822 471.953 426.057 471.953 428.043 470.807L439.655 464.087C440.885 463.382 441.35 462.381 441.05 461.458Z" fill="#E9EAEB"/>
<path d="M407.839 461.458C407.538 462.381 408.003 463.382 409.233 464.087L420.846 470.807C421.882 471.412 423.267 471.68 424.633 471.662V452.592L420.245 451.407H411.093L407.839 461.458Z" fill="#C2C8CF"/>
<path d="M441.05 461.458L437.796 451.407H411.084L407.83 461.458C407.53 462.381 407.994 463.382 409.224 464.087L420.837 470.807C422.822 471.953 426.057 471.953 428.043 470.807L439.655 464.087C440.885 463.382 441.35 462.381 441.05 461.458Z" stroke="black" stroke-width="0.213448" stroke-miterlimit="10"/>
<path d="M427.345 444.765C425.756 443.843 423.141 443.843 421.553 444.765L412.216 450.174C410.628 451.097 410.628 452.602 412.216 453.524L421.553 458.933C423.141 459.857 425.756 459.857 427.345 458.933L436.681 453.524C438.269 452.602 438.269 451.097 436.681 450.174L427.345 444.765Z" fill="white" stroke="black" stroke-width="0.213448" stroke-miterlimit="10"/>
<path d="M501.825 449.727L498.567 439.677H471.859L468.601 449.727C468.302 450.65 468.769 451.65 469.999 452.359L481.61 459.079C483.598 460.225 486.828 460.225 488.816 459.079L500.427 452.359C501.657 451.65 502.124 450.65 501.825 449.727Z" fill="#E9EAEB"/>
<path d="M468.601 449.727C468.302 450.65 468.769 451.65 469.999 452.359L481.61 459.079C482.645 459.679 484.033 459.952 485.399 459.934V440.862L481.011 439.677H471.859L468.601 449.727Z" fill="#C2C8CF"/>
<path d="M501.825 449.727L498.567 439.677H471.859L468.601 449.727C468.302 450.65 468.769 451.65 469.999 452.359L481.61 459.079C483.598 460.225 486.828 460.225 488.816 459.079L500.427 452.359C501.657 451.65 502.124 450.65 501.825 449.727Z" stroke="black" stroke-width="0.213448" stroke-miterlimit="10"/>
<path d="M488.108 433.035C486.52 432.113 483.906 432.113 482.318 433.035L472.98 438.444C471.392 439.366 471.392 440.871 472.98 441.794L482.318 447.203C483.906 448.125 486.52 448.125 488.108 447.203L497.446 441.794C499.034 440.871 499.034 439.366 497.446 438.444L488.108 433.035Z" fill="white" stroke="black" stroke-width="0.213448" stroke-miterlimit="10"/>
<path d="M481.565 461.458L478.312 451.407H451.598L448.344 461.458C448.044 462.381 448.508 463.378 449.738 464.087L461.35 470.807C463.338 471.953 466.573 471.953 468.556 470.807L480.167 464.087C481.402 463.378 481.864 462.381 481.565 461.458Z" fill="#E9EAEB"/>
<path d="M448.353 461.458C448.052 462.381 448.517 463.378 449.747 464.087L461.359 470.807C462.394 471.412 463.782 471.68 465.148 471.662V452.592L460.76 451.407H451.607L448.353 461.458Z" fill="#C2C8CF"/>
<path d="M481.565 461.458L478.312 451.407H451.598L448.344 461.458C448.044 462.381 448.508 463.378 449.738 464.087L461.35 470.807C463.338 471.953 466.573 471.953 468.556 470.807L480.167 464.087C481.402 463.378 481.864 462.381 481.565 461.458Z" stroke="black" stroke-width="0.213448" stroke-miterlimit="10"/>
<path d="M467.857 444.765C466.269 443.843 463.655 443.843 462.067 444.765L452.73 450.174C451.142 451.096 451.142 452.601 452.73 453.524L462.067 458.933C463.655 459.857 466.269 459.857 467.857 458.933L477.195 453.524C478.783 452.601 478.783 451.096 477.195 450.174L467.857 444.765Z" fill="white" stroke="black" stroke-width="0.213448" stroke-miterlimit="10"/>
<path d="M461.31 473.177L458.056 463.127H431.343L428.089 473.177C427.789 474.1 428.254 475.101 429.484 475.811L441.096 482.53C443.082 483.677 446.317 483.677 448.302 482.53L459.917 475.811C461.146 475.101 461.609 474.1 461.31 473.177Z" fill="#E9EAEB"/>
<path d="M428.098 473.177C427.798 474.1 428.262 475.101 429.493 475.811L441.105 482.53C442.141 483.131 443.526 483.404 444.892 483.381V464.31L440.505 463.127H431.352L428.098 473.177Z" fill="#C2C8CF"/>
<path d="M461.31 473.177L458.056 463.127H431.343L428.089 473.177C427.789 474.1 428.254 475.101 429.484 475.811L441.096 482.53C443.082 483.677 446.317 483.677 448.302 482.53L459.917 475.811C461.146 475.101 461.609 474.1 461.31 473.177Z" stroke="black" stroke-width="0.213448" stroke-miterlimit="10"/>
<path d="M447.595 456.486C446.006 455.562 443.391 455.562 441.803 456.486L432.466 461.895C430.878 462.818 430.878 464.324 432.466 465.243L441.803 470.652C443.391 471.576 446.006 471.576 447.595 470.652L456.931 465.243C458.519 464.324 458.519 462.818 456.931 461.895L447.595 456.486Z" fill="white" stroke="black" stroke-width="0.213448" stroke-miterlimit="10"/>
<path d="M403.454 439.725L402.485 440.289L401.923 439.958C402.427 439.648 402.698 439.259 402.233 438.89L402.979 438.463L407.308 440.968L406.456 441.464L403.454 439.725Z" fill="black"/>
<path d="M424.576 428.995C424.682 428.442 424.973 427.927 424.421 427.606C424.024 427.373 423.54 427.344 423.162 427.558C422.736 427.811 422.794 428.131 423.336 428.471L422.542 428.937C421.564 428.374 421.438 427.723 422.455 427.131C423.385 426.597 424.537 426.655 425.283 427.082C426.097 427.548 425.922 428.092 425.758 428.597C425.641 428.908 425.535 429.296 425.661 429.539L427.627 428.403L428.334 428.811L425.273 430.588C424.479 430.093 424.489 429.51 424.595 429.005L424.576 428.995Z" fill="black"/>
<path d="M443.916 418.081L444.73 417.615C445.273 417.896 445.853 417.974 446.444 417.634C446.919 417.362 446.938 417.051 446.502 416.799C446.086 416.556 445.573 416.566 445.05 416.867L444.788 417.022L444.139 416.643L444.381 416.507C444.788 416.274 444.866 415.993 444.498 415.779C444.159 415.585 443.704 415.585 443.326 415.799C442.841 416.08 442.919 416.4 443.345 416.672L442.532 417.139C441.718 416.634 441.679 415.993 442.667 415.42C443.558 414.905 444.575 414.828 445.292 415.245C445.776 415.527 445.747 415.866 445.466 416.187H445.476C446.154 415.954 446.822 415.973 447.422 416.313C448.314 416.828 448.013 417.498 447.142 418.013C446.038 418.653 444.856 418.624 443.907 418.081H443.916Z" fill="black"/>
<path d="M423.058 452.883C422.293 452.446 421.828 452.009 421.78 451.533C421.741 451.194 421.934 450.873 422.506 450.533C423.358 450.038 424.337 450.018 425.082 450.329L424.269 450.805C423.94 450.689 423.562 450.689 423.184 450.902C422.564 451.261 422.729 451.708 423.494 452.145H423.504C423.465 451.854 423.562 451.592 424.056 451.3C424.85 450.844 426.157 450.805 427.077 451.329C427.959 451.844 427.881 452.602 427 453.116C425.78 453.825 424.23 453.543 423.058 452.883ZM426.293 451.805C425.799 451.523 425.092 451.504 424.627 451.776C424.104 452.077 424.152 452.465 424.656 452.747C425.14 453.029 425.828 453.029 426.303 452.747C426.767 452.485 426.758 452.067 426.293 451.805Z" fill="black"/>
<path d="M444.091 441.686L444.924 441.201C445.418 441.405 445.97 441.318 446.406 441.056C446.89 440.774 446.842 440.395 446.386 440.133C445.873 439.842 445.253 439.871 444.808 440.133C444.488 440.318 444.362 440.541 444.381 440.696L443.568 441.172L441.631 439.579L444.149 438.123L444.856 438.531L442.929 439.648L443.694 440.279H443.704C443.723 440.065 443.926 439.832 444.314 439.599C445.069 439.162 446.328 439.094 447.258 439.628C448.158 440.142 448.062 440.919 447.132 441.463C446.183 442.007 444.992 442.124 444.081 441.686H444.091Z" fill="black"/>
<path d="M463.56 429.432C462.793 428.995 462.33 428.558 462.28 428.082C462.24 427.742 462.435 427.422 463.006 427.082C463.86 426.587 464.835 426.567 465.584 426.878L464.772 427.354C464.44 427.237 464.064 427.237 463.683 427.451C463.065 427.811 463.229 428.257 463.996 428.694H464.005C463.964 428.403 464.064 428.14 464.558 427.849C465.352 427.393 466.659 427.354 467.58 427.878C468.461 428.393 468.383 429.15 467.49 429.665C466.269 430.374 464.722 430.092 463.551 429.432H463.56ZM466.795 428.354C466.301 428.073 465.593 428.053 465.126 428.325C464.604 428.626 464.654 429.014 465.157 429.296C465.643 429.577 466.328 429.577 466.804 429.296C467.267 429.034 467.258 428.616 466.795 428.354Z" fill="black"/>
<path d="M444.086 462.468H444.076L441.955 463.682L441.219 463.255L444.26 461.494L444.967 461.904C444.986 462.795 445.519 463.933 447.02 464.874L446.1 465.411C444.579 464.456 444.115 463.223 444.086 462.468Z" fill="black"/>
<path d="M464.345 453.407C463.814 453.096 463.705 452.679 463.996 452.3H463.977C463.424 452.407 462.943 452.378 462.525 452.145C461.799 451.727 462.013 451.115 462.934 450.591C463.85 450.057 464.858 449.95 465.584 450.368C465.983 450.601 466.042 450.892 465.856 451.203H465.874C466.514 451.038 467.222 451.096 467.744 451.397C468.628 451.911 468.392 452.611 467.426 453.174C466.46 453.737 465.216 453.912 464.354 453.407H464.345ZM464.84 450.882C464.499 450.688 464.018 450.708 463.569 450.96C463.124 451.222 463.088 451.504 463.424 451.698C463.764 451.892 464.268 451.882 464.713 451.62C465.157 451.368 465.18 451.077 464.84 450.882ZM466.872 451.902C466.437 451.649 465.838 451.659 465.316 451.96C464.79 452.261 464.753 452.621 465.189 452.873C465.606 453.116 466.187 453.077 466.709 452.776C467.204 452.485 467.281 452.135 466.872 451.902Z" fill="black"/>
<path d="M485.004 441.697L485.826 441.221C486.157 441.328 486.561 441.337 486.942 441.114C487.21 440.959 487.327 440.794 487.287 440.599C487.241 440.376 486.987 440.123 486.542 439.861H486.533C486.57 440.153 486.484 440.444 486.012 440.716C485.149 441.221 483.888 441.25 482.967 440.716C482.087 440.201 482.155 439.444 483.067 438.91C484.201 438.249 485.553 438.307 487.01 439.143C488.385 439.939 488.857 440.735 487.6 441.464C486.706 441.978 485.721 441.997 484.982 441.677L485.004 441.697ZM485.476 439.279C484.982 438.997 484.278 439.007 483.793 439.288C483.298 439.57 483.307 439.978 483.775 440.25C484.256 440.531 484.918 440.551 485.44 440.25C485.921 439.968 485.971 439.56 485.476 439.279Z" fill="black"/>
<path d="M459.617 502.57C458.505 503.211 458.129 504.64 458.768 505.754C459.404 506.873 460.828 507.251 461.945 506.609L543.629 459.329C544.74 458.692 545.122 457.263 544.482 456.144C543.842 455.03 542.417 454.65 541.306 455.289L459.617 502.57Z" fill="black" stroke="black" stroke-width="0.213448" stroke-miterlimit="10"/>
<path d="M349.072 430.568C345.817 432.452 340.49 432.452 337.237 430.568L321.643 421.538C318.389 419.654 318.389 416.566 321.643 414.682L401.081 368.704C404.335 366.82 409.662 366.82 412.916 368.704L428.509 377.734C431.764 379.618 431.764 382.706 428.509 384.59L349.072 430.568Z" fill="black"/>
<path d="M335.726 421.121C335.299 421.363 334.651 421.383 334.263 421.159L329.769 418.557C329.382 418.334 329.421 417.955 329.837 417.712C330.263 417.469 330.912 417.45 331.3 417.673L335.794 420.276C336.181 420.499 336.142 420.878 335.726 421.121Z" fill="#E9EAEB"/>
<path d="M350.331 421.353C349.905 421.596 349.256 421.615 348.868 421.392L344.374 418.79C343.987 418.567 344.026 418.188 344.442 417.945C344.869 417.702 345.517 417.683 345.904 417.906L350.398 420.509C350.786 420.732 350.747 421.111 350.331 421.353Z" fill="#E9EAEB"/>
<path d="M342.838 417.013C342.412 417.256 341.763 417.276 341.375 417.052L336.881 414.45C336.494 414.226 336.533 413.848 336.949 413.605C337.375 413.362 338.024 413.343 338.412 413.566L342.906 416.168C343.293 416.392 343.254 416.771 342.838 417.013Z" fill="#E9EAEB"/>
<path d="M337.364 421.179L337.248 421.111C336.831 420.868 336.87 420.46 337.325 420.198L341.248 417.926C341.703 417.664 342.41 417.644 342.826 417.877L342.942 417.945C343.359 418.188 343.32 418.596 342.865 418.858L338.943 421.13C338.488 421.392 337.781 421.412 337.364 421.179Z" fill="#E9EAEB"/>
<path d="M329.858 416.838L329.742 416.77C329.325 416.527 329.364 416.12 329.819 415.858L333.741 413.585C334.196 413.323 334.903 413.304 335.32 413.537L335.436 413.605C335.853 413.847 335.814 414.255 335.359 414.517L331.436 416.79C330.981 417.052 330.274 417.071 329.858 416.838Z" fill="#E9EAEB"/>
<path d="M344.861 425.519L344.745 425.451C344.329 425.208 344.368 424.8 344.823 424.538L348.745 422.266C349.201 422.004 349.908 421.984 350.324 422.218L350.44 422.286C350.857 422.528 350.818 422.936 350.363 423.198L346.44 425.47C345.985 425.732 345.278 425.752 344.861 425.519Z" fill="#E9EAEB"/>
<path d="M361.276 415.013C360.85 415.255 360.201 415.275 359.813 415.051L355.319 412.449C354.932 412.226 354.971 411.847 355.387 411.604C355.813 411.361 356.462 411.342 356.85 411.565L361.343 414.168C361.731 414.391 361.692 414.77 361.276 415.013Z" fill="#E9EAEB"/>
<path d="M353.778 410.672C353.352 410.915 352.703 410.934 352.316 410.711L347.822 408.108C347.435 407.885 347.473 407.506 347.89 407.264C348.316 407.021 348.965 407.002 349.352 407.225L353.846 409.827C354.234 410.05 354.195 410.429 353.778 410.672Z" fill="#E9EAEB"/>
<path d="M340.803 410.507L340.686 410.439C340.27 410.196 340.308 409.788 340.763 409.526L344.686 407.254C345.141 406.992 345.848 406.972 346.265 407.205L346.381 407.273C346.797 407.516 346.759 407.924 346.304 408.186L342.381 410.458C341.926 410.72 341.219 410.74 340.803 410.507Z" fill="#E9EAEB"/>
<path d="M357.607 408.458C357.181 408.7 356.532 408.72 356.144 408.497L351.65 405.894C351.263 405.671 351.302 405.292 351.718 405.05C352.144 404.807 352.793 404.787 353.181 405.01L357.674 407.613C358.062 407.837 358.023 408.215 357.607 408.458Z" fill="#E9EAEB"/>
<path d="M372.212 408.681C371.786 408.924 371.137 408.943 370.75 408.72L366.256 406.118C365.868 405.894 365.907 405.516 366.323 405.273C366.749 405.03 367.398 405.011 367.786 405.234L372.28 407.837C372.667 408.06 372.628 408.438 372.212 408.681Z" fill="#E9EAEB"/>
<path d="M359.232 408.516L359.115 408.449C358.699 408.206 358.738 407.798 359.193 407.536L363.115 405.264C363.571 405.002 364.278 404.982 364.694 405.215L364.81 405.283C365.227 405.526 365.188 405.934 364.733 406.196L360.81 408.468C360.355 408.73 359.648 408.75 359.232 408.516Z" fill="#E9EAEB"/>
<path d="M351.734 404.176L351.618 404.108C351.202 403.865 351.24 403.457 351.695 403.195L355.618 400.923C356.073 400.661 356.78 400.641 357.197 400.874L357.313 400.942C357.729 401.185 357.691 401.593 357.236 401.855L353.313 404.127C352.858 404.389 352.151 404.409 351.734 404.176Z" fill="#E9EAEB"/>
<path d="M366.738 412.857L366.622 412.789C366.205 412.546 366.244 412.138 366.699 411.876L370.622 409.604C371.077 409.342 371.784 409.322 372.201 409.555L372.317 409.623C372.733 409.866 372.694 410.274 372.239 410.536L368.317 412.808C367.861 413.071 367.155 413.09 366.738 412.857Z" fill="#E9EAEB"/>
<path d="M376.036 406.467C375.61 406.71 374.961 406.73 374.573 406.506L370.079 403.904C369.692 403.68 369.731 403.302 370.147 403.059C370.574 402.816 371.222 402.797 371.61 403.02L376.104 405.622C376.491 405.846 376.452 406.225 376.036 406.467Z" fill="#E9EAEB"/>
<path d="M368.539 402.127C368.112 402.37 367.464 402.389 367.076 402.166L362.582 399.563C362.195 399.34 362.233 398.962 362.65 398.719C363.076 398.476 363.725 398.457 364.112 398.68L368.606 401.282C368.994 401.506 368.955 401.885 368.539 402.127Z" fill="#E9EAEB"/>
<path d="M383.157 402.35C382.731 402.593 382.082 402.612 381.694 402.389L377.201 399.787C376.813 399.563 376.852 399.185 377.268 398.942C377.694 398.699 378.343 398.68 378.731 398.903L383.225 401.505C383.612 401.729 383.573 402.108 383.157 402.35Z" fill="#E9EAEB"/>
<path d="M375.651 398.01C375.225 398.252 374.576 398.272 374.188 398.048L369.694 395.446C369.307 395.223 369.345 394.844 369.762 394.601C370.188 394.358 370.837 394.339 371.224 394.562L375.718 397.165C376.106 397.388 376.067 397.767 375.651 398.01Z" fill="#E9EAEB"/>
<path d="M362.679 397.845L362.563 397.777C362.147 397.534 362.185 397.126 362.64 396.864L366.563 394.592C367.018 394.329 367.725 394.31 368.141 394.543L368.258 394.611C368.674 394.854 368.636 395.262 368.18 395.524L364.258 397.796C363.803 398.058 363.096 398.078 362.679 397.845Z" fill="#E9EAEB"/>
<path d="M377.674 406.525L377.558 406.457C377.141 406.215 377.18 405.807 377.635 405.544L381.558 403.273C382.013 403.01 382.72 402.991 383.136 403.224L383.253 403.292C383.669 403.535 383.631 403.943 383.175 404.205L379.253 406.477C378.798 406.739 378.09 406.759 377.674 406.525Z" fill="#E9EAEB"/>
<path d="M386.981 400.136C386.555 400.379 385.906 400.399 385.518 400.175L381.024 397.573C380.637 397.35 380.676 396.971 381.092 396.728C381.518 396.485 382.167 396.466 382.555 396.689L387.049 399.291C387.436 399.515 387.397 399.894 386.981 400.136Z" fill="#E9EAEB"/>
<path d="M379.474 395.795C379.048 396.038 378.399 396.058 378.012 395.835L373.518 393.232C373.131 393.009 373.169 392.63 373.586 392.387C374.012 392.145 374.661 392.125 375.048 392.348L379.542 394.951C379.93 395.174 379.891 395.553 379.474 395.795Z" fill="#E9EAEB"/>
<path d="M394.088 396.019C393.662 396.262 393.013 396.281 392.626 396.058L388.132 393.456C387.745 393.232 387.783 392.854 388.2 392.611C388.626 392.368 389.275 392.349 389.662 392.572L394.156 395.174C394.544 395.398 394.505 395.777 394.088 396.019Z" fill="#E9EAEB"/>
<path d="M386.596 391.678C386.169 391.921 385.521 391.94 385.133 391.717L380.639 389.115C380.252 388.891 380.29 388.513 380.707 388.27C381.133 388.027 381.782 388.008 382.169 388.231L386.663 390.833C387.051 391.057 387.012 391.435 386.596 391.678Z" fill="#E9EAEB"/>
<path d="M373.615 391.514L373.499 391.446C373.082 391.203 373.121 390.795 373.576 390.533L377.499 388.261C377.954 387.998 378.661 387.979 379.078 388.212L379.194 388.28C379.61 388.523 379.571 388.931 379.116 389.193L375.194 391.465C374.739 391.727 374.032 391.747 373.615 391.514Z" fill="#E9EAEB"/>
<path d="M390.189 400.156C389.734 400.418 389.027 400.437 388.61 400.204L388.494 400.136C388.077 399.894 388.116 399.485 388.571 399.223L392.494 396.951C392.949 396.689 393.656 396.669 394.073 396.902L394.189 396.971C394.605 397.214 394.566 397.621 394.111 397.883L390.189 400.156Z" fill="#E9EAEB"/>
<path d="M629.469 538.255L645.614 623.349L502.914 540.288V535.684L476.528 520.576C471.968 517.933 470.33 514.862 468.52 511.555C466.446 507.765 464.549 503.903 464.549 503.903L525.887 468.391L629.469 538.268V538.255Z" fill="black" stroke="black" stroke-width="0.213448" stroke-miterlimit="10"/>
<path d="M489.079 503.707C491.461 502.911 493.666 501.86 495.731 500.659L573.622 455.271C571.557 456.476 569.347 457.522 566.965 458.319C563.517 459.465 559.955 460.02 556.089 460.011C551.819 460.002 546.687 459.765 542.422 457.008L464.536 502.397C468.343 504.339 473.928 505.386 478.203 505.395C482.064 505.404 485.631 504.862 489.079 503.707Z" fill="white" stroke="black" stroke-width="0.213448" stroke-miterlimit="10"/>
<path d="M495.79 500.704L573.676 455.321C577.456 453.116 580.737 450.426 583.654 447.911C583.99 447.62 584.348 447.367 584.716 447.154L506.83 492.538C506.462 492.752 506.104 493.007 505.763 493.298C502.85 495.814 499.565 498.503 495.79 500.704Z" fill="black" stroke="black" stroke-width="0.213448" stroke-miterlimit="10"/>
<path d="M584.68 447.096C586.463 446.057 588.632 445.872 591.023 446.562C592.071 446.862 593.133 447.329 594.19 447.95C595.855 448.911 597.503 450.242 599.014 451.844C601.378 454.349 603.292 457.391 604.545 460.612C605.91 464.146 606.432 467.845 606.056 471.302L603.751 492.238C603.351 495.841 603.71 499.326 604.812 502.602C605.783 505.454 607.331 508.143 609.309 510.367C610.779 512.028 612.467 513.429 614.219 514.439C614.995 514.885 615.789 515.262 616.583 515.553C619.069 516.477 621.32 516.459 622.926 515.526L545.035 560.91C543.438 561.843 541.192 561.852 538.692 560.942C537.912 560.651 537.113 560.278 536.332 559.823C534.586 558.813 532.893 557.416 531.418 555.756C529.445 553.522 527.884 550.842 526.926 547.985C525.824 544.714 525.465 541.23 525.86 537.627L528.165 516.691C528.542 513.233 528.02 509.535 526.654 506C525.406 502.774 523.487 499.736 521.123 497.229C519.612 495.618 517.969 494.299 516.304 493.335C515.247 492.725 514.171 492.257 513.137 491.947C510.741 491.247 508.581 491.442 506.789 492.484L584.68 447.096Z" fill="white" stroke="black" stroke-width="0.213448" stroke-miterlimit="10"/>
<path d="M538.102 525.712C535.992 519.671 535.071 514.503 535.38 510.358C535.652 506.719 536.904 503.957 538.996 502.388C539.227 502.21 539.468 502.056 539.713 501.91L617.599 456.526C617.35 456.672 617.114 456.827 616.882 457C614.799 458.574 613.552 461.33 613.27 464.974C612.948 469.119 613.869 474.282 615.993 480.324L624.147 503.58C625.24 506.719 625.667 509.389 625.385 511.486C625.136 513.361 624.319 514.757 623.021 515.544C623.003 515.553 622.976 515.572 622.953 515.581L545.067 560.969C545.067 560.969 545.117 560.942 545.135 560.928C546.433 560.146 547.254 558.744 547.499 556.87C547.781 554.773 547.363 552.103 546.256 548.968L538.102 525.712Z" fill="black" stroke="black" stroke-width="0.213448" stroke-miterlimit="10"/>
<path d="M622.953 515.594L549.192 558.59" stroke="#777E87" stroke-width="0.213448" stroke-miterlimit="10" stroke-linecap="round"/>
<path d="M617.554 456.467C619.373 455.407 621.633 455.166 624.128 455.776C625.503 456.108 626.892 456.681 628.258 457.477C629.737 458.333 631.198 459.447 632.595 460.798C635.395 463.505 637.805 467.058 639.561 471.089C641.552 475.652 642.705 480.752 642.986 486.22C643.036 487.266 643.082 488.353 643.132 489.413C643.354 494.345 643.585 499.445 644.479 504.776C645.496 510.813 647.229 516.231 649.806 521.322C652.933 527.509 657.261 533.255 663.038 538.869C666.191 541.944 669.835 545.006 673.846 547.958C678.084 551.084 682.88 554.2 688.103 557.221L723.463 577.747L645.573 623.135L610.212 602.609C604.98 599.579 600.189 596.472 595.955 593.342C591.935 590.38 588.305 587.323 585.147 584.253C579.366 578.643 575.037 572.893 571.916 566.706C569.343 561.62 567.609 556.211 566.588 550.16C565.699 544.828 565.468 539.733 565.245 534.802C565.195 533.742 565.146 532.654 565.1 531.604C564.819 526.126 563.666 521.04 561.67 516.477C559.918 512.446 557.504 508.903 554.705 506.182C553.312 504.835 551.851 503.716 550.367 502.861C549.001 502.065 547.608 501.492 546.242 501.164C543.733 500.55 541.478 500.796 539.667 501.851L617.554 456.467Z" fill="white" stroke="black" stroke-width="0.213448" stroke-miterlimit="10"/>
<path d="M569.456 505.036L613.661 479.287" stroke="url(#paint10_linear_0_723)" stroke-width="0.213448" stroke-miterlimit="10"/>
<path d="M556.86 494.977L601.06 469.224" stroke="url(#paint11_linear_0_723)" stroke-width="0.213448" stroke-miterlimit="10"/>
<path d="M531.741 491.047L575.945 465.293" stroke="url(#paint12_linear_0_723)" stroke-width="0.213448" stroke-miterlimit="10"/>
<path d="M527.716 487.607L571.92 461.854" stroke="url(#paint13_linear_0_723)" stroke-width="0.213448" stroke-miterlimit="10"/>
<path d="M572.297 510.281L616.501 484.527" stroke="url(#paint14_linear_0_723)" stroke-width="0.213448" stroke-miterlimit="10"/>
<path d="M574.339 516.231L609.468 495.764" stroke="url(#paint15_linear_0_723)" stroke-width="0.213448" stroke-miterlimit="10"/>
<path d="M577.787 546.034L621.991 520.285" stroke="url(#paint16_linear_0_723)" stroke-width="0.213448" stroke-miterlimit="10"/>
<path d="M579.239 552.403L623.434 526.654" stroke="url(#paint17_linear_0_723)" stroke-width="0.213448" stroke-miterlimit="10"/>
<path d="M581.458 558.231L625.658 532.477" stroke="url(#paint18_linear_0_723)" stroke-width="0.213448" stroke-miterlimit="10"/>
<path d="M584.239 563.612L594.408 557.689" stroke="url(#paint19_linear_0_723)" stroke-width="0.213448" stroke-miterlimit="10"/>
<path d="M636.239 578.088L613.661 591.244L618.534 594.07L641.108 580.913L636.239 578.088Z" fill="url(#paint20_linear_0_723)"/>
<path d="M623.416 596.886L667.607 571.137" stroke="url(#paint21_linear_0_723)" stroke-width="0.213448" stroke-miterlimit="10"/>
<path d="M628.285 599.715L672.489 573.962" stroke="url(#paint22_linear_0_723)" stroke-width="0.213448" stroke-miterlimit="10"/>
<path d="M633.167 602.541L677.372 576.787" stroke="url(#paint23_linear_0_723)" stroke-width="0.213448" stroke-miterlimit="10"/>
<path d="M638.045 605.366L682.24 579.612" stroke="url(#paint24_linear_0_723)" stroke-width="0.213448" stroke-miterlimit="10"/>
<path d="M642.918 608.182L671.064 591.791" stroke="url(#paint25_linear_0_723)" stroke-width="0.213448" stroke-miterlimit="10"/>
<path d="M257.932 612.685C266.106 617.417 279.481 617.417 287.656 612.685L394.938 550.588C403.113 545.861 403.113 538.122 394.938 533.382L290.619 472.995C282.445 468.263 269.07 468.263 260.895 472.995L153.613 535.093C145.439 539.819 145.439 547.558 153.613 552.298L257.932 612.685Z" fill="#C2C8CF" stroke="black" stroke-width="0.213448" stroke-linecap="round" stroke-linejoin="round"/>
<path d="M257.932 607.422C266.106 612.153 279.481 612.153 287.656 607.422L394.938 545.324C403.113 540.597 403.113 532.859 394.938 528.118L290.619 467.731C282.445 463 269.07 463 260.895 467.731L153.613 529.829C145.439 534.556 145.439 542.294 153.613 547.034L257.932 607.422Z" fill="#C2C8CF" stroke="black" stroke-width="0.213448" stroke-linecap="round" stroke-linejoin="round"/>
<path d="M257.932 602.172C266.106 606.899 279.481 606.899 287.656 602.172L394.938 540.074C403.113 535.343 403.113 527.604 394.938 522.864L290.619 462.477C282.445 457.745 269.07 457.745 260.895 462.477L153.613 524.575C145.439 529.301 145.439 537.044 153.613 541.78L257.932 602.172Z" fill="#C2C8CF" stroke="black" stroke-width="0.213448" stroke-linecap="round" stroke-linejoin="round"/>
<path d="M387.577 522.864L283.258 462.477C280.11 460.652 276.178 459.542 272.081 459.128C267.984 459.542 264.052 460.662 260.904 462.477L153.622 524.575C145.447 529.301 145.447 537.044 153.622 541.78L257.941 602.172C261.089 603.996 265.02 605.102 269.117 605.52C273.214 605.102 277.146 603.987 280.294 602.172L387.577 540.074C395.751 535.343 395.751 527.604 387.577 522.864Z" fill="black"/>
<path d="M128.799 508.302C131.22 515.863 138.814 518.806 145.681 514.835L257.864 449.902C264.731 445.93 268.363 436.482 265.951 428.918L219.927 284.903C217.506 277.339 209.912 274.397 203.046 278.368L90.8625 343.302C83.9955 347.273 80.3637 356.721 82.7754 364.286L128.799 508.302Z" fill="url(#paint26_linear_0_723)"/>
<path d="M95.5002 369.617L99.3644 367.384L97.6987 362.169L99.0159 361.412L100.682 366.626L104.546 364.392L105.079 366.063L101.214 368.296L102.88 373.51L101.563 374.268L99.8971 369.054L96.033 371.287L95.5002 369.617Z" fill="black"/>
<path d="M107.279 358.44L104.296 360.169L103.831 358.712C105.487 357.692 106.659 356.051 106.078 353.264L107.375 352.517L113.119 370.49L111.443 371.461L107.279 358.44Z" fill="black"/>
<path d="M117.534 358.062C118.891 355.663 119.694 354.119 119.007 351.954C118.309 349.759 116.673 348.943 114.861 349.992C113.903 350.546 113.321 351.38 113.05 352.371C112.76 353.439 112.837 354.565 113.418 356.391L111.665 357.401C110.929 355.1 110.92 353.381 111.404 351.798C111.917 350.167 113.021 348.885 114.416 348.079C117.186 346.477 119.704 347.739 120.721 350.924C121.825 354.372 120.401 356.556 118.716 359.411C117.583 361.334 116.159 363.887 116.421 366.092L123.869 361.781L124.537 363.868L115.084 369.345C113.718 364.48 115.724 361.247 117.534 358.062Z" fill="black"/>
<path d="M124.351 357.926C123.528 355.343 124.351 353.197 125.668 351.653L125.639 351.575C124.167 351.682 122.889 350.847 122.288 349.002C121.378 346.157 122.762 343.185 125.271 341.738C127.78 340.282 130.327 340.942 131.237 343.816C131.828 345.671 131.431 347.448 130.366 348.837L130.395 348.914C132.118 348.623 133.872 349.526 134.646 351.954C135.944 356.022 133.823 358.955 131.315 360.411C128.806 361.858 125.629 361.965 124.341 357.926H124.351ZM129.649 344.836C129.068 343.01 127.624 342.544 125.872 343.564C124.119 344.574 123.373 346.312 123.964 348.137C124.545 349.963 125.988 350.429 127.741 349.41C129.494 348.4 130.239 346.671 129.649 344.836ZM132.99 352.925C132.244 350.575 130.482 349.866 128.293 351.129C126.143 352.371 125.319 354.585 126.065 356.935C126.811 359.256 128.554 359.858 130.743 358.586C132.874 357.353 133.726 355.226 132.99 352.925Z" fill="black"/>
<path d="M136.798 353.711L138.726 352.594L139.549 355.177L137.622 356.294L136.798 353.711Z" fill="black"/>
<path d="M139.034 349.361L140.69 348.409C141.62 350.497 143.267 351.215 145.194 350.099C147.141 348.972 147.848 346.525 147.015 343.913C146.153 341.223 144.245 340.476 142.453 341.515C140.981 342.369 140.216 343.738 139.983 345.146L138.376 346.078L136.816 335.601L144.08 331.396L144.709 333.358L138.618 336.883L139.441 342.777L139.48 342.757C139.945 341.34 140.806 340.194 142.124 339.436C144.555 338.028 147.489 339.019 148.758 342.991C149.978 346.797 148.671 350.4 145.843 352.031C143.015 353.663 140.235 352.623 139.053 349.38L139.034 349.361Z" fill="black"/>
<path d="M115.21 463.819C117.341 461.408 120.624 462.304 124.353 465.174L127.171 467.349C133.457 472.185 137.156 469.383 136.469 460.284L134.755 437.453C133.834 425.189 140.149 421.207 146.939 429.762L150.503 434.248C155.665 440.754 159.617 438.812 160.934 429.121L161.563 424.451C162.774 415.507 166.183 413.731 171.287 419.363L173.563 421.877C179.684 428.646 185.089 424.664 183.248 414.731L174.871 369.442C172.469 356.449 181.263 351.186 186.987 362.188L199.142 385.58C203.016 393.038 207.607 391.261 209.05 381.735L209.466 378.958C210.725 370.616 213.737 369.024 218.648 374.103L221.824 377.385C228.904 384.706 234.164 381.249 233.737 369.568L233.108 352.167C232.846 344.991 233.718 340.961 236.469 339.369" stroke="white" stroke-width="0.213448" stroke-linecap="round" stroke-linejoin="round"/>
<path d="M178.193 360.072C179.482 360.072 180.528 358.541 180.528 356.654C180.528 354.766 179.482 353.235 178.193 353.235C176.904 353.235 175.859 354.766 175.859 356.654C175.859 358.541 176.904 360.072 178.193 360.072Z" fill="black"/>
<path d="M178.194 356.653L211.57 461.098" stroke="black" stroke-width="0.213448" stroke-linecap="round" stroke-linejoin="round"/>
<path d="M152.78 513.147C147.26 505.327 139.841 500.054 133.885 499.718C131.589 499.59 131.803 494.368 134.175 494.463C141.788 494.782 150.553 500.882 157.062 510.095L152.78 513.138V513.147Z" fill="white" stroke="black" stroke-width="0.213448" stroke-miterlimit="10"/>
<path d="M146.201 513.147C141.601 519.612 143.451 521.663 150.317 517.692L262.501 452.757C269.368 448.785 278.743 440.24 283.343 433.763L333.474 363.237C338.075 356.77 336.225 354.721 329.358 358.693L217.174 423.626C210.308 427.598 200.932 436.142 196.332 442.619L146.201 513.147Z" fill="#777E87" stroke="black" stroke-width="0.213448" stroke-linecap="round" stroke-linejoin="round"/>
<path d="M153.436 536.344C146.23 533.196 145.901 527.4 152.71 523.456L261.813 460.302C270.433 455.312 284.941 454.495 294.065 458.464L395.759 502.843C403.13 506.055 403.459 511.982 396.505 516.008L284.661 580.749C277.707 584.78 265.987 585.44 258.617 582.223L153.436 536.335V536.344Z" fill="#C2C8CF" stroke="black" stroke-width="0.213448" stroke-linecap="round" stroke-linejoin="round"/>
<path d="M371.702 516.445C379.044 512.196 378.918 505.472 371.421 501.501L286.24 456.367C277.94 455.194 268.235 456.595 261.804 460.312L152.701 523.469C145.892 527.409 146.221 533.209 153.427 536.353L258.279 582.11L371.692 516.459L371.702 516.445Z" fill="black"/>
<path d="M152.71 523.469C145.901 527.409 146.23 533.205 153.436 536.353L258.288 582.11" stroke="#777E87" stroke-width="0.213448" stroke-miterlimit="10"/>
<path d="M160.859 533.587C160.626 531.217 160.103 528.733 159.309 526.208L164.307 524.625C165.207 527.496 165.808 530.334 166.069 533.073L160.849 533.587H160.859Z" fill="white" stroke="black" stroke-width="0.213448" stroke-miterlimit="10"/>
<path d="M154.464 529.702C146.445 529.179 145.582 525.448 152.537 521.418L264.381 456.681C271.335 452.65 283.586 449.785 291.606 450.319L383.818 456.381C391.838 456.904 392.7 460.63 385.746 464.661L273.902 529.402C266.947 533.432 254.696 536.294 246.677 535.762L154.464 529.702Z" fill="url(#paint27_linear_0_723)" stroke="black" stroke-width="0.213448" stroke-linecap="round" stroke-linejoin="round"/>
<path d="M334.038 472.585C331.481 461.517 299.259 460.757 262.058 470.875C246.823 475.024 233.128 480.356 222.426 485.956L228.547 487.566C237.613 482.635 249.516 477.926 262.842 474.296C293.69 465.893 320.411 466.535 322.532 475.711C323.694 480.724 317.254 487.248 306.155 493.512L314.28 494.044C327.665 486.502 335.423 478.636 334.029 472.585H334.038Z" fill="white"/>
<path d="M306.164 493.512C296.944 498.707 284.518 503.725 270.523 507.533C261.884 509.88 253.574 511.523 246.029 512.464C226.639 514.894 212.354 512.719 210.823 506.113C209.622 500.9 216.625 494.053 228.547 487.566L222.426 485.956C206.998 494.044 197.826 502.706 199.327 509.243C201.167 517.214 218.388 519.834 241.777 516.904C250.872 515.767 260.896 513.788 271.307 510.949C288.188 506.359 303.172 500.309 314.29 494.044L306.164 493.512Z" fill="black"/>
<path d="M334.038 472.585C331.481 461.517 299.259 460.757 262.058 470.875C246.823 475.024 233.128 480.356 222.426 485.956C206.998 494.044 197.826 502.706 199.327 509.244C201.167 517.214 218.388 519.834 241.777 516.905C250.872 515.767 260.896 513.788 271.307 510.95C288.188 506.359 303.172 500.309 314.29 494.044C327.675 486.502 335.433 478.636 334.038 472.585Z" stroke="black" stroke-width="0.213448" stroke-miterlimit="10"/>
<path d="M285.427 467.954C290.889 464.788 290.56 460.293 284.691 457.973L272.604 453.184C269.514 454.174 266.657 455.371 264.381 456.69L152.537 521.427C145.582 525.457 146.445 529.188 154.464 529.711L176.265 531.149L285.427 467.963V467.954Z" fill="black"/>
<path d="M147.89 526.877C148.238 528.383 150.456 529.438 154.466 529.702L176.267 531.14" stroke="#777E87" stroke-width="0.213448" stroke-miterlimit="10"/>
<path d="M159.309 526.208C158.321 523.069 156.945 519.953 155.212 516.941C154.456 515.631 153.643 514.361 152.791 513.147L157.071 510.108C158.021 511.445 158.921 512.865 159.754 514.311C161.682 517.651 163.212 521.126 164.316 524.625L159.318 526.208H159.309Z" fill="white" stroke="black" stroke-width="0.213448" stroke-miterlimit="10"/>
<path d="M210.234 288.146C209.827 286.855 208.529 286.36 207.367 287.04L197.265 292.885C196.093 293.565 195.483 295.167 195.89 296.458C196.297 297.75 197.595 298.245 198.757 297.566L208.858 291.72C210.03 291.04 210.64 289.438 210.234 288.146Z" fill="black"/>
<path d="M350 618.504C357.178 618.504 362.997 615.133 362.997 610.975C362.997 606.822 357.178 603.451 350 603.451C342.822 603.451 337.002 606.822 337.002 610.975C337.002 615.133 342.822 618.504 350 618.504Z" fill="black"/>
<path d="M341.111 590.712V610.98C341.111 613.823 345.091 616.125 350.002 616.125C354.912 616.125 358.893 613.823 358.893 610.98V590.712H341.101H341.111Z" fill="white"/>
<path d="M350.815 593.169V616.125" stroke="#C2C8CF" stroke-width="0.213448" stroke-linecap="round" stroke-linejoin="round"/>
<path d="M341.11 590.653V610.98C341.11 613.464 344.597 616.125 348.897 616.125V590.653H341.11Z" fill="#C2C8CF"/>
<path d="M341.111 590.712V610.98C341.111 613.823 345.091 616.125 350.002 616.125C354.912 616.125 358.893 613.823 358.893 610.98V590.712H341.101H341.111Z" stroke="black" stroke-width="0.213448" stroke-linecap="round" stroke-linejoin="round"/>
<path d="M350.001 595.858C354.911 595.858 358.892 593.556 358.892 590.713C358.892 587.869 354.911 585.567 350.001 585.567C345.091 585.567 341.11 587.869 341.11 590.713C341.11 593.556 345.091 595.858 350.001 595.858Z" fill="white" stroke="black" stroke-width="0.213448" stroke-linecap="round" stroke-linejoin="round"/>
<path d="M343.299 587.333L347.057 589.234" stroke="black" stroke-width="0.213448" stroke-linecap="round" stroke-linejoin="round"/>
<path d="M53.5598 438.172C54.0829 439.793 55.7101 440.424 57.1821 439.57L63.584 435.87C64.5042 435.336 64.9979 434.064 64.6685 433.045L62.044 424.82C61.6179 423.47 60.2621 422.946 59.0415 423.654L53.1822 427.044C51.7098 427.898 50.9253 429.918 51.4485 431.539L53.5693 438.162L53.5598 438.172Z" fill="#C2C8CF" stroke="black" stroke-width="0.213448" stroke-miterlimit="10"/>
<path d="M34.4432 509.066C33.2326 509.066 32.2544 508.088 32.2544 506.873V462.349C32.2544 452.378 39.2665 440.211 47.8766 435.22L51.7312 432.986C52.7775 432.384 54.1138 432.743 54.7141 433.792C55.3149 434.841 54.9564 436.181 53.9105 436.783L50.0559 439.016C42.7725 443.231 36.6127 453.922 36.6127 462.349V506.873C36.6127 508.088 35.6345 509.066 34.4239 509.066H34.4432Z" fill="#C2C8CF" stroke="black" stroke-width="0.213448" stroke-miterlimit="10"/>
<path d="M32.2544 501.678C32.2544 502.893 33.2326 503.871 34.4432 503.871C35.6539 503.871 36.6321 502.893 36.6321 501.678V510.031C36.6321 511.241 35.6539 512.223 34.4432 512.223C33.2326 512.223 32.2544 511.241 32.2544 510.031V501.678Z" fill="black" stroke="black" stroke-width="0.213448" stroke-miterlimit="10"/>
<path d="M318.348 636.824C325.527 636.824 331.346 633.457 331.346 629.299C331.346 625.146 325.527 621.775 318.348 621.775C311.17 621.775 305.351 625.146 305.351 629.299C305.351 633.457 311.17 636.824 318.348 636.824Z" fill="black"/>
<path d="M309.446 609.037V629.3C309.446 632.148 313.426 634.449 318.337 634.449C323.247 634.449 327.228 632.148 327.228 629.3V609.037H309.436H309.446Z" fill="white"/>
<path d="M319.158 611.494V634.449" stroke="#C2C8CF" stroke-width="0.213448" stroke-linecap="round" stroke-linejoin="round"/>
<path d="M309.445 608.978V629.3C309.445 631.788 312.932 634.45 317.232 634.45V608.978H309.445Z" fill="#C2C8CF"/>
<path d="M309.446 609.037V629.3C309.446 632.148 313.426 634.449 318.337 634.449C323.247 634.449 327.228 632.148 327.228 629.3V609.037H309.436H309.446Z" stroke="black" stroke-width="0.213448" stroke-linecap="round" stroke-linejoin="round"/>
<path d="M318.345 614.182C323.255 614.182 327.236 611.876 327.236 609.037C327.236 606.194 323.255 603.887 318.345 603.887C313.435 603.887 309.454 606.194 309.454 609.037C309.454 611.876 313.435 614.182 318.345 614.182Z" fill="white" stroke="black" stroke-width="0.213448" stroke-linecap="round" stroke-linejoin="round"/>
<path d="M311.643 605.657L315.401 607.558" stroke="black" stroke-width="0.213448" stroke-linecap="round" stroke-linejoin="round"/>
<path d="M390.88 589.703C393.223 591.063 397.059 591.063 399.393 589.703L431.46 571.137C433.804 569.777 433.804 567.561 431.46 566.201L427.131 563.699C424.788 562.339 420.952 562.339 418.618 563.699L386.55 582.265C384.206 583.625 384.206 585.836 386.55 587.196L390.88 589.703Z" fill="white" stroke="black" stroke-width="0.213448" stroke-linecap="round" stroke-linejoin="round"/>
<path d="M433.135 565.096L429.812 565.25L427.13 563.699C424.786 562.339 420.951 562.339 418.617 563.699L402.801 572.857L415.643 580.295L431.459 571.137C432.631 570.455 433.212 569.563 433.212 568.671L433.135 565.096Z" fill="black" stroke="black" stroke-width="0.213448" stroke-linecap="round" stroke-linejoin="round"/>
<path d="M415.656 580.295L431.472 567.952C433.71 566.347 433.71 563.89 431.472 562.589L427.143 560.087C424.799 558.726 420.761 558.854 418.63 560.514L402.814 572.857L415.656 580.295Z" fill="white" stroke="black" stroke-width="0.213448" stroke-linecap="round" stroke-linejoin="round"/>
<path d="M72.1366 333.046L65.0577 319.302L69.2041 317.166C70.1628 316.672 71.0442 316.451 71.8483 316.501C72.6501 316.546 73.3624 316.811 73.9852 317.294C74.608 317.777 75.128 318.423 75.545 319.233C75.9621 320.043 76.1842 320.837 76.2112 321.616C76.2382 322.394 76.0383 323.12 75.6115 323.793C75.1824 324.461 74.4924 325.04 73.5417 325.529L70.1863 327.258L69.4121 325.754L72.7196 324.051C73.3747 323.713 73.8466 323.334 74.1355 322.914C74.4283 322.491 74.5632 322.037 74.5402 321.551C74.5189 321.058 74.3665 320.536 74.083 319.986C73.7996 319.436 73.46 319.002 73.0643 318.685C72.6685 318.368 72.2113 318.202 71.6927 318.186C71.1717 318.165 70.5797 318.326 69.9166 318.667L67.3041 320.013L73.6226 332.281L72.1366 333.046ZM74.7328 323.897L80.9326 328.516L79.207 329.405L73.0551 324.761L74.7328 323.897Z" fill="#C2C8CF"/>
<path d="M86.6081 325.864C85.7213 326.321 84.8435 326.496 83.9745 326.389C83.1073 326.275 82.2959 325.912 81.5405 325.299C80.7868 324.679 80.1381 323.842 79.5943 322.786C79.0504 321.73 78.7429 320.711 78.6717 319.728C78.6021 318.74 78.7605 317.86 79.1469 317.089C79.535 316.312 80.1445 315.709 80.9754 315.281C81.4547 315.034 81.9742 314.88 82.5337 314.818C83.0932 314.757 83.6684 314.828 84.2593 315.033C84.8479 315.234 85.4254 315.605 85.9918 316.145C86.5582 316.686 87.0891 317.437 87.5846 318.399L87.9302 319.07L80.8359 322.724L80.1308 321.355L85.7871 318.441C85.4875 317.86 85.1163 317.394 84.6736 317.045C84.2348 316.693 83.7577 316.483 83.2423 316.415C82.7308 316.344 82.2195 316.441 81.7082 316.704C81.1449 316.994 80.7383 317.402 80.4881 317.927C80.2397 318.445 80.1335 319.01 80.1696 319.619C80.2057 320.229 80.37 320.818 80.6627 321.386L81.1328 322.299C81.5337 323.077 81.9934 323.676 82.5119 324.094C83.0321 324.505 83.5805 324.741 84.1571 324.8C84.7314 324.855 85.3041 324.736 85.8753 324.442C86.2468 324.25 86.5524 324.019 86.7921 323.749C87.0335 323.472 87.2029 323.158 87.3005 322.808C87.3958 322.453 87.4111 322.066 87.3466 321.646L88.934 321.372C89.0575 321.965 89.0508 322.546 88.9141 323.114C88.775 323.678 88.5123 324.199 88.1259 324.675C87.7372 325.147 87.2313 325.544 86.6081 325.864Z" fill="#C2C8CF"/>
<path d="M94.3958 308.539L96.3016 320.6L94.8636 321.341L86.151 312.785L87.6849 311.995L94.4562 318.901L94.5521 318.852L92.8619 309.329L94.3958 308.539Z" fill="#C2C8CF"/>
<path d="M105.211 316.283C104.324 316.74 103.447 316.915 102.578 316.807C101.71 316.694 100.899 316.33 100.144 315.717C99.3899 315.098 98.7411 314.26 98.1973 313.204C97.6535 312.148 97.346 311.129 97.2747 310.147C97.2051 309.158 97.3636 308.279 97.75 307.508C98.1381 306.73 98.7476 306.128 99.5784 305.7C100.058 305.453 100.577 305.299 101.137 305.237C101.696 305.175 102.271 305.247 102.862 305.452C103.451 305.653 104.028 306.023 104.595 306.564C105.161 307.104 105.692 307.855 106.188 308.817L106.533 309.488L99.439 313.142L98.7339 311.773L104.39 308.86C104.091 308.278 103.719 307.813 103.277 307.463C102.838 307.112 102.361 306.902 101.845 306.834C101.334 306.763 100.823 306.859 100.311 307.123C99.748 307.413 99.3413 307.82 99.0912 308.345C98.8427 308.864 98.7366 309.428 98.7726 310.038C98.8087 310.648 98.9731 311.237 99.2657 311.805L99.7358 312.718C100.137 313.496 100.596 314.094 101.115 314.512C101.635 314.924 102.184 315.159 102.76 315.219C103.334 315.274 103.907 315.155 104.478 314.86C104.85 314.669 105.155 314.438 105.395 314.167C105.637 313.89 105.806 313.577 105.904 313.226C105.999 312.872 106.014 312.484 105.95 312.065L107.537 311.791C107.661 312.384 107.654 312.964 107.517 313.533C107.378 314.097 107.115 314.617 106.729 315.094C106.34 315.566 105.834 315.962 105.211 316.283Z" fill="#C2C8CF"/>
<path d="M109.283 306.068L112.476 312.269L111.062 312.998L105.753 302.69L107.119 301.986L107.949 303.597L108.069 303.535C108.015 302.9 108.126 302.311 108.402 301.767C108.675 301.219 109.159 300.765 109.854 300.407C110.478 300.086 111.097 299.949 111.711 299.994C112.324 300.036 112.909 300.278 113.466 300.721C114.02 301.16 114.523 301.818 114.975 302.695L118.348 309.245L116.934 309.973L113.616 303.531C113.199 302.721 112.686 302.187 112.078 301.928C111.468 301.665 110.835 301.703 110.18 302.04C109.728 302.272 109.381 302.59 109.139 302.992C108.9 303.393 108.787 303.855 108.8 304.381C108.813 304.906 108.974 305.469 109.283 306.068Z" fill="#C2C8CF"/>
<path d="M124.562 300.712L121.423 294.619L122.837 293.89L128.147 304.199L126.732 304.927L125.834 303.182L125.738 303.232C125.792 303.866 125.686 304.484 125.419 305.086C125.15 305.682 124.669 306.16 123.973 306.518C123.398 306.814 122.814 306.937 122.222 306.885C121.627 306.829 121.054 306.581 120.504 306.14C119.951 305.694 119.448 305.033 118.997 304.156L115.623 297.606L117.037 296.878L120.356 303.32C120.743 304.072 121.239 304.575 121.845 304.829C122.455 305.081 123.054 305.056 123.641 304.753C123.992 304.572 124.298 304.287 124.558 303.899C124.822 303.508 124.97 303.041 125.004 302.497C125.041 301.952 124.894 301.357 124.562 300.712Z" fill="#C2C8CF"/>
<path d="M134.706 301.092C133.819 301.549 132.941 301.724 132.072 301.616C131.205 301.503 130.394 301.139 129.638 300.526C128.885 299.907 128.236 299.069 127.692 298.013C127.148 296.958 126.841 295.938 126.769 294.956C126.7 293.967 126.858 293.088 127.245 292.317C127.633 291.54 128.242 290.937 129.073 290.509C129.552 290.262 130.072 290.108 130.631 290.046C131.191 289.984 131.766 290.056 132.357 290.261C132.946 290.462 133.523 290.832 134.089 291.373C134.656 291.913 135.187 292.664 135.682 293.626L136.028 294.297L128.934 297.951L128.229 296.582L133.885 293.669C133.585 293.087 133.214 292.622 132.771 292.273C132.333 291.921 131.855 291.711 131.34 291.643C130.829 291.572 130.317 291.668 129.806 291.932C129.243 292.222 128.836 292.629 128.586 293.155C128.337 293.673 128.231 294.237 128.267 294.847C128.303 295.457 128.468 296.046 128.76 296.614L129.23 297.527C129.631 298.305 130.091 298.903 130.61 299.321C131.13 299.733 131.678 299.968 132.255 300.028C132.829 300.083 133.402 299.964 133.973 299.669C134.345 299.478 134.65 299.247 134.89 298.976C135.131 298.699 135.301 298.386 135.398 298.035C135.493 297.681 135.509 297.293 135.444 296.874L137.032 296.6C137.155 297.193 137.149 297.774 137.012 298.342C136.873 298.906 136.61 299.426 136.224 299.903C135.835 300.375 135.329 300.771 134.706 301.092Z" fill="#C2C8CF"/>
<defs>
<linearGradient id="paint0_linear_0_723" x1="400.315" y1="184.013" x2="438.806" y2="222.405" gradientUnits="userSpaceOnUse">
<stop stop-color="#00B5EF"/>
<stop offset="0.515286" stop-color="#F163A0"/>
<stop offset="1" stop-color="#FAD440"/>
</linearGradient>
<linearGradient id="paint1_linear_0_723" x1="427.748" y1="199.899" x2="466.242" y2="238.291" gradientUnits="userSpaceOnUse">
<stop stop-color="#00B5EF"/>
<stop offset="0.515286" stop-color="#F163A0"/>
<stop offset="1" stop-color="#FAD440"/>
</linearGradient>
<linearGradient id="paint2_linear_0_723" x1="455.184" y1="215.785" x2="493.675" y2="254.177" gradientUnits="userSpaceOnUse">
<stop stop-color="#00B5EF"/>
<stop offset="0.515286" stop-color="#F163A0"/>
<stop offset="1" stop-color="#FAD440"/>
</linearGradient>
<linearGradient id="paint3_linear_0_723" x1="482.627" y1="231.662" x2="521.118" y2="270.054" gradientUnits="userSpaceOnUse">
<stop stop-color="#00B5EF"/>
<stop offset="0.515286" stop-color="#F163A0"/>
<stop offset="1" stop-color="#FAD440"/>
</linearGradient>
<linearGradient id="paint4_linear_0_723" x1="510.069" y1="247.548" x2="548.561" y2="285.94" gradientUnits="userSpaceOnUse">
<stop stop-color="#00B5EF"/>
<stop offset="0.515286" stop-color="#F163A0"/>
<stop offset="1" stop-color="#FAD440"/>
</linearGradient>
<linearGradient id="paint5_linear_0_723" x1="537.49" y1="263.424" x2="575.981" y2="301.816" gradientUnits="userSpaceOnUse">
<stop stop-color="#00B5EF"/>
<stop offset="0.515286" stop-color="#F163A0"/>
<stop offset="1" stop-color="#FAD440"/>
</linearGradient>
<linearGradient id="paint6_linear_0_723" x1="627.418" y1="250.907" x2="665.91" y2="289.299" gradientUnits="userSpaceOnUse">
<stop stop-color="#00B5EF"/>
<stop offset="0.515286" stop-color="#F163A0"/>
<stop offset="1" stop-color="#FAD440"/>
</linearGradient>
<linearGradient id="paint7_linear_0_723" x1="468.515" y1="416.236" x2="496.66" y2="463.436" gradientUnits="userSpaceOnUse">
<stop stop-color="#00B5EF"/>
<stop offset="0.515286" stop-color="#F163A0"/>
<stop offset="1" stop-color="#FAD440"/>
</linearGradient>
<linearGradient id="paint8_linear_0_723" x1="468.515" y1="416.236" x2="500.136" y2="452.959" gradientUnits="userSpaceOnUse">
<stop stop-color="#00B5EF"/>
<stop offset="0.515286" stop-color="#F163A0"/>
<stop offset="1" stop-color="#FAD440"/>
</linearGradient>
<linearGradient id="paint9_linear_0_723" x1="471.791" y1="408.893" x2="495.442" y2="449.741" gradientUnits="userSpaceOnUse">
<stop stop-color="#00B5EF"/>
<stop offset="0.515286" stop-color="#F163A0"/>
<stop offset="1" stop-color="#FAD440"/>
</linearGradient>
<linearGradient id="paint10_linear_0_723" x1="569.456" y1="479.287" x2="591.858" y2="517.737" gradientUnits="userSpaceOnUse">
<stop stop-color="#00B5EF"/>
<stop offset="0.515286" stop-color="#F163A0"/>
<stop offset="1" stop-color="#FAD440"/>
</linearGradient>
<linearGradient id="paint11_linear_0_723" x1="556.86" y1="469.224" x2="579.262" y2="507.678" gradientUnits="userSpaceOnUse">
<stop stop-color="#00B5EF"/>
<stop offset="0.515286" stop-color="#F163A0"/>
<stop offset="1" stop-color="#FAD440"/>
</linearGradient>
<linearGradient id="paint12_linear_0_723" x1="531.741" y1="465.293" x2="554.143" y2="503.748" gradientUnits="userSpaceOnUse">
<stop stop-color="#00B5EF"/>
<stop offset="0.515286" stop-color="#F163A0"/>
<stop offset="1" stop-color="#FAD440"/>
</linearGradient>
<linearGradient id="paint13_linear_0_723" x1="527.716" y1="461.854" x2="550.118" y2="500.308" gradientUnits="userSpaceOnUse">
<stop stop-color="#00B5EF"/>
<stop offset="0.515286" stop-color="#F163A0"/>
<stop offset="1" stop-color="#FAD440"/>
</linearGradient>
<linearGradient id="paint14_linear_0_723" x1="572.297" y1="484.527" x2="594.699" y2="522.982" gradientUnits="userSpaceOnUse">
<stop stop-color="#00B5EF"/>
<stop offset="0.515286" stop-color="#F163A0"/>
<stop offset="1" stop-color="#FAD440"/>
</linearGradient>
<linearGradient id="paint15_linear_0_723" x1="574.339" y1="495.764" x2="592.149" y2="526.327" gradientUnits="userSpaceOnUse">
<stop stop-color="#00B5EF"/>
<stop offset="0.515286" stop-color="#F163A0"/>
<stop offset="1" stop-color="#FAD440"/>
</linearGradient>
<linearGradient id="paint16_linear_0_723" x1="577.787" y1="520.285" x2="600.189" y2="558.735" gradientUnits="userSpaceOnUse">
<stop stop-color="#00B5EF"/>
<stop offset="0.515286" stop-color="#F163A0"/>
<stop offset="1" stop-color="#FAD440"/>
</linearGradient>
<linearGradient id="paint17_linear_0_723" x1="579.239" y1="526.654" x2="601.646" y2="565.099" gradientUnits="userSpaceOnUse">
<stop stop-color="#00B5EF"/>
<stop offset="0.515286" stop-color="#F163A0"/>
<stop offset="1" stop-color="#FAD440"/>
</linearGradient>
<linearGradient id="paint18_linear_0_723" x1="581.458" y1="532.477" x2="603.856" y2="570.932" gradientUnits="userSpaceOnUse">
<stop stop-color="#00B5EF"/>
<stop offset="0.515286" stop-color="#F163A0"/>
<stop offset="1" stop-color="#FAD440"/>
</linearGradient>
<linearGradient id="paint19_linear_0_723" x1="584.239" y1="557.689" x2="589.391" y2="566.535" gradientUnits="userSpaceOnUse">
<stop stop-color="#00B5EF"/>
<stop offset="0.515286" stop-color="#F163A0"/>
<stop offset="1" stop-color="#FAD440"/>
</linearGradient>
<linearGradient id="paint20_linear_0_723" x1="613.661" y1="578.088" x2="627.563" y2="601.959" gradientUnits="userSpaceOnUse">
<stop stop-color="#00B5EF"/>
<stop offset="0.515286" stop-color="#F163A0"/>
<stop offset="1" stop-color="#FAD440"/>
</linearGradient>
<linearGradient id="paint21_linear_0_723" x1="623.416" y1="571.137" x2="645.818" y2="609.582" gradientUnits="userSpaceOnUse">
<stop stop-color="#00B5EF"/>
<stop offset="0.515286" stop-color="#F163A0"/>
<stop offset="1" stop-color="#FAD440"/>
</linearGradient>
<linearGradient id="paint22_linear_0_723" x1="628.285" y1="573.962" x2="650.687" y2="612.417" gradientUnits="userSpaceOnUse">
<stop stop-color="#00B5EF"/>
<stop offset="0.515286" stop-color="#F163A0"/>
<stop offset="1" stop-color="#FAD440"/>
</linearGradient>
<linearGradient id="paint23_linear_0_723" x1="633.167" y1="576.787" x2="655.569" y2="615.242" gradientUnits="userSpaceOnUse">
<stop stop-color="#00B5EF"/>
<stop offset="0.515286" stop-color="#F163A0"/>
<stop offset="1" stop-color="#FAD440"/>
</linearGradient>
<linearGradient id="paint24_linear_0_723" x1="638.045" y1="579.612" x2="660.452" y2="618.062" gradientUnits="userSpaceOnUse">
<stop stop-color="#00B5EF"/>
<stop offset="0.515286" stop-color="#F163A0"/>
<stop offset="1" stop-color="#FAD440"/>
</linearGradient>
<linearGradient id="paint25_linear_0_723" x1="642.918" y1="591.791" x2="657.176" y2="616.27" gradientUnits="userSpaceOnUse">
<stop stop-color="#00B5EF"/>
<stop offset="0.515286" stop-color="#F163A0"/>
<stop offset="1" stop-color="#FAD440"/>
</linearGradient>
<linearGradient id="paint26_linear_0_723" x1="82.0294" y1="276.599" x2="314.021" y2="455.098" gradientUnits="userSpaceOnUse">
<stop stop-color="#00B5EF"/>
<stop offset="0.515286" stop-color="#F163A0"/>
<stop offset="1" stop-color="#FAD440"/>
</linearGradient>
<linearGradient id="paint27_linear_0_723" x1="147.837" y1="450.255" x2="201.52" y2="602.458" gradientUnits="userSpaceOnUse">
<stop stop-color="#00B5EF"/>
<stop offset="0.515286" stop-color="#F163A0"/>
<stop offset="1" stop-color="#FAD440"/>
</linearGradient>
</defs>
</svg>
